<svg class="main-svg" xmlns="http://www.w3.org/2000/svg" xmlns:xlink="http://www.w3.org/1999/xlink" width="500" height="400" style="" viewBox="0 0 500 400"><rect x="0" y="0" width="500" height="400" style="fill: rgb(255, 255, 255); fill-opacity: 1;"/><defs id="defs-850c8a"><g class="clips"><clipPath id="clip850c8apolar-for-traces"><path d="M150,0A150,150 0,1,0 -150,-1.8369701987210297e-14A150,150 0,1,0 150,3.6739403974420595e-14Z" transform="translate(150,150)"/></clipPath></g><g class="gradients"/><g class="patterns"/></defs><g class="bglayer"/><g class="layer-below"><g class="imagelayer"/><g class="shapelayer"/></g><g class="cartesianlayer"/><g class="polarlayer"><g class="polar"><g class="polarsublayer draglayer"/><g class="polarsublayer plotbg"><path d="M150,0A150,150 0,1,0 -150,-1.8369701987210297e-14A150,150 0,1,0 150,3.6739403974420595e-14Z" transform="translate(212.5,200)" style="fill: rgb(229, 236, 246); fill-opacity: 1;"/></g><g class="polarsublayer backplot"><g class="maplayer"/></g><g class="polarsublayer angular-grid" style="fill: none;"><path class="angularaxisgrid" d="M212.5,200L212.5,50" style="stroke: rgb(255, 255, 255); stroke-opacity: 1; stroke-width: 1px;"/><path class="angularaxisgrid" d="M212.5,200L318.56601717798213,93.93398282201788" style="stroke: rgb(255, 255, 255); stroke-opacity: 1; stroke-width: 1px;"/><path class="angularaxisgrid" d="M212.5,200L362.5,200" style="stroke: rgb(255, 255, 255); stroke-opacity: 1; stroke-width: 1px;"/><path class="angularaxisgrid" d="M212.5,200L318.56601717798213,306.06601717798213" style="stroke: rgb(255, 255, 255); stroke-opacity: 1; stroke-width: 1px;"/><path class="angularaxisgrid" d="M212.5,200L212.5,350" style="stroke: rgb(255, 255, 255); stroke-opacity: 1; stroke-width: 1px;"/><path class="angularaxisgrid" d="M212.5,200L106.43398282201788,306.06601717798213" style="stroke: rgb(255, 255, 255); stroke-opacity: 1; stroke-width: 1px;"/><path class="angularaxisgrid" d="M212.5,200L62.5,200.00000000000003" style="stroke: rgb(255, 255, 255); stroke-opacity: 1; stroke-width: 1px;"/><path class="angularaxisgrid" d="M212.5,200L106.43398282201785,93.93398282201788" style="stroke: rgb(255, 255, 255); stroke-opacity: 1; stroke-width: 1px;"/></g><g class="polarsublayer radial-grid" transform="translate(212.5,200)" style="fill: none;"><path class="xgrid" d="M26.38,0A26.38,26.38 0,1,0 -26.38,-3.2306182561507177e-15A26.38,26.38 0,1,0 26.38,6.461236512301435e-15Z" style="stroke: rgb(255, 255, 255); stroke-opacity: 1; stroke-width: 1px;"/><path class="xgrid" d="M52.76,0A52.76,52.76 0,1,0 -52.76,-6.461236512301435e-15A52.76,52.76 0,1,0 52.76,1.292247302460287e-14Z" style="stroke: rgb(255, 255, 255); stroke-opacity: 1; stroke-width: 1px;"/><path class="xgrid" d="M79.14,0A79.14,79.14 0,1,0 -79.14,-9.691854768452154e-15A79.14,79.14 0,1,0 79.14,1.9383709536904308e-14Z" style="stroke: rgb(255, 255, 255); stroke-opacity: 1; stroke-width: 1px;"/><path class="xgrid" d="M105.52,0A105.52,105.52 0,1,0 -105.52,-1.292247302460287e-14A105.52,105.52 0,1,0 105.52,2.584494604920574e-14Z" style="stroke: rgb(255, 255, 255); stroke-opacity: 1; stroke-width: 1px;"/><path class="xgrid" d="M131.9,0A131.9,131.9 0,1,0 -131.9,-1.615309128075359e-14A131.9,131.9 0,1,0 131.9,3.230618256150718e-14Z" style="stroke: rgb(255, 255, 255); stroke-opacity: 1; stroke-width: 1px;"/></g><g class="polarsublayer frontplot" transform="translate(62.5,50)" clip-path="url(#clip850c8apolar-for-traces)"><g class="barlayer"><g class="trace bars" style="opacity: 1;"><g class="points"><g class="point" style="vector-effect: none; stroke-miterlimit: 2;"><path d="M0,0Z" style="opacity: 1; stroke-width: 0.5px; fill: rgb(48, 18, 59); fill-opacity: 1; stroke: rgb(229, 236, 246); stroke-opacity: 1;"/></g><g class="point" style="vector-effect: none; stroke-miterlimit: 2;"><path d="M0,0Z" style="opacity: 1; stroke-width: 0.5px; fill: rgb(48, 18, 59); fill-opacity: 1; stroke: rgb(229, 236, 246); stroke-opacity: 1;"/></g><g class="point" style="vector-effect: none; stroke-miterlimit: 2;"><path d="M0,0Z" style="opacity: 1; stroke-width: 0.5px; fill: rgb(48, 18, 59); fill-opacity: 1; stroke: rgb(229, 236, 246); stroke-opacity: 1;"/></g><g class="point" style="vector-effect: none; stroke-miterlimit: 2;"><path d="M0,0Z" style="opacity: 1; stroke-width: 0.5px; fill: rgb(48, 18, 59); fill-opacity: 1; stroke: rgb(229, 236, 246); stroke-opacity: 1;"/></g><g class="point" style="vector-effect: none; stroke-miterlimit: 2;"><path d="M0,0Z" style="opacity: 1; stroke-width: 0.5px; fill: rgb(48, 18, 59); fill-opacity: 1; stroke: rgb(229, 236, 246); stroke-opacity: 1;"/></g><g class="point" style="vector-effect: none; stroke-miterlimit: 2;"><path d="M0,0Z" style="opacity: 1; stroke-width: 0.5px; fill: rgb(48, 18, 59); fill-opacity: 1; stroke: rgb(229, 236, 246); stroke-opacity: 1;"/></g><g class="point" style="vector-effect: none; stroke-miterlimit: 2;"><path d="M0,0Z" style="opacity: 1; stroke-width: 0.5px; fill: rgb(48, 18, 59); fill-opacity: 1; stroke: rgb(229, 236, 246); stroke-opacity: 1;"/></g><g class="point" style="vector-effect: none; stroke-miterlimit: 2;"><path d="M0,0Z" style="opacity: 1; stroke-width: 0.5px; fill: rgb(48, 18, 59); fill-opacity: 1; stroke: rgb(229, 236, 246); stroke-opacity: 1;"/></g><g class="point" style="vector-effect: none; stroke-miterlimit: 2;"><path d="M0,0Z" style="opacity: 1; stroke-width: 0.5px; fill: rgb(48, 18, 59); fill-opacity: 1; stroke: rgb(229, 236, 246); stroke-opacity: 1;"/></g><g class="point" style="vector-effect: none; stroke-miterlimit: 2;"><path d="M0,0Z" style="opacity: 1; stroke-width: 0.5px; fill: rgb(48, 18, 59); fill-opacity: 1; stroke: rgb(229, 236, 246); stroke-opacity: 1;"/></g><g class="point" style="vector-effect: none; stroke-miterlimit: 2;"><path d="M0,0Z" style="opacity: 1; stroke-width: 0.5px; fill: rgb(48, 18, 59); fill-opacity: 1; stroke: rgb(229, 236, 246); stroke-opacity: 1;"/></g><g class="point" style="vector-effect: none; stroke-miterlimit: 2;"><path d="M0,0Z" style="opacity: 1; stroke-width: 0.5px; fill: rgb(48, 18, 59); fill-opacity: 1; stroke: rgb(229, 236, 246); stroke-opacity: 1;"/></g><g class="point" style="vector-effect: none; stroke-miterlimit: 2;"><path d="M0,0Z" style="opacity: 1; stroke-width: 0.5px; fill: rgb(48, 18, 59); fill-opacity: 1; stroke: rgb(229, 236, 246); stroke-opacity: 1;"/></g><g class="point" style="vector-effect: none; stroke-miterlimit: 2;"><path d="M0,0Z" style="opacity: 1; stroke-width: 0.5px; fill: rgb(48, 18, 59); fill-opacity: 1; stroke: rgb(229, 236, 246); stroke-opacity: 1;"/></g><g class="point" style="vector-effect: none; stroke-miterlimit: 2;"><path d="M0,0Z" style="opacity: 1; stroke-width: 0.5px; fill: rgb(48, 18, 59); fill-opacity: 1; stroke: rgb(229, 236, 246); stroke-opacity: 1;"/></g><g class="point" style="vector-effect: none; stroke-miterlimit: 2;"><path d="M0,0Z" style="opacity: 1; stroke-width: 0.5px; fill: rgb(48, 18, 59); fill-opacity: 1; stroke: rgb(229, 236, 246); stroke-opacity: 1;"/></g></g></g><g class="trace bars" style="opacity: 1;"><g class="points"><g class="point" style="vector-effect: none; stroke-miterlimit: 2;"><path d="M150,150L150.96973497296975,144.5696639783627A5.516242854125622,5.516242854125622 0,0,0 149.03026502703025,144.5696639783627L150,150A0,0 0,0,1 150,150Z" style="opacity: 1; stroke-width: 0.5px; fill: rgb(65, 69, 171); fill-opacity: 1; stroke: rgb(229, 236, 246); stroke-opacity: 1;"/></g><g class="point" style="vector-effect: none; stroke-miterlimit: 2;"><path d="M150,150L153.84497935764526,143.99354907511037A7.131712204921452,7.131712204921452 0,0,0 151.5283912025404,143.0339868428331L150,150A0,0 0,0,1 150,150Z" style="opacity: 1; stroke-width: 0.5px; fill: rgb(65, 69, 171); fill-opacity: 1; stroke: rgb(229, 236, 246); stroke-opacity: 1;"/></g><g class="point" style="vector-effect: none; stroke-miterlimit: 2;"><path d="M150,150L157.20241305868976,144.98019767755704A8.77913260091158,8.77913260091158 0,0,0 155.01980232244296,142.79758694131024L150,150A0,0 0,0,1 150,150Z" style="opacity: 1; stroke-width: 0.5px; fill: rgb(65, 69, 171); fill-opacity: 1; stroke: rgb(229, 236, 246); stroke-opacity: 1;"/></g><g class="point" style="vector-effect: none; stroke-miterlimit: 2;"><path d="M150,150L159.52414694767378,147.910336647649A9.750695770407486,9.750695770407486 0,0,0 158.2122040185617,144.74302623512713L150,150A0,0 0,0,1 150,150Z" style="opacity: 1; stroke-width: 0.5px; fill: rgb(65, 69, 171); fill-opacity: 1; stroke: rgb(229, 236, 246); stroke-opacity: 1;"/></g><g class="point" style="vector-effect: none; stroke-miterlimit: 2;"><path d="M150,150L157.0147507211236,151.25267553864694A7.125722678060674,7.125722678060674 0,0,0 157.0147507211236,148.74732446135306L150,150A0,0 0,0,1 150,150Z" style="opacity: 1; stroke-width: 0.5px; fill: rgb(65, 69, 171); fill-opacity: 1; stroke: rgb(229, 236, 246); stroke-opacity: 1;"/></g><g class="point" style="vector-effect: none; stroke-miterlimit: 2;"><path d="M150,150L160.87399930259025,156.9608997686561A12.911157439285217,12.911157439285217 0,0,0 162.61117807505596,152.76697921590275L150,150A0,0 0,0,1 150,150Z" style="opacity: 1; stroke-width: 0.5px; fill: rgb(65, 69, 171); fill-opacity: 1; stroke: rgb(229, 236, 246); stroke-opacity: 1;"/></g><g class="point" style="vector-effect: none; stroke-miterlimit: 2;"><path d="M150,150L157.14351121888194,160.24951087371363A12.493287224932697,12.493287224932697 0,0,0 160.24951087371363,157.14351121888197L150,150A0,0 0,0,1 150,150Z" style="opacity: 1; stroke-width: 0.5px; fill: rgb(65, 69, 171); fill-opacity: 1; stroke: rgb(229, 236, 246); stroke-opacity: 1;"/></g><g class="point" style="vector-effect: none; stroke-miterlimit: 2;"><path d="M150,150L152.3997045850831,160.93723497309963A11.197396614948607,11.197396614948607 0,0,0 156.0369456319527,159.43064040186613L150,150A0,0 0,0,1 150,150Z" style="opacity: 1; stroke-width: 0.5px; fill: rgb(65, 69, 171); fill-opacity: 1; stroke: rgb(229, 236, 246); stroke-opacity: 1;"/></g><g class="point" style="vector-effect: none; stroke-miterlimit: 2;"><path d="M150,150L148.26075200137262,159.73946626734835A9.893542680634955,9.893542680634955 0,0,0 151.73924799862738,159.73946626734835L150,150A0,0 0,0,1 150,150Z" style="opacity: 1; stroke-width: 0.5px; fill: rgb(65, 69, 171); fill-opacity: 1; stroke: rgb(229, 236, 246); stroke-opacity: 1;"/></g><g class="point" style="vector-effect: none; stroke-miterlimit: 2;"><path d="M150,150L145.6780146575389,156.75160786129243A8.01646842525524,8.01646842525524 0,0,0 148.28199744121082,157.83021284647538L150,150A0,0 0,0,1 150,150Z" style="opacity: 1; stroke-width: 0.5px; fill: rgb(65, 69, 171); fill-opacity: 1; stroke: rgb(229, 236, 246); stroke-opacity: 1;"/></g><g class="point" style="vector-effect: none; stroke-miterlimit: 2;"><path d="M150,150L145.4011093983951,153.20524823201364A5.605658836778823,5.605658836778823 0,0,0 146.79475176798636,154.5988906016049L150,150A0,0 0,0,1 150,150Z" style="opacity: 1; stroke-width: 0.5px; fill: rgb(65, 69, 171); fill-opacity: 1; stroke: rgb(229, 236, 246); stroke-opacity: 1;"/></g><g class="point" style="vector-effect: none; stroke-miterlimit: 2;"><path d="M150,150L142.20777539100564,151.70966767818302A7.977576569788669,7.977576569788669 0,0,0 143.28114752963273,154.30101725272996L150,150A0,0 0,0,1 150,150Z" style="opacity: 1; stroke-width: 0.5px; fill: rgb(65, 69, 171); fill-opacity: 1; stroke: rgb(229, 236, 246); stroke-opacity: 1;"/></g><g class="point" style="vector-effect: none; stroke-miterlimit: 2;"><path d="M150,150L137.7564099692676,147.8135722356413A12.437281182372974,12.437281182372974 0,0,0 137.7564099692676,152.1864277643587L150,150A0,0 0,0,1 150,150Z" style="opacity: 1; stroke-width: 0.5px; fill: rgb(65, 69, 171); fill-opacity: 1; stroke: rgb(229, 236, 246); stroke-opacity: 1;"/></g><g class="point" style="vector-effect: none; stroke-miterlimit: 2;"><path d="M150,150L142.20794887835183,145.011983600448A9.251830536957456,9.251830536957456 0,0,0 140.9631275917374,148.01724803332328L150,150A0,0 0,0,1 150,150Z" style="opacity: 1; stroke-width: 0.5px; fill: rgb(65, 69, 171); fill-opacity: 1; stroke: rgb(229, 236, 246); stroke-opacity: 1;"/></g><g class="point" style="vector-effect: none; stroke-miterlimit: 2;"><path d="M150,150L143.57680837332273,140.78400377568403A11.233520244323381,11.233520244323381 0,0,0 140.78400377568403,143.57680837332273L150,150A0,0 0,0,1 150,150Z" style="opacity: 1; stroke-width: 0.5px; fill: rgb(65, 69, 171); fill-opacity: 1; stroke: rgb(229, 236, 246); stroke-opacity: 1;"/></g><g class="point" style="vector-effect: none; stroke-miterlimit: 2;"><path d="M150,150L147.82576250421795,140.09038590561832A10.145331940731792,10.145331940731792 0,0,0 144.53026275209845,141.45542659774338L150,150A0,0 0,0,1 150,150Z" style="opacity: 1; stroke-width: 0.5px; fill: rgb(65, 69, 171); fill-opacity: 1; stroke: rgb(229, 236, 246); stroke-opacity: 1;"/></g></g></g><g class="trace bars" style="opacity: 1;"><g class="points"><g class="point" style="vector-effect: none; stroke-miterlimit: 2;"><path d="M150.96973497296975,144.5696639783627L156.91805934382353,111.26015055480411A39.35270613466256,39.35270613466256 0,0,0 143.08194065617647,111.26015055480411L149.03026502703025,144.5696639783627A5.516242854125622,5.516242854125622 0,0,1 150.96973497296975,144.5696639783627Z" style="opacity: 1; stroke-width: 0.5px; fill: rgb(70, 117, 237); fill-opacity: 1; stroke: rgb(229, 236, 246); stroke-opacity: 1;"/></g><g class="point" style="vector-effect: none; stroke-miterlimit: 2;"><path d="M153.84497935764526,143.99354907511037L172.33512040070795,115.10909627600384A41.42743977113828,41.42743977113828 0,0,0 158.87827953100606,109.53509028107675L151.5283912025404,143.0339868428331A7.131712204921452,7.131712204921452 0,0,1 153.84497935764526,143.99354907511037Z" style="opacity: 1; stroke-width: 0.5px; fill: rgb(70, 117, 237); fill-opacity: 1; stroke: rgb(229, 236, 246); stroke-opacity: 1;"/></g><g class="point" style="vector-effect: none; stroke-miterlimit: 2;"><path d="M157.20241305868976,144.98019767755704L183.35274546701035,126.75443107874113A40.654176964491306,40.654176964491306 0,0,0 173.24556892125887,116.64725453298965L155.01980232244296,142.79758694131024A8.77913260091158,8.77913260091158 0,0,1 157.20241305868976,144.98019767755704Z" style="opacity: 1; stroke-width: 0.5px; fill: rgb(70, 117, 237); fill-opacity: 1; stroke: rgb(229, 236, 246); stroke-opacity: 1;"/></g><g class="point" style="vector-effect: none; stroke-miterlimit: 2;"><path d="M159.52414694767378,147.910336647649L198.42102804545584,139.3760933818369A49.57280856286307,49.57280856286307 0,0,0 191.75107369536158,123.27339912942993L158.2122040185617,144.74302623512713A9.750695770407486,9.750695770407486 0,0,1 159.52414694767378,147.910336647649Z" style="opacity: 1; stroke-width: 0.5px; fill: rgb(70, 117, 237); fill-opacity: 1; stroke: rgb(229, 236, 246); stroke-opacity: 1;"/></g><g class="point" style="vector-effect: none; stroke-miterlimit: 2;"><path d="M157.0147507211236,151.25267553864694L185.50989010036702,156.34126178922088A36.07164947738842,36.07164947738842 0,0,0 185.50989010036702,143.65873821077912L157.0147507211236,148.74732446135306A7.125722678060674,7.125722678060674 0,0,1 157.0147507211236,151.25267553864694Z" style="opacity: 1; stroke-width: 0.5px; fill: rgb(70, 117, 237); fill-opacity: 1; stroke: rgb(229, 236, 246); stroke-opacity: 1;"/></g><g class="point" style="vector-effect: none; stroke-miterlimit: 2;"><path d="M160.87399930259025,156.9608997686561L189.6517125335601,175.38271236930552A47.080148619848075,47.080148619848075 0,0,0 195.98628285938355,160.08970677689638L162.61117807505596,152.76697921590275A12.911157439285217,12.911157439285217 0,0,1 160.87399930259025,156.9608997686561Z" style="opacity: 1; stroke-width: 0.5px; fill: rgb(70, 117, 237); fill-opacity: 1; stroke: rgb(229, 236, 246); stroke-opacity: 1;"/></g><g class="point" style="vector-effect: none; stroke-miterlimit: 2;"><path d="M157.14351121888194,160.24951087371363L173.8625812429161,184.23803483049943A41.73326985307123,41.73326985307123 0,0,0 184.23803483049943,173.86258124291612L160.24951087371363,157.14351121888197A12.493287224932697,12.493287224932697 0,0,1 157.14351121888194,160.24951087371363Z" style="opacity: 1; stroke-width: 0.5px; fill: rgb(70, 117, 237); fill-opacity: 1; stroke: rgb(229, 236, 246); stroke-opacity: 1;"/></g><g class="point" style="vector-effect: none; stroke-miterlimit: 2;"><path d="M152.3997045850831,160.93723497309963L159.11908399307634,191.56243438950375A42.55107102358981,42.55107102358981 0,0,0 172.94091306972507,185.83724532915306L156.0369456319527,159.43064040186613A11.197396614948607,11.197396614948607 0,0,1 152.3997045850831,160.93723497309963Z" style="opacity: 1; stroke-width: 0.5px; fill: rgb(70, 117, 237); fill-opacity: 1; stroke: rgb(229, 236, 246); stroke-opacity: 1;"/></g><g class="point" style="vector-effect: none; stroke-miterlimit: 2;"><path d="M148.26075200137262,159.73946626734835L143.2426926395184,187.8396681482194A38.438284149157724,38.438284149157724 0,0,0 156.75730736048158,187.83966814821943L151.73924799862738,159.73946626734835A9.893542680634955,9.893542680634955 0,0,1 148.26075200137262,159.73946626734835Z" style="opacity: 1; stroke-width: 0.5px; fill: rgb(70, 117, 237); fill-opacity: 1; stroke: rgb(229, 236, 246); stroke-opacity: 1;"/></g><g class="point" style="vector-effect: none; stroke-miterlimit: 2;"><path d="M145.6780146575389,156.75160786129243L132.13643774016353,177.9056400768634A33.13354198860271,33.13354198860271 0,0,0 142.89917867837724,182.36371334177966L148.28199744121082,157.83021284647538A8.01646842525524,8.01646842525524 0,0,1 145.6780146575389,156.75160786129243Z" style="opacity: 1; stroke-width: 0.5px; fill: rgb(70, 117, 237); fill-opacity: 1; stroke: rgb(229, 236, 246); stroke-opacity: 1;"/></g><g class="point" style="vector-effect: none; stroke-miterlimit: 2;"><path d="M145.4011093983951,153.20524823201364L112.55797351078637,176.09563905818493A45.63866480818695,45.63866480818695 0,0,0 123.90436094181507,187.44202648921362L146.79475176798636,154.5988906016049A5.605658836778823,5.605658836778823 0,0,1 145.4011093983951,153.20524823201364Z" style="opacity: 1; stroke-width: 0.5px; fill: rgb(70, 117, 237); fill-opacity: 1; stroke: rgb(229, 236, 246); stroke-opacity: 1;"/></g><g class="point" style="vector-effect: none; stroke-miterlimit: 2;"><path d="M142.20777539100564,151.70966767818302L111.97676160057458,158.34256004842428A38.927688944260545,38.927688944260545 0,0,0 117.21442950239683,170.98740893220975L143.28114752963273,154.30101725272996A7.977576569788669,7.977576569788669 0,0,1 142.20777539100564,151.70966767818302Z" style="opacity: 1; stroke-width: 0.5px; fill: rgb(70, 117, 237); fill-opacity: 1; stroke: rgb(229, 236, 246); stroke-opacity: 1;"/></g><g class="point" style="vector-effect: none; stroke-miterlimit: 2;"><path d="M137.7564099692676,147.8135722356413L103.78662483555414,141.74733829778313A46.94446153979251,46.94446153979251 0,0,0 103.78662483555415,158.25266170221693L137.7564099692676,152.1864277643587A12.437281182372974,12.437281182372974 0,0,1 137.7564099692676,147.8135722356413Z" style="opacity: 1; stroke-width: 0.5px; fill: rgb(70, 117, 237); fill-opacity: 1; stroke: rgb(229, 236, 246); stroke-opacity: 1;"/></g><g class="point" style="vector-effect: none; stroke-miterlimit: 2;"><path d="M142.20794887835183,145.011983600448L116.83727444246595,128.77115840843794A39.375501034576786,39.375501034576786 0,0,0 111.53935402951069,141.56146972176782L140.9631275917374,148.01724803332328A9.251830536957456,9.251830536957456 0,0,1 142.20794887835183,145.011983600448Z" style="opacity: 1; stroke-width: 0.5px; fill: rgb(70, 117, 237); fill-opacity: 1; stroke: rgb(229, 236, 246); stroke-opacity: 1;"/></g><g class="point" style="vector-effect: none; stroke-miterlimit: 2;"><path d="M143.57680837332273,140.78400377568403L126.84777529754341,116.78118483089187A40.49092725429254,40.49092725429254 0,0,0 116.78118483089183,126.84777529754345L140.78400377568403,143.57680837332273A11.233520244323381,11.233520244323381 0,0,1 143.57680837332273,140.78400377568403Z" style="opacity: 1; stroke-width: 0.5px; fill: rgb(70, 117, 237); fill-opacity: 1; stroke: rgb(229, 236, 246); stroke-opacity: 1;"/></g><g class="point" style="vector-effect: none; stroke-miterlimit: 2;"><path d="M147.82576250421795,140.09038590561832L141.6726593257786,112.04612758538578A38.85667296577715,38.85667296577715 0,0,0 129.05087850332967,117.27424038334476L144.53026275209845,141.45542659774338A10.145331940731792,10.145331940731792 0,0,1 147.82576250421795,140.09038590561832Z" style="opacity: 1; stroke-width: 0.5px; fill: rgb(70, 117, 237); fill-opacity: 1; stroke: rgb(229, 236, 246); stroke-opacity: 1;"/></g></g></g><g class="trace bars" style="opacity: 1;"><g class="points"><g class="point" style="vector-effect: none; stroke-miterlimit: 2;"><path d="M156.91805934382353,111.26015055480411L164.65385623336968,67.94112249425534A83.35703257680827,83.35703257680827 0,0,0 135.34614376663032,67.94112249425534L143.08194065617647,111.26015055480411A39.35270613466256,39.35270613466256 0,0,1 156.91805934382353,111.26015055480411Z" style="opacity: 1; stroke-width: 0.5px; fill: rgb(57, 162, 252); fill-opacity: 1; stroke: rgb(229, 236, 246); stroke-opacity: 1;"/></g><g class="point" style="vector-effect: none; stroke-miterlimit: 2;"><path d="M172.33512040070795,115.10909627600384L199.77607713880678,72.24208851127281A92.32524386329654,92.32524386329654 0,0,0 169.78614481886737,59.8198518097027L158.87827953100606,109.53509028107675A41.42743977113828,41.42743977113828 0,0,1 172.33512040070795,115.10909627600384Z" style="opacity: 1; stroke-width: 0.5px; fill: rgb(57, 162, 252); fill-opacity: 1; stroke: rgb(229, 236, 246); stroke-opacity: 1;"/></g><g class="point" style="vector-effect: none; stroke-miterlimit: 2;"><path d="M183.35274546701035,126.75443107874113L219.29313055656155,101.70537778619865A84.46246786059756,84.46246786059756 0,0,0 198.29462221380135,80.70686944343848L173.24556892125887,116.64725453298965A40.654176964491306,40.654176964491306 0,0,1 183.35274546701035,126.75443107874113Z" style="opacity: 1; stroke-width: 0.5px; fill: rgb(57, 162, 252); fill-opacity: 1; stroke: rgb(229, 236, 246); stroke-opacity: 1;"/></g><g class="point" style="vector-effect: none; stroke-miterlimit: 2;"><path d="M198.42102804545584,139.3760933818369L230.01361742708144,132.44446196126322A81.9168840325173,81.9168840325173 0,0,0 218.99181146452457,105.83546852461373L191.75107369536158,123.27339912942993A49.57280856286307,49.57280856286307 0,0,1 198.42102804545584,139.3760933818369Z" style="opacity: 1; stroke-width: 0.5px; fill: rgb(57, 162, 252); fill-opacity: 1; stroke: rgb(229, 236, 246); stroke-opacity: 1;"/></g><g class="point" style="vector-effect: none; stroke-miterlimit: 2;"><path d="M185.50989010036702,156.34126178922088L240.07148200204892,166.08472584690384A91.49639487769711,91.49639487769711 0,0,0 240.07148200204892,133.91527415309614L185.50989010036702,143.65873821077912A36.07164947738842,36.07164947738842 0,0,1 185.50989010036702,156.34126178922088Z" style="opacity: 1; stroke-width: 0.5px; fill: rgb(57, 162, 252); fill-opacity: 1; stroke: rgb(229, 236, 246); stroke-opacity: 1;"/></g><g class="point" style="vector-effect: none; stroke-miterlimit: 2;"><path d="M189.6517125335601,175.38271236930552L218.22075396602213,193.67094546221924A81.00137498374116,81.00137498374116 0,0,0 229.11937942419638,167.35933606987015L195.98628285938355,160.08970677689638A47.080148619848075,47.080148619848075 0,0,1 189.6517125335601,175.38271236930552Z" style="opacity: 1; stroke-width: 0.5px; fill: rgb(57, 162, 252); fill-opacity: 1; stroke: rgb(229, 236, 246); stroke-opacity: 1;"/></g><g class="point" style="vector-effect: none; stroke-miterlimit: 2;"><path d="M173.8625812429161,184.23803483049943L197.360533489571,217.95289992730096A82.82884003139579,82.82884003139579 0,0,0 217.95289992730093,197.36053348957103L184.23803483049943,173.86258124291612A41.73326985307123,41.73326985307123 0,0,1 173.8625812429161,184.23803483049943Z" style="opacity: 1; stroke-width: 0.5px; fill: rgb(57, 162, 252); fill-opacity: 1; stroke: rgb(229, 236, 246); stroke-opacity: 1;"/></g><g class="point" style="vector-effect: none; stroke-miterlimit: 2;"><path d="M159.11908399307634,191.56243438950375L166.5558023361042,225.45707977713127A77.25196100737188,77.25196100737188 0,0,0 191.64949269910045,215.0629328987872L172.94091306972507,185.83724532915306A42.55107102358981,42.55107102358981 0,0,1 159.11908399307634,191.56243438950375Z" style="opacity: 1; stroke-width: 0.5px; fill: rgb(57, 162, 252); fill-opacity: 1; stroke: rgb(229, 236, 246); stroke-opacity: 1;"/></g><g class="point" style="vector-effect: none; stroke-miterlimit: 2;"><path d="M143.2426926395184,187.8396681482194L134.94189893157505,234.32257361916706A85.6565399111285,85.6565399111285 0,0,0 165.05810106842495,234.3225736191671L156.75730736048158,187.83966814821943A38.438284149157724,38.438284149157724 0,0,1 143.2426926395184,187.8396681482194Z" style="opacity: 1; stroke-width: 0.5px; fill: rgb(57, 162, 252); fill-opacity: 1; stroke: rgb(229, 236, 246); stroke-opacity: 1;"/></g><g class="point" style="vector-effect: none; stroke-miterlimit: 2;"><path d="M132.13643774016353,177.9056400768634L112.62762513691465,208.38141500431192A69.31871335225915,69.31871335225915 0,0,0 135.1443652499183,217.70815413954836L142.89917867837724,182.36371334177966A33.13354198860271,33.13354198860271 0,0,1 132.13643774016353,177.9056400768634Z" style="opacity: 1; stroke-width: 0.5px; fill: rgb(57, 162, 252); fill-opacity: 1; stroke: rgb(229, 236, 246); stroke-opacity: 1;"/></g><g class="point" style="vector-effect: none; stroke-miterlimit: 2;"><path d="M112.55797351078637,176.09563905818493L79.97567853801263,198.804233891901A85.35372775683041,85.35372775683041 0,0,0 101.195766108099,220.02432146198737L123.90436094181507,187.44202648921362A45.63866480818695,45.63866480818695 0,0,1 112.55797351078637,176.09563905818493Z" style="opacity: 1; stroke-width: 0.5px; fill: rgb(57, 162, 252); fill-opacity: 1; stroke: rgb(229, 236, 246); stroke-opacity: 1;"/></g><g class="point" style="vector-effect: none; stroke-miterlimit: 2;"><path d="M111.97676160057458,158.34256004842428L80.99052038609301,165.14115451034883A70.65099317411257,70.65099317411257 0,0,0 90.49651596959069,188.09065797188762L117.21442950239683,170.98740893220975A38.927688944260545,38.927688944260545 0,0,1 111.97676160057458,158.34256004842428Z" style="opacity: 1; stroke-width: 0.5px; fill: rgb(57, 162, 252); fill-opacity: 1; stroke: rgb(229, 236, 246); stroke-opacity: 1;"/></g><g class="point" style="vector-effect: none; stroke-miterlimit: 2;"><path d="M103.78662483555414,141.74733829778313L63.7849447843802,134.60394459827614A87.57896018887939,87.57896018887939 0,0,0 63.784944784380215,165.39605540172394L103.78662483555415,158.25266170221693A46.94446153979251,46.94446153979251 0,0,1 103.78662483555414,141.74733829778313Z" style="opacity: 1; stroke-width: 0.5px; fill: rgb(57, 162, 252); fill-opacity: 1; stroke: rgb(229, 236, 246); stroke-opacity: 1;"/></g><g class="point" style="vector-effect: none; stroke-miterlimit: 2;"><path d="M116.83727444246595,128.77115840843794L80.44625433016705,105.47575103973226A82.58409218596346,82.58409218596346 0,0,0 69.33467641289323,132.30147314698007L111.53935402951069,141.56146972176782A39.375501034576786,39.375501034576786 0,0,1 116.83727444246595,128.77115840843794Z" style="opacity: 1; stroke-width: 0.5px; fill: rgb(57, 162, 252); fill-opacity: 1; stroke: rgb(229, 236, 246); stroke-opacity: 1;"/></g><g class="point" style="vector-effect: none; stroke-miterlimit: 2;"><path d="M126.84777529754341,116.78118483089187L102.15483565495043,81.35175165498616A83.67641096535809,83.67641096535809 0,0,0 81.35175165498609,102.15483565495052L116.78118483089183,126.84777529754345A40.49092725429254,40.49092725429254 0,0,1 126.84777529754341,116.78118483089187Z" style="opacity: 1; stroke-width: 0.5px; fill: rgb(57, 162, 252); fill-opacity: 1; stroke: rgb(229, 236, 246); stroke-opacity: 1;"/></g><g class="point" style="vector-effect: none; stroke-miterlimit: 2;"><path d="M141.6726593257786,112.04612758538578L132.1176371714087,68.49679942010393A83.44189957749137,83.44189957749137 0,0,0 105.01327420128315,79.72379416181307L129.05087850332967,117.27424038334476A38.85667296577715,38.85667296577715 0,0,1 141.6726593257786,112.04612758538578Z" style="opacity: 1; stroke-width: 0.5px; fill: rgb(57, 162, 252); fill-opacity: 1; stroke: rgb(229, 236, 246); stroke-opacity: 1;"/></g></g></g><g class="trace bars" style="opacity: 1;"><g class="points"><g class="point" style="vector-effect: none; stroke-miterlimit: 2;"><path d="M164.65385623336968,67.94112249425534L172.80884875404095,22.274676634758578A129.745912499162,129.745912499162 0,0,0 127.19115124595908,22.274676634758578L135.34614376663032,67.94112249425534A83.35703257680827,83.35703257680827 0,0,1 164.65385623336968,67.94112249425534Z" style="opacity: 1; stroke-width: 0.5px; fill: rgb(27, 207, 212); fill-opacity: 1; stroke: rgb(229, 236, 246); stroke-opacity: 1;"/></g><g class="point" style="vector-effect: none; stroke-miterlimit: 2;"><path d="M199.77607713880678,72.24208851127281L226.82721101481746,29.984044195429163A142.49999999999997,142.49999999999997 0,0,0 180.53905431176975,10.810861911775703L169.78614481886737,59.8198518097027A92.32524386329654,92.32524386329654 0,0,1 199.77607713880678,72.24208851127281Z" style="opacity: 1; stroke-width: 0.5px; fill: rgb(27, 207, 212); fill-opacity: 1; stroke: rgb(229, 236, 246); stroke-opacity: 1;"/></g><g class="point" style="vector-effect: none; stroke-miterlimit: 2;"><path d="M219.29313055656155,101.70537778619865L251.29613299855922,79.40052735976218A123.47142218967709,123.47142218967709 0,0,0 220.59947264023782,48.7038670014408L198.29462221380135,80.70686944343848A84.46246786059756,84.46246786059756 0,0,1 219.29313055656155,101.70537778619865Z" style="opacity: 1; stroke-width: 0.5px; fill: rgb(27, 207, 212); fill-opacity: 1; stroke: rgb(229, 236, 246); stroke-opacity: 1;"/></g><g class="point" style="vector-effect: none; stroke-miterlimit: 2;"><path d="M230.01361742708144,132.44446196126322L274.4774352637554,122.68879448265481A127.43835308357168,127.43835308357168 0,0,0 257.33077720340515,81.29310004398327L218.99181146452457,105.83546852461373A81.9168840325173,81.9168840325173 0,0,1 230.01361742708144,132.44446196126322Z" style="opacity: 1; stroke-width: 0.5px; fill: rgb(27, 207, 212); fill-opacity: 1; stroke: rgb(229, 236, 246); stroke-opacity: 1;"/></g><g class="point" style="vector-effect: none; stroke-miterlimit: 2;"><path d="M240.07148200204892,166.08472584690384L277.72687124437545,172.80912517018243A129.7474848654351,129.7474848654351 0,0,0 277.72687124437545,127.19087482981756L240.07148200204892,133.91527415309614A91.49639487769711,91.49639487769711 0,0,1 240.07148200204892,166.08472584690384Z" style="opacity: 1; stroke-width: 0.5px; fill: rgb(27, 207, 212); fill-opacity: 1; stroke: rgb(229, 236, 246); stroke-opacity: 1;"/></g><g class="point" style="vector-effect: none; stroke-miterlimit: 2;"><path d="M218.22075396602213,193.67094546221924L248.08239559071916,212.78662576463853A116.45736000666982,116.45736000666982 0,0,0 263.75157588321696,174.95787819122114L229.11937942419638,167.35933606987015A81.00137498374116,81.00137498374116 0,0,1 218.22075396602213,193.67094546221924Z" style="opacity: 1; stroke-width: 0.5px; fill: rgb(27, 207, 212); fill-opacity: 1; stroke: rgb(229, 236, 246); stroke-opacity: 1;"/></g><g class="point" style="vector-effect: none; stroke-miterlimit: 2;"><path d="M197.360533489571,217.95289992730096L222.56501202409913,254.11628917530732A126.90895414309374,126.90895414309374 0,0,0 254.11628917530732,222.5650120240992L217.95289992730093,197.36053348957103A82.82884003139579,82.82884003139579 0,0,1 197.360533489571,217.95289992730096Z" style="opacity: 1; stroke-width: 0.5px; fill: rgb(27, 207, 212); fill-opacity: 1; stroke: rgb(229, 236, 246); stroke-opacity: 1;"/></g><g class="point" style="vector-effect: none; stroke-miterlimit: 2;"><path d="M166.5558023361042,225.45707977713127L175.39825979963692,265.7587217456768A118.5122494134799,118.5122494134799 0,0,0 213.8944953931937,249.81305886251567L191.64949269910045,215.0629328987872A77.25196100737188,77.25196100737188 0,0,1 166.5558023361042,225.45707977713127Z" style="opacity: 1; stroke-width: 0.5px; fill: rgb(27, 207, 212); fill-opacity: 1; stroke: rgb(229, 236, 246); stroke-opacity: 1;"/></g><g class="point" style="vector-effect: none; stroke-miterlimit: 2;"><path d="M134.94189893157505,234.32257361916706L127.21455777718579,277.59425113086286A129.61276672818502,129.61276672818502 0,0,0 172.78544222281417,277.59425113086286L165.05810106842495,234.3225736191671A85.6565399111285,85.6565399111285 0,0,1 134.94189893157505,234.32257361916706Z" style="opacity: 1; stroke-width: 0.5px; fill: rgb(27, 207, 212); fill-opacity: 1; stroke: rgb(229, 236, 246); stroke-opacity: 1;"/></g><g class="point" style="vector-effect: none; stroke-miterlimit: 2;"><path d="M112.62762513691465,208.38141500431192L82.93728598453309,254.7623051142977A124.38869797526425,124.38869797526425 0,0,0 123.3423634860567,271.49863620416477L135.1443652499183,217.70815413954836A69.31871335225915,69.31871335225915 0,0,1 112.62762513691465,208.38141500431192Z" style="opacity: 1; stroke-width: 0.5px; fill: rgb(27, 207, 212); fill-opacity: 1; stroke: rgb(229, 236, 246); stroke-opacity: 1;"/></g><g class="point" style="vector-effect: none; stroke-miterlimit: 2;"><path d="M79.97567853801263,198.804233891901L49.04636778246412,220.36076289087885A123.05394269384453,123.05394269384453 0,0,0 79.63923710912111,250.95363221753587L101.195766108099,220.02432146198737A85.35372775683041,85.35372775683041 0,0,1 79.97567853801263,198.804233891901Z" style="opacity: 1; stroke-width: 0.5px; fill: rgb(27, 207, 212); fill-opacity: 1; stroke: rgb(229, 236, 246); stroke-opacity: 1;"/></g><g class="point" style="vector-effect: none; stroke-miterlimit: 2;"><path d="M80.99052038609301,165.14115451034883L40.72034334109888,173.97670835322236A111.87906820734071,111.87906820734071 0,0,0 55.773520663657806,210.31829320215115L90.49651596959069,188.09065797188762A70.65099317411257,70.65099317411257 0,0,1 80.99052038609301,165.14115451034883Z" style="opacity: 1; stroke-width: 0.5px; fill: rgb(27, 207, 212); fill-opacity: 1; stroke: rgb(229, 236, 246); stroke-opacity: 1;"/></g><g class="point" style="vector-effect: none; stroke-miterlimit: 2;"><path d="M63.7849447843802,134.60394459827614L23.2518404112422,127.36565055587289A128.7532901866825,128.7532901866825 0,0,0 23.251840411242227,172.63434944412725L63.784944784380215,165.39605540172394A87.57896018887939,87.57896018887939 0,0,1 63.7849447843802,134.60394459827614Z" style="opacity: 1; stroke-width: 0.5px; fill: rgb(27, 207, 212); fill-opacity: 1; stroke: rgb(229, 236, 246); stroke-opacity: 1;"/></g><g class="point" style="vector-effect: none; stroke-miterlimit: 2;"><path d="M80.44625433016705,105.47575103973226L48.41551793382601,84.97154284854136A120.61553480440203,120.61553480440203 0,0,0 32.186860845789894,124.15098688958042L69.33467641289323,132.30147314698007A82.58409218596346,82.58409218596346 0,0,1 80.44625433016705,105.47575103973226Z" style="opacity: 1; stroke-width: 0.5px; fill: rgb(27, 207, 212); fill-opacity: 1; stroke: rgb(229, 236, 246); stroke-opacity: 1;"/></g><g class="point" style="vector-effect: none; stroke-miterlimit: 2;"><path d="M102.15483565495043,81.35175165498616L77.41557898811381,45.85586280636191A126.94289852306846,126.94289852306846 0,0,0 45.85586280636181,77.41557898811394L81.35175165498609,102.15483565495052A83.67641096535809,83.67641096535809 0,0,1 102.15483565495043,81.35175165498616Z" style="opacity: 1; stroke-width: 0.5px; fill: rgb(27, 207, 212); fill-opacity: 1; stroke: rgb(229, 236, 246); stroke-opacity: 1;"/></g><g class="point" style="vector-effect: none; stroke-miterlimit: 2;"><path d="M132.1176371714087,68.49679942010393L124.46849640722687,33.633987388899726A119.13398577532162,119.13398577532162 0,0,0 85.77030270739007,49.66330405871324L105.01327420128315,79.72379416181307A83.44189957749137,83.44189957749137 0,0,1 132.1176371714087,68.49679942010393Z" style="opacity: 1; stroke-width: 0.5px; fill: rgb(27, 207, 212); fill-opacity: 1; stroke: rgb(229, 236, 246); stroke-opacity: 1;"/></g></g></g></g><g class="scatterlayer"/></g><g class="polarsublayer angular-line"><path d="M150,0A150,150 0,1,0 -150,-1.8369701987210297e-14A150,150 0,1,0 150,3.6739403974420595e-14Z" transform="translate(212.5,200)" stroke-width="1" style="fill: none; stroke: rgb(255, 255, 255); stroke-opacity: 1;"/></g><g class="polarsublayer radial-line"><line x1="0" y1="0" x2="150" y2="0" transform="translate(212.5,200)" stroke-width="1" style="fill: none; stroke: rgb(255, 255, 255); stroke-opacity: 1;"/></g><g class="polarsublayer angular-axis"><g class="angularaxistick"><text text-anchor="middle" x="1.7757378587636624e-16" y="-5.300000000000001" transform="translate(212.5,50)" style="font-family: 'Open Sans', verdana, arial, sans-serif; font-size: 12px; fill: rgb(42, 63, 95); fill-opacity: 1; white-space: pre; opacity: 1;">0°</text></g><g class="angularaxistick"><text text-anchor="start" x="2.050609665440988" y="-0.7778174593052025" transform="translate(318.56601717798213,93.93398282201788)" style="font-family: 'Open Sans', verdana, arial, sans-serif; font-size: 12px; fill: rgb(42, 63, 95); fill-opacity: 1; white-space: pre; opacity: 1;">45°</text></g><g class="angularaxistick"><text text-anchor="start" x="2.9000000000000004" y="4.199999999999999" transform="translate(362.5,200)" style="font-family: 'Open Sans', verdana, arial, sans-serif; font-size: 12px; fill: rgb(42, 63, 95); fill-opacity: 1; white-space: pre; opacity: 1;">90°</text></g><g class="angularaxistick"><text text-anchor="start" x="2.050609665440988" y="13.505739520663056" transform="translate(318.56601717798213,306.06601717798213)" style="font-family: 'Open Sans', verdana, arial, sans-serif; font-size: 12px; fill: rgb(42, 63, 95); fill-opacity: 1; white-space: pre; opacity: 1;">135°</text></g><g class="angularaxistick"><text text-anchor="middle" x="1.7757378587636624e-16" y="14.9" transform="translate(212.5,350)" style="font-family: 'Open Sans', verdana, arial, sans-serif; font-size: 12px; fill: rgb(42, 63, 95); fill-opacity: 1; white-space: pre; opacity: 1;">180°</text></g><g class="angularaxistick"><text text-anchor="end" x="-2.0506096654409878" y="13.505739520663058" transform="translate(106.43398282201788,306.06601717798213)" style="font-family: 'Open Sans', verdana, arial, sans-serif; font-size: 12px; fill: rgb(42, 63, 95); fill-opacity: 1; white-space: pre; opacity: 1;">225°</text></g><g class="angularaxistick"><text text-anchor="end" x="-2.9000000000000004" y="4.200000000000001" transform="translate(62.5,200.00000000000003)" style="font-family: 'Open Sans', verdana, arial, sans-serif; font-size: 12px; fill: rgb(42, 63, 95); fill-opacity: 1; white-space: pre; opacity: 1;">270°</text></g><g class="angularaxistick"><text text-anchor="end" x="-2.0506096654409887" y="-0.7778174593052021" transform="translate(106.43398282201785,93.93398282201788)" style="font-family: 'Open Sans', verdana, arial, sans-serif; font-size: 12px; fill: rgb(42, 63, 95); fill-opacity: 1; white-space: pre; opacity: 1;">315°</text></g></g><g class="polarsublayer radial-axis" transform="translate(212.5,200)"><g class="xtick"><text text-anchor="middle" x="0" y="14.9" transform="" style="font-family: 'Open Sans', verdana, arial, sans-serif; font-size: 12px; fill: rgb(42, 63, 95); fill-opacity: 1; white-space: pre; opacity: 1;">0</text></g><g class="xtick"><text text-anchor="middle" x="0" y="14.9" transform="translate(26.38,0)" style="font-family: 'Open Sans', verdana, arial, sans-serif; font-size: 12px; fill: rgb(42, 63, 95); fill-opacity: 1; white-space: pre; opacity: 1;">0.5</text></g><g class="xtick"><text text-anchor="middle" x="0" y="14.9" transform="translate(52.76,0)" style="font-family: 'Open Sans', verdana, arial, sans-serif; font-size: 12px; fill: rgb(42, 63, 95); fill-opacity: 1; white-space: pre; opacity: 1;">1</text></g><g class="xtick"><text text-anchor="middle" x="0" y="14.9" transform="translate(79.14,0)" style="font-family: 'Open Sans', verdana, arial, sans-serif; font-size: 12px; fill: rgb(42, 63, 95); fill-opacity: 1; white-space: pre; opacity: 1;">1.5</text></g><g class="xtick"><text text-anchor="middle" x="0" y="14.9" transform="translate(105.52,0)" style="font-family: 'Open Sans', verdana, arial, sans-serif; font-size: 12px; fill: rgb(42, 63, 95); fill-opacity: 1; white-space: pre; opacity: 1;">2</text></g><g class="xtick"><text text-anchor="middle" x="0" y="14.9" transform="translate(131.9,0)" style="font-family: 'Open Sans', verdana, arial, sans-serif; font-size: 12px; fill: rgb(42, 63, 95); fill-opacity: 1; white-space: pre; opacity: 1;">2.5</text></g></g></g></g><g class="smithlayer"/><g class="ternarylayer"/><g class="geolayer"/><g class="funnelarealayer"/><g class="pielayer"/><g class="iciclelayer"/><g class="treemaplayer"/><g class="sunburstlayer"/><g class="glimages"/><defs id="topdefs-850c8a"><g class="clips"/><clipPath id="legend850c8a"><rect width="106" height="124" x="0" y="0"/></clipPath></defs><g class="layer-above"><g class="imagelayer"/><g class="shapelayer"/></g><g class="infolayer"><g class="legend" pointer-events="all" transform="translate(381.5,50)"><rect class="bg" shape-rendering="crispEdges" width="106" height="124" x="0" y="0" style="stroke: rgb(68, 68, 68); stroke-opacity: 1; fill: rgb(255, 255, 255); fill-opacity: 1; stroke-width: 0px;"/><g class="scrollbox" transform="" clip-path="url(#legend850c8a)"><text class="legendtitletext" text-anchor="start" x="2" y="18.2" style="font-family: 'Open Sans', verdana, arial, sans-serif; font-size: 14px; fill: rgb(42, 63, 95); fill-opacity: 1; white-space: pre;">AMB_WS [m/s]</text><g class="groups" transform=""><g class="traces" transform="translate(0,32.7)" style="opacity: 1;"><text class="legendtext" text-anchor="start" x="40" y="4.680000000000001" style="font-family: 'Open Sans', verdana, arial, sans-serif; font-size: 12px; fill: rgb(42, 63, 95); fill-opacity: 1; white-space: pre;">[0.0, 3.5)</text><g class="layers" style="opacity: 1;"><g class="legendfill"/><g class="legendlines"/><g class="legendsymbols"><g class="legendpoints"><path class="legendundefined" d="M6,6H-6V-6H6Z" transform="translate(20,0)" style="stroke-width: 0.5px; fill: rgb(48, 18, 59); fill-opacity: 1; stroke: rgb(229, 236, 246); stroke-opacity: 1;"/></g></g></g><rect class="legendtoggle" x="0" y="-9.5" width="100.71875" height="19" style="fill: rgb(0, 0, 0); fill-opacity: 0;"/></g></g><g class="groups" transform=""><g class="traces" transform="translate(0,51.7)" style="opacity: 1;"><text class="legendtext" text-anchor="start" x="40" y="4.680000000000001" style="font-family: 'Open Sans', verdana, arial, sans-serif; font-size: 12px; fill: rgb(42, 63, 95); fill-opacity: 1; white-space: pre;">[3.5, 6.0)</text><g class="layers" style="opacity: 1;"><g class="legendfill"/><g class="legendlines"/><g class="legendsymbols"><g class="legendpoints"><path class="legendundefined" d="M6,6H-6V-6H6Z" transform="translate(20,0)" style="stroke-width: 0.5px; fill: rgb(65, 69, 171); fill-opacity: 1; stroke: rgb(229, 236, 246); stroke-opacity: 1;"/></g></g></g><rect class="legendtoggle" x="0" y="-9.5" width="100.71875" height="19" style="fill: rgb(0, 0, 0); fill-opacity: 0;"/></g></g><g class="groups" transform=""><g class="traces" transform="translate(0,70.7)" style="opacity: 1;"><text class="legendtext" text-anchor="start" x="40" y="4.680000000000001" style="font-family: 'Open Sans', verdana, arial, sans-serif; font-size: 12px; fill: rgb(42, 63, 95); fill-opacity: 1; white-space: pre;">[6.0, 10.0)</text><g class="layers" style="opacity: 1;"><g class="legendfill"/><g class="legendlines"/><g class="legendsymbols"><g class="legendpoints"><path class="legendundefined" d="M6,6H-6V-6H6Z" transform="translate(20,0)" style="stroke-width: 0.5px; fill: rgb(70, 117, 237); fill-opacity: 1; stroke: rgb(229, 236, 246); stroke-opacity: 1;"/></g></g></g><rect class="legendtoggle" x="0" y="-9.5" width="100.71875" height="19" style="fill: rgb(0, 0, 0); fill-opacity: 0;"/></g></g><g class="groups" transform=""><g class="traces" transform="translate(0,89.7)" style="opacity: 1;"><text class="legendtext" text-anchor="start" x="40" y="4.680000000000001" style="font-family: 'Open Sans', verdana, arial, sans-serif; font-size: 12px; fill: rgb(42, 63, 95); fill-opacity: 1; white-space: pre;">[10.0, 15.0)</text><g class="layers" style="opacity: 1;"><g class="legendfill"/><g class="legendlines"/><g class="legendsymbols"><g class="legendpoints"><path class="legendundefined" d="M6,6H-6V-6H6Z" transform="translate(20,0)" style="stroke-width: 0.5px; fill: rgb(57, 162, 252); fill-opacity: 1; stroke: rgb(229, 236, 246); stroke-opacity: 1;"/></g></g></g><rect class="legendtoggle" x="0" y="-9.5" width="100.71875" height="19" style="fill: rgb(0, 0, 0); fill-opacity: 0;"/></g></g><g class="groups" transform=""><g class="traces" transform="translate(0,108.7)" style="opacity: 1;"><text class="legendtext" text-anchor="start" x="40" y="4.680000000000001" style="font-family: 'Open Sans', verdana, arial, sans-serif; font-size: 12px; fill: rgb(42, 63, 95); fill-opacity: 1; white-space: pre;">[15.0, 20.0)</text><g class="layers" style="opacity: 1;"><g class="legendfill"/><g class="legendlines"/><g class="legendsymbols"><g class="legendpoints"><path class="legendundefined" d="M6,6H-6V-6H6Z" transform="translate(20,0)" style="stroke-width: 0.5px; fill: rgb(27, 207, 212); fill-opacity: 1; stroke: rgb(229, 236, 246); stroke-opacity: 1;"/></g></g></g><rect class="legendtoggle" x="0" y="-9.5" width="100.71875" height="19" style="fill: rgb(0, 0, 0); fill-opacity: 0;"/></g></g></g><rect class="scrollbar" rx="20" ry="3" width="0" height="0" x="0" y="0" style="fill: rgb(128, 139, 164); fill-opacity: 1;"/></g><g class="g-gtitle"><text class="gtitle" x="250" y="12" text-anchor="middle" dy="0.7em" style="font-family: 'Open Sans', verdana, arial, sans-serif; font-size: 17px; fill: rgb(42, 63, 95); opacity: 1; font-weight: normal; white-space: pre;">Ambient wind speed</text></g><g class="g-polartitle"/></g></svg>