<svg class="main-svg" xmlns="http://www.w3.org/2000/svg" xmlns:xlink="http://www.w3.org/1999/xlink" width="500" height="400" style="" viewBox="0 0 500 400"><rect x="0" y="0" width="500" height="400" style="fill: rgb(255, 255, 255); fill-opacity: 1;"/><defs id="defs-9c1233"><g class="clips"><clipPath id="clip9c1233polar-for-traces"><path d="M150,0A150,150 0,1,0 -150,-1.8369701987210297e-14A150,150 0,1,0 150,3.6739403974420595e-14Z" transform="translate(150,150)"/></clipPath></g><g class="gradients"/><g class="patterns"/></defs><g class="bglayer"/><g class="layer-below"><g class="imagelayer"/><g class="shapelayer"/></g><g class="cartesianlayer"/><g class="polarlayer"><g class="polar"><g class="polarsublayer draglayer"/><g class="polarsublayer plotbg"><path d="M150,0A150,150 0,1,0 -150,-1.8369701987210297e-14A150,150 0,1,0 150,3.6739403974420595e-14Z" transform="translate(204,200)" style="fill: rgb(229, 236, 246); fill-opacity: 1;"/></g><g class="polarsublayer backplot"><g class="maplayer"/></g><g class="polarsublayer angular-grid" style="fill: none;"><path class="angularaxisgrid" d="M204,200L204,50" style="stroke: rgb(255, 255, 255); stroke-opacity: 1; stroke-width: 1px;"/><path class="angularaxisgrid" d="M204,200L310.06601717798213,93.93398282201788" style="stroke: rgb(255, 255, 255); stroke-opacity: 1; stroke-width: 1px;"/><path class="angularaxisgrid" d="M204,200L354,200" style="stroke: rgb(255, 255, 255); stroke-opacity: 1; stroke-width: 1px;"/><path class="angularaxisgrid" d="M204,200L310.06601717798213,306.06601717798213" style="stroke: rgb(255, 255, 255); stroke-opacity: 1; stroke-width: 1px;"/><path class="angularaxisgrid" d="M204,200L204,350" style="stroke: rgb(255, 255, 255); stroke-opacity: 1; stroke-width: 1px;"/><path class="angularaxisgrid" d="M204,200L97.93398282201788,306.06601717798213" style="stroke: rgb(255, 255, 255); stroke-opacity: 1; stroke-width: 1px;"/><path class="angularaxisgrid" d="M204,200L54,200.00000000000003" style="stroke: rgb(255, 255, 255); stroke-opacity: 1; stroke-width: 1px;"/><path class="angularaxisgrid" d="M204,200L97.93398282201785,93.93398282201788" style="stroke: rgb(255, 255, 255); stroke-opacity: 1; stroke-width: 1px;"/></g><g class="polarsublayer radial-grid" transform="translate(204,200)" style="fill: none;"><path class="xgrid" d="M26.59,0A26.59,26.59 0,1,0 -26.59,-3.2563358389328123e-15A26.59,26.59 0,1,0 26.59,6.512671677865625e-15Z" style="stroke: rgb(255, 255, 255); stroke-opacity: 1; stroke-width: 1px;"/><path class="xgrid" d="M53.18,0A53.18,53.18 0,1,0 -53.18,-6.512671677865625e-15A53.18,53.18 0,1,0 53.18,1.302534335573125e-14Z" style="stroke: rgb(255, 255, 255); stroke-opacity: 1; stroke-width: 1px;"/><path class="xgrid" d="M79.77,0A79.77,79.77 0,1,0 -79.77,-9.769007516798436e-15A79.77,79.77 0,1,0 79.77,1.9538015033596872e-14Z" style="stroke: rgb(255, 255, 255); stroke-opacity: 1; stroke-width: 1px;"/><path class="xgrid" d="M106.36,0A106.36,106.36 0,1,0 -106.36,-1.302534335573125e-14A106.36,106.36 0,1,0 106.36,2.60506867114625e-14Z" style="stroke: rgb(255, 255, 255); stroke-opacity: 1; stroke-width: 1px;"/><path class="xgrid" d="M132.95,0A132.95,132.95 0,1,0 -132.95,-1.6281679194664058e-14A132.95,132.95 0,1,0 132.95,3.2563358389328116e-14Z" style="stroke: rgb(255, 255, 255); stroke-opacity: 1; stroke-width: 1px;"/></g><g class="polarsublayer frontplot" transform="translate(54,50)" clip-path="url(#clip9c1233polar-for-traces)"><g class="barlayer"><g class="trace bars" style="opacity: 1;"><g class="points"><g class="point" style="vector-effect: none; stroke-miterlimit: 2;"><path d="M0,0Z" style="opacity: 1; stroke-width: 0.5px; fill: rgb(48, 18, 59); fill-opacity: 1; stroke: rgb(229, 236, 246); stroke-opacity: 1;"/></g><g class="point" style="vector-effect: none; stroke-miterlimit: 2;"><path d="M0,0Z" style="opacity: 1; stroke-width: 0.5px; fill: rgb(48, 18, 59); fill-opacity: 1; stroke: rgb(229, 236, 246); stroke-opacity: 1;"/></g><g class="point" style="vector-effect: none; stroke-miterlimit: 2;"><path d="M150,150L158.7260462971512,143.91828445393924A10.636312705219957,10.636312705219957 0,0,0 156.08171554606076,141.2739537028488L150,150A0,0 0,0,1 150,150Z" style="opacity: 1; stroke-width: 0.5px; fill: rgb(48, 18, 59); fill-opacity: 1; stroke: rgb(229, 236, 246); stroke-opacity: 1;"/></g><g class="point" style="vector-effect: none; stroke-miterlimit: 2;"><path d="M150,150L173.8821444289008,144.76009323850082A24.450223831124372,24.450223831124372 0,0,0 170.5923998787936,136.81794732888903L150,150A0,0 0,0,1 150,150Z" style="opacity: 1; stroke-width: 0.5px; fill: rgb(48, 18, 59); fill-opacity: 1; stroke: rgb(229, 236, 246); stroke-opacity: 1;"/></g><g class="point" style="vector-effect: none; stroke-miterlimit: 2;"><path d="M150,150L188.29647118548814,156.8388820326995A38.90231371934199,38.90231371934199 0,0,0 188.29647118548814,143.16111796730047L150,150A0,0 0,0,1 150,150Z" style="opacity: 1; stroke-width: 0.5px; fill: rgb(48, 18, 59); fill-opacity: 1; stroke: rgb(229, 236, 246); stroke-opacity: 1;"/></g><g class="point" style="vector-effect: none; stroke-miterlimit: 2;"><path d="M150,150L179.1921623077841,168.68711871320625A34.66108402813553,34.66108402813553 0,0,0 183.8557642882786,157.42818756238628L150,150A0,0 0,0,1 150,150Z" style="opacity: 1; stroke-width: 0.5px; fill: rgb(48, 18, 59); fill-opacity: 1; stroke: rgb(229, 236, 246); stroke-opacity: 1;"/></g><g class="point" style="vector-effect: none; stroke-miterlimit: 2;"><path d="M150,150L174.74498012803468,185.504100871534A43.27649731936369,43.27649731936369 0,0,0 185.50410087153398,174.7449801280347L150,150A0,0 0,0,1 150,150Z" style="opacity: 1; stroke-width: 0.5px; fill: rgb(48, 18, 59); fill-opacity: 1; stroke: rgb(229, 236, 246); stroke-opacity: 1;"/></g><g class="point" style="vector-effect: none; stroke-miterlimit: 2;"><path d="M150,150L156.3454444007942,178.92090003562762A29.608835227248235,29.608835227248235 0,0,0 165.96325776776675,174.93707129865436L150,150A0,0 0,0,1 150,150Z" style="opacity: 1; stroke-width: 0.5px; fill: rgb(48, 18, 59); fill-opacity: 1; stroke: rgb(229, 236, 246); stroke-opacity: 1;"/></g><g class="point" style="vector-effect: none; stroke-miterlimit: 2;"><path d="M150,150L137.1987160310679,221.68481636463383A72.81885585811213,72.81885585811213 0,0,0 162.80128396893207,221.68481636463383L150,150A0,0 0,0,1 150,150Z" style="opacity: 1; stroke-width: 0.5px; fill: rgb(48, 18, 59); fill-opacity: 1; stroke: rgb(229, 236, 246); stroke-opacity: 1;"/></g><g class="point" style="vector-effect: none; stroke-miterlimit: 2;"><path d="M150,150L129.88643839307375,181.42048616633758A37.306866813559,37.306866813559 0,0,0 142.0047969696755,186.44007464246636L150,150A0,0 0,0,1 150,150Z" style="opacity: 1; stroke-width: 0.5px; fill: rgb(48, 18, 59); fill-opacity: 1; stroke: rgb(229, 236, 246); stroke-opacity: 1;"/></g><g class="point" style="vector-effect: none; stroke-miterlimit: 2;"><path d="M150,150L118.0190403209408,172.28948747631267A38.98208606463114,38.98208606463114 0,0,0 127.71051252368733,181.9809596790592L150,150A0,0 0,0,1 150,150Z" style="opacity: 1; stroke-width: 0.5px; fill: rgb(48, 18, 59); fill-opacity: 1; stroke: rgb(229, 236, 246); stroke-opacity: 1;"/></g><g class="point" style="vector-effect: none; stroke-miterlimit: 2;"><path d="M150,150L110.96262748023528,158.56506805016812A39.96594605349525,39.96594605349525 0,0,0 116.3399914719709,171.54717312883295L150,150A0,0 0,0,1 150,150Z" style="opacity: 1; stroke-width: 0.5px; fill: rgb(48, 18, 59); fill-opacity: 1; stroke: rgb(229, 236, 246); stroke-opacity: 1;"/></g><g class="point" style="vector-effect: none; stroke-miterlimit: 2;"><path d="M150,150L109.34762833146746,142.74040752099637A41.29548407801648,41.29548407801648 0,0,0 109.34762833146748,157.2595924790037L150,150A0,0 0,0,1 150,150Z" style="opacity: 1; stroke-width: 0.5px; fill: rgb(48, 18, 59); fill-opacity: 1; stroke: rgb(229, 236, 246); stroke-opacity: 1;"/></g><g class="point" style="vector-effect: none; stroke-miterlimit: 2;"><path d="M150,150L123.92077252979321,133.30560050515638A30.96496536307159,30.96496536307159 0,0,0 119.75447831706909,143.36392449835148L150,150A0,0 0,0,1 150,150Z" style="opacity: 1; stroke-width: 0.5px; fill: rgb(48, 18, 59); fill-opacity: 1; stroke: rgb(229, 236, 246); stroke-opacity: 1;"/></g><g class="point" style="vector-effect: none; stroke-miterlimit: 2;"><path d="M150,150L139.06811630595578,134.31493178087072A19.11877208763287,19.11877208763287 0,0,0 134.3149317808707,139.0681163059558L150,150A0,0 0,0,1 150,150Z" style="opacity: 1; stroke-width: 0.5px; fill: rgb(48, 18, 59); fill-opacity: 1; stroke: rgb(229, 236, 246); stroke-opacity: 1;"/></g><g class="point" style="vector-effect: none; stroke-miterlimit: 2;"><path d="M150,150L148.67506438733113,143.96128498063217A6.1823566269551895,6.1823566269551895 0,0,0 146.66685461650567,144.79311270379824L150,150A0,0 0,0,1 150,150Z" style="opacity: 1; stroke-width: 0.5px; fill: rgb(48, 18, 59); fill-opacity: 1; stroke: rgb(229, 236, 246); stroke-opacity: 1;"/></g></g></g><g class="trace bars" style="opacity: 1;"><g class="points"><g class="point" style="vector-effect: none; stroke-miterlimit: 2;"><path d="M0,0Z" style="opacity: 1; stroke-width: 0.5px; fill: rgb(65, 69, 171); fill-opacity: 1; stroke: rgb(229, 236, 246); stroke-opacity: 1;"/></g><g class="point" style="vector-effect: none; stroke-miterlimit: 2;"><path d="M0,0Z" style="opacity: 1; stroke-width: 0.5px; fill: rgb(65, 69, 171); fill-opacity: 1; stroke: rgb(229, 236, 246); stroke-opacity: 1;"/></g><g class="point" style="vector-effect: none; stroke-miterlimit: 2;"><path d="M0,0Z" style="opacity: 1; stroke-width: 0.5px; fill: rgb(65, 69, 171); fill-opacity: 1; stroke: rgb(229, 236, 246); stroke-opacity: 1;"/></g><g class="point" style="vector-effect: none; stroke-miterlimit: 2;"><path d="M0,0Z" style="opacity: 1; stroke-width: 0.5px; fill: rgb(65, 69, 171); fill-opacity: 1; stroke: rgb(229, 236, 246); stroke-opacity: 1;"/></g><g class="point" style="vector-effect: none; stroke-miterlimit: 2;"><path d="M0,0Z" style="opacity: 1; stroke-width: 0.5px; fill: rgb(65, 69, 171); fill-opacity: 1; stroke: rgb(229, 236, 246); stroke-opacity: 1;"/></g><g class="point" style="vector-effect: none; stroke-miterlimit: 2;"><path d="M0,0Z" style="opacity: 1; stroke-width: 0.5px; fill: rgb(65, 69, 171); fill-opacity: 1; stroke: rgb(229, 236, 246); stroke-opacity: 1;"/></g><g class="point" style="vector-effect: none; stroke-miterlimit: 2;"><path d="M0,0Z" style="opacity: 1; stroke-width: 0.5px; fill: rgb(65, 69, 171); fill-opacity: 1; stroke: rgb(229, 236, 246); stroke-opacity: 1;"/></g><g class="point" style="vector-effect: none; stroke-miterlimit: 2;"><path d="M0,0Z" style="opacity: 1; stroke-width: 0.5px; fill: rgb(65, 69, 171); fill-opacity: 1; stroke: rgb(229, 236, 246); stroke-opacity: 1;"/></g><g class="point" style="vector-effect: none; stroke-miterlimit: 2;"><path d="M0,0Z" style="opacity: 1; stroke-width: 0.5px; fill: rgb(65, 69, 171); fill-opacity: 1; stroke: rgb(229, 236, 246); stroke-opacity: 1;"/></g><g class="point" style="vector-effect: none; stroke-miterlimit: 2;"><path d="M0,0Z" style="opacity: 1; stroke-width: 0.5px; fill: rgb(65, 69, 171); fill-opacity: 1; stroke: rgb(229, 236, 246); stroke-opacity: 1;"/></g><g class="point" style="vector-effect: none; stroke-miterlimit: 2;"><path d="M0,0Z" style="opacity: 1; stroke-width: 0.5px; fill: rgb(65, 69, 171); fill-opacity: 1; stroke: rgb(229, 236, 246); stroke-opacity: 1;"/></g><g class="point" style="vector-effect: none; stroke-miterlimit: 2;"><path d="M0,0Z" style="opacity: 1; stroke-width: 0.5px; fill: rgb(65, 69, 171); fill-opacity: 1; stroke: rgb(229, 236, 246); stroke-opacity: 1;"/></g><g class="point" style="vector-effect: none; stroke-miterlimit: 2;"><path d="M0,0Z" style="opacity: 1; stroke-width: 0.5px; fill: rgb(65, 69, 171); fill-opacity: 1; stroke: rgb(229, 236, 246); stroke-opacity: 1;"/></g><g class="point" style="vector-effect: none; stroke-miterlimit: 2;"><path d="M0,0Z" style="opacity: 1; stroke-width: 0.5px; fill: rgb(65, 69, 171); fill-opacity: 1; stroke: rgb(229, 236, 246); stroke-opacity: 1;"/></g><g class="point" style="vector-effect: none; stroke-miterlimit: 2;"><path d="M0,0Z" style="opacity: 1; stroke-width: 0.5px; fill: rgb(65, 69, 171); fill-opacity: 1; stroke: rgb(229, 236, 246); stroke-opacity: 1;"/></g><g class="point" style="vector-effect: none; stroke-miterlimit: 2;"><path d="M0,0Z" style="opacity: 1; stroke-width: 0.5px; fill: rgb(65, 69, 171); fill-opacity: 1; stroke: rgb(229, 236, 246); stroke-opacity: 1;"/></g></g></g><g class="trace bars" style="opacity: 1;"><g class="points"><g class="point" style="vector-effect: none; stroke-miterlimit: 2;"><path d="M0,0Z" style="opacity: 1; stroke-width: 0.5px; fill: rgb(70, 117, 237); fill-opacity: 1; stroke: rgb(229, 236, 246); stroke-opacity: 1;"/></g><g class="point" style="vector-effect: none; stroke-miterlimit: 2;"><path d="M0,0Z" style="opacity: 1; stroke-width: 0.5px; fill: rgb(70, 117, 237); fill-opacity: 1; stroke: rgb(229, 236, 246); stroke-opacity: 1;"/></g><g class="point" style="vector-effect: none; stroke-miterlimit: 2;"><path d="M158.7260462971512,143.91828445393924L162.8054729410694,141.07508243615584A15.608788894910285,15.608788894910285 0,0,0 158.92491756384416,137.1945270589306L156.08171554606076,141.2739537028488A10.636312705219957,10.636312705219957 0,0,1 158.7260462971512,143.91828445393924Z" style="opacity: 1; stroke-width: 0.5px; fill: rgb(70, 117, 237); fill-opacity: 1; stroke: rgb(229, 236, 246); stroke-opacity: 1;"/></g><g class="point" style="vector-effect: none; stroke-miterlimit: 2;"><path d="M173.8821444289008,144.76009323850082L185.92061527479044,142.11876992805506A36.775051178298,36.775051178298 0,0,0 180.972581873161,130.17316058276623L170.5923998787936,136.81794732888903A24.450223831124372,24.450223831124372 0,0,1 173.8821444289008,144.76009323850082Z" style="opacity: 1; stroke-width: 0.5px; fill: rgb(70, 117, 237); fill-opacity: 1; stroke: rgb(229, 236, 246); stroke-opacity: 1;"/></g><g class="point" style="vector-effect: none; stroke-miterlimit: 2;"><path d="M188.29647118548814,156.8388820326995L208.50486173383547,160.44764270314053A59.430396974508696,59.430396974508696 0,0,0 208.50486173383547,139.55235729685947L188.29647118548814,143.16111796730047A38.90231371934199,38.90231371934199 0,0,1 188.29647118548814,156.8388820326995Z" style="opacity: 1; stroke-width: 0.5px; fill: rgb(70, 117, 237); fill-opacity: 1; stroke: rgb(229, 236, 246); stroke-opacity: 1;"/></g><g class="point" style="vector-effect: none; stroke-miterlimit: 2;"><path d="M179.1921623077841,168.68711871320625L194.96959081097722,178.78690770176212A53.39428951429636,53.39428951429636 0,0,0 202.1537202549335,161.44288496431898L183.8557642882786,157.42818756238628A34.66108402813553,34.66108402813553 0,0,1 179.1921623077841,168.68711871320625Z" style="opacity: 1; stroke-width: 0.5px; fill: rgb(70, 117, 237); fill-opacity: 1; stroke: rgb(229, 236, 246); stroke-opacity: 1;"/></g><g class="point" style="vector-effect: none; stroke-miterlimit: 2;"><path d="M174.74498012803468,185.504100871534L184.08801533158476,198.90948905923022A59.61653218094222,59.61653218094222 0,0,0 198.90948905923022,184.08801533158478L185.50410087153398,174.7449801280347A43.27649731936369,43.27649731936369 0,0,1 174.74498012803468,185.504100871534Z" style="opacity: 1; stroke-width: 0.5px; fill: rgb(70, 117, 237); fill-opacity: 1; stroke: rgb(229, 236, 246); stroke-opacity: 1;"/></g><g class="point" style="vector-effect: none; stroke-miterlimit: 2;"><path d="M156.3454444007942,178.92090003562762L158.27728604532734,187.7257363177346A38.623110244922145,38.623110244922145 0,0,0 170.82319888305398,182.5290490679975L165.96325776776675,174.93707129865436A29.608835227248235,29.608835227248235 0,0,1 156.3454444007942,178.92090003562762Z" style="opacity: 1; stroke-width: 0.5px; fill: rgb(70, 117, 237); fill-opacity: 1; stroke: rgb(229, 236, 246); stroke-opacity: 1;"/></g><g class="point" style="vector-effect: none; stroke-miterlimit: 2;"><path d="M0,0Z" style="opacity: 1; stroke-width: 0.5px; fill: rgb(70, 117, 237); fill-opacity: 1; stroke: rgb(229, 236, 246); stroke-opacity: 1;"/></g><g class="point" style="vector-effect: none; stroke-miterlimit: 2;"><path d="M129.88643839307375,181.42048616633758L120.5106232202135,196.06695588135557A54.69723728887018,54.69723728887018 0,0,0 138.27788140162411,203.42639518628016L142.0047969696755,186.44007464246636A37.306866813559,37.306866813559 0,0,1 129.88643839307375,181.42048616633758Z" style="opacity: 1; stroke-width: 0.5px; fill: rgb(70, 117, 237); fill-opacity: 1; stroke: rgb(229, 236, 246); stroke-opacity: 1;"/></g><g class="point" style="vector-effect: none; stroke-miterlimit: 2;"><path d="M118.0190403209408,172.28948747631267L101.0468802729817,184.11842421340083A59.66971427628395,59.66971427628395 0,0,0 115.88157578659916,198.9531197270183L127.71051252368733,181.9809596790592A38.98208606463114,38.98208606463114 0,0,1 118.0190403209408,172.28948747631267Z" style="opacity: 1; stroke-width: 0.5px; fill: rgb(70, 117, 237); fill-opacity: 1; stroke: rgb(229, 236, 246); stroke-opacity: 1;"/></g><g class="point" style="vector-effect: none; stroke-miterlimit: 2;"><path d="M110.96262748023528,158.56506805016812L91.54783413280684,162.82480725563036A59.8425548895594,59.8425548895594 0,0,0 99.59956896240027,182.26341468186658L116.3399914719709,171.54717312883295A39.96594605349525,39.96594605349525 0,0,1 110.96262748023528,158.56506805016812Z" style="opacity: 1; stroke-width: 0.5px; fill: rgb(70, 117, 237); fill-opacity: 1; stroke: rgb(229, 236, 246); stroke-opacity: 1;"/></g><g class="point" style="vector-effect: none; stroke-miterlimit: 2;"><path d="M109.34762833146746,142.74040752099637L87.85658059169592,138.90259333859973A63.12651590548044,63.12651590548044 0,0,0 87.85658059169594,161.09740666140033L109.34762833146748,157.2595924790037A41.29548407801648,41.29548407801648 0,0,1 109.34762833146746,142.74040752099637Z" style="opacity: 1; stroke-width: 0.5px; fill: rgb(70, 117, 237); fill-opacity: 1; stroke: rgb(229, 236, 246); stroke-opacity: 1;"/></g><g class="point" style="vector-effect: none; stroke-miterlimit: 2;"><path d="M123.92077252979321,133.30560050515638L110.22609876591905,124.53906955530934A47.2252284111766,47.2252284111766 0,0,0 103.87200815037758,139.87920129589716L119.75447831706909,143.36392449835148A30.96496536307159,30.96496536307159 0,0,1 123.92077252979321,133.30560050515638Z" style="opacity: 1; stroke-width: 0.5px; fill: rgb(70, 117, 237); fill-opacity: 1; stroke: rgb(229, 236, 246); stroke-opacity: 1;"/></g><g class="point" style="vector-effect: none; stroke-miterlimit: 2;"><path d="M139.06811630595578,134.31493178087072L133.25247573901373,125.97064990014428A29.289746244953367,29.289746244953367 0,0,0 125.97064990014425,133.25247573901376L134.3149317808707,139.0681163059558A19.11877208763287,19.11877208763287 0,0,1 139.06811630595578,134.31493178087072Z" style="opacity: 1; stroke-width: 0.5px; fill: rgb(70, 117, 237); fill-opacity: 1; stroke: rgb(229, 236, 246); stroke-opacity: 1;"/></g><g class="point" style="vector-effect: none; stroke-miterlimit: 2;"><path d="M148.67506438733113,143.96128498063217L147.78037660706528,139.88352868464645A10.357109629661839,10.357109629661839 0,0,0 144.41608528405874,141.2770637784099L146.66685461650567,144.79311270379824A6.1823566269551895,6.1823566269551895 0,0,1 148.67506438733113,143.96128498063217Z" style="opacity: 1; stroke-width: 0.5px; fill: rgb(70, 117, 237); fill-opacity: 1; stroke: rgb(229, 236, 246); stroke-opacity: 1;"/></g></g></g><g class="trace bars" style="opacity: 1;"><g class="points"><g class="point" style="vector-effect: none; stroke-miterlimit: 2;"><path d="M0,0Z" style="opacity: 1; stroke-width: 0.5px; fill: rgb(57, 162, 252); fill-opacity: 1; stroke: rgb(229, 236, 246); stroke-opacity: 1;"/></g><g class="point" style="vector-effect: none; stroke-miterlimit: 2;"><path d="M0,0Z" style="opacity: 1; stroke-width: 0.5px; fill: rgb(57, 162, 252); fill-opacity: 1; stroke: rgb(229, 236, 246); stroke-opacity: 1;"/></g><g class="point" style="vector-effect: none; stroke-miterlimit: 2;"><path d="M162.8054729410694,141.07508243615584L168.66283146349437,136.9927309138733A22.748413731812224,22.748413731812224 0,0,0 163.0072690861267,131.33716853650563L158.92491756384416,137.1945270589306A15.608788894910285,15.608788894910285 0,0,1 162.8054729410694,141.07508243615584Z" style="opacity: 1; stroke-width: 0.5px; fill: rgb(57, 162, 252); fill-opacity: 1; stroke: rgb(229, 236, 246); stroke-opacity: 1;"/></g><g class="point" style="vector-effect: none; stroke-miterlimit: 2;"><path d="M185.92061527479044,142.11876992805506L207.30935475702785,137.42593336278858A58.672559978783134,58.672559978783134 0,0,0 199.41504116038365,118.36737441214379L180.972581873161,130.17316058276623A36.775051178298,36.775051178298 0,0,1 185.92061527479044,142.11876992805506Z" style="opacity: 1; stroke-width: 0.5px; fill: rgb(57, 162, 252); fill-opacity: 1; stroke: rgb(229, 236, 246); stroke-opacity: 1;"/></g><g class="point" style="vector-effect: none; stroke-miterlimit: 2;"><path d="M208.50486173383547,160.44764270314053L245.80661885850478,167.1088913427982A97.32226045503916,97.32226045503916 0,0,0 245.80661885850478,132.89110865720178L208.50486173383547,139.55235729685947A59.430396974508696,59.430396974508696 0,0,1 208.50486173383547,160.44764270314053Z" style="opacity: 1; stroke-width: 0.5px; fill: rgb(57, 162, 252); fill-opacity: 1; stroke: rgb(229, 236, 246); stroke-opacity: 1;"/></g><g class="point" style="vector-effect: none; stroke-miterlimit: 2;"><path d="M194.96959081097722,178.78690770176212L224.37450820670293,197.61021980630696A88.30798662065502,88.30798662065502 0,0,0 236.2562283791959,168.92520982155241L202.1537202549335,161.44288496431898A53.39428951429636,53.39428951429636 0,0,1 194.96959081097722,178.78690770176212Z" style="opacity: 1; stroke-width: 0.5px; fill: rgb(57, 162, 252); fill-opacity: 1; stroke: rgb(229, 236, 246); stroke-opacity: 1;"/></g><g class="point" style="vector-effect: none; stroke-miterlimit: 2;"><path d="M184.08801533158476,198.90948905923022L197.87070357175324,218.68489203098085A83.72107652056418,83.72107652056418 0,0,0 218.68489203098085,197.87070357175327L198.90948905923022,184.08801533158478A59.61653218094222,59.61653218094222 0,0,1 184.08801533158476,198.90948905923022Z" style="opacity: 1; stroke-width: 0.5px; fill: rgb(57, 162, 252); fill-opacity: 1; stroke: rgb(229, 236, 246); stroke-opacity: 1;"/></g><g class="point" style="vector-effect: none; stroke-miterlimit: 2;"><path d="M158.27728604532734,187.7257363177346L160.78184180286834,199.14085590942665A50.30975881648718,50.30975881648718 0,0,0 177.1239189943778,192.3717458993554L170.82319888305398,182.5290490679975A38.623110244922145,38.623110244922145 0,0,1 158.27728604532734,187.7257363177346Z" style="opacity: 1; stroke-width: 0.5px; fill: rgb(57, 162, 252); fill-opacity: 1; stroke: rgb(229, 236, 246); stroke-opacity: 1;"/></g><g class="point" style="vector-effect: none; stroke-miterlimit: 2;"><path d="M137.1987160310679,221.68481636463383L136.0838333296637,227.92795274940812A79.16075741496266,79.16075741496266 0,0,0 163.91616667033628,227.92795274940812L162.80128396893207,221.68481636463383A72.81885585811213,72.81885585811213 0,0,1 137.1987160310679,221.68481636463383Z" style="opacity: 1; stroke-width: 0.5px; fill: rgb(57, 162, 252); fill-opacity: 1; stroke: rgb(229, 236, 246); stroke-opacity: 1;"/></g><g class="point" style="vector-effect: none; stroke-miterlimit: 2;"><path d="M120.5106232202135,196.06695588135557L100.26803662792565,227.68899897962262A92.24342113829663,92.24342113829663 0,0,0 130.23139054002883,240.1002265442007L138.27788140162411,203.42639518628016A54.69723728887018,54.69723728887018 0,0,1 120.5106232202135,196.06695588135557Z" style="opacity: 1; stroke-width: 0.5px; fill: rgb(57, 162, 252); fill-opacity: 1; stroke: rgb(229, 236, 246); stroke-opacity: 1;"/></g><g class="point" style="vector-effect: none; stroke-miterlimit: 2;"><path d="M101.0468802729817,184.11842421340083L43.073210731661234,224.52382149243476A130.3347161468195,130.3347161468195 0,0,0 75.47617850756522,256.9267892683388L115.88157578659916,198.9531197270183A59.66971427628395,59.66971427628395 0,0,1 101.0468802729817,184.11842421340083Z" style="opacity: 1; stroke-width: 0.5px; fill: rgb(57, 162, 252); fill-opacity: 1; stroke: rgb(229, 236, 246); stroke-opacity: 1;"/></g><g class="point" style="vector-effect: none; stroke-miterlimit: 2;"><path d="M91.54783413280684,162.82480725563036L10.810861911775703,180.53905431176992A142.5,142.5 0,0,0 29.98404419542922,226.82721101481764L99.59956896240027,182.26341468186658A59.8425548895594,59.8425548895594 0,0,1 91.54783413280684,162.82480725563036Z" style="opacity: 1; stroke-width: 0.5px; fill: rgb(57, 162, 252); fill-opacity: 1; stroke: rgb(229, 236, 246); stroke-opacity: 1;"/></g><g class="point" style="vector-effect: none; stroke-miterlimit: 2;"><path d="M0,0Z" style="opacity: 1; stroke-width: 0.5px; fill: rgb(57, 162, 252); fill-opacity: 1; stroke: rgb(229, 236, 246); stroke-opacity: 1;"/></g><g class="point" style="vector-effect: none; stroke-miterlimit: 2;"><path d="M110.22609876591905,124.53906955530934L88.1444171123133,110.40366560347096A73.44373922954378,73.44373922954378 0,0,0 78.26266132395435,134.26033444778602L103.87200815037758,139.87920129589716A47.2252284111766,47.2252284111766 0,0,1 110.22609876591905,124.53906955530934Z" style="opacity: 1; stroke-width: 0.5px; fill: rgb(57, 162, 252); fill-opacity: 1; stroke: rgb(229, 236, 246); stroke-opacity: 1;"/></g><g class="point" style="vector-effect: none; stroke-miterlimit: 2;"><path d="M133.25247573901373,125.97064990014428L114.96931845469,99.73797332840905A61.265161182066954,61.265161182066954 0,0,0 99.737973328409,114.96931845469007L125.97064990014425,133.25247573901376A29.289746244953367,29.289746244953367 0,0,1 133.25247573901373,125.97064990014428Z" style="opacity: 1; stroke-width: 0.5px; fill: rgb(57, 162, 252); fill-opacity: 1; stroke: rgb(229, 236, 246); stroke-opacity: 1;"/></g><g class="point" style="vector-effect: none; stroke-miterlimit: 2;"><path d="M147.78037660706528,139.88352868464645L145.31001259172263,128.62424624094652A21.88421418871351,21.88421418871351 0,0,0 138.20138146407186,131.568737663927L144.41608528405874,141.2770637784099A10.357109629661839,10.357109629661839 0,0,1 147.78037660706528,139.88352868464645Z" style="opacity: 1; stroke-width: 0.5px; fill: rgb(57, 162, 252); fill-opacity: 1; stroke: rgb(229, 236, 246); stroke-opacity: 1;"/></g></g></g><g class="trace bars" style="opacity: 1;"><g class="points"><g class="point" style="vector-effect: none; stroke-miterlimit: 2;"><path d="M0,0Z" style="opacity: 1; stroke-width: 0.5px; fill: rgb(27, 207, 212); fill-opacity: 1; stroke: rgb(229, 236, 246); stroke-opacity: 1;"/></g><g class="point" style="vector-effect: none; stroke-miterlimit: 2;"><path d="M0,0Z" style="opacity: 1; stroke-width: 0.5px; fill: rgb(27, 207, 212); fill-opacity: 1; stroke: rgb(229, 236, 246); stroke-opacity: 1;"/></g><g class="point" style="vector-effect: none; stroke-miterlimit: 2;"><path d="M0,0Z" style="opacity: 1; stroke-width: 0.5px; fill: rgb(27, 207, 212); fill-opacity: 1; stroke: rgb(229, 236, 246); stroke-opacity: 1;"/></g><g class="point" style="vector-effect: none; stroke-miterlimit: 2;"><path d="M0,0Z" style="opacity: 1; stroke-width: 0.5px; fill: rgb(27, 207, 212); fill-opacity: 1; stroke: rgb(229, 236, 246); stroke-opacity: 1;"/></g><g class="point" style="vector-effect: none; stroke-miterlimit: 2;"><path d="M0,0Z" style="opacity: 1; stroke-width: 0.5px; fill: rgb(27, 207, 212); fill-opacity: 1; stroke: rgb(229, 236, 246); stroke-opacity: 1;"/></g><g class="point" style="vector-effect: none; stroke-miterlimit: 2;"><path d="M0,0Z" style="opacity: 1; stroke-width: 0.5px; fill: rgb(27, 207, 212); fill-opacity: 1; stroke: rgb(229, 236, 246); stroke-opacity: 1;"/></g><g class="point" style="vector-effect: none; stroke-miterlimit: 2;"><path d="M0,0Z" style="opacity: 1; stroke-width: 0.5px; fill: rgb(27, 207, 212); fill-opacity: 1; stroke: rgb(229, 236, 246); stroke-opacity: 1;"/></g><g class="point" style="vector-effect: none; stroke-miterlimit: 2;"><path d="M0,0Z" style="opacity: 1; stroke-width: 0.5px; fill: rgb(27, 207, 212); fill-opacity: 1; stroke: rgb(229, 236, 246); stroke-opacity: 1;"/></g><g class="point" style="vector-effect: none; stroke-miterlimit: 2;"><path d="M0,0Z" style="opacity: 1; stroke-width: 0.5px; fill: rgb(27, 207, 212); fill-opacity: 1; stroke: rgb(229, 236, 246); stroke-opacity: 1;"/></g><g class="point" style="vector-effect: none; stroke-miterlimit: 2;"><path d="M0,0Z" style="opacity: 1; stroke-width: 0.5px; fill: rgb(27, 207, 212); fill-opacity: 1; stroke: rgb(229, 236, 246); stroke-opacity: 1;"/></g><g class="point" style="vector-effect: none; stroke-miterlimit: 2;"><path d="M0,0Z" style="opacity: 1; stroke-width: 0.5px; fill: rgb(27, 207, 212); fill-opacity: 1; stroke: rgb(229, 236, 246); stroke-opacity: 1;"/></g><g class="point" style="vector-effect: none; stroke-miterlimit: 2;"><path d="M0,0Z" style="opacity: 1; stroke-width: 0.5px; fill: rgb(27, 207, 212); fill-opacity: 1; stroke: rgb(229, 236, 246); stroke-opacity: 1;"/></g><g class="point" style="vector-effect: none; stroke-miterlimit: 2;"><path d="M0,0Z" style="opacity: 1; stroke-width: 0.5px; fill: rgb(27, 207, 212); fill-opacity: 1; stroke: rgb(229, 236, 246); stroke-opacity: 1;"/></g><g class="point" style="vector-effect: none; stroke-miterlimit: 2;"><path d="M0,0Z" style="opacity: 1; stroke-width: 0.5px; fill: rgb(27, 207, 212); fill-opacity: 1; stroke: rgb(229, 236, 246); stroke-opacity: 1;"/></g><g class="point" style="vector-effect: none; stroke-miterlimit: 2;"><path d="M0,0Z" style="opacity: 1; stroke-width: 0.5px; fill: rgb(27, 207, 212); fill-opacity: 1; stroke: rgb(229, 236, 246); stroke-opacity: 1;"/></g><g class="point" style="vector-effect: none; stroke-miterlimit: 2;"><path d="M0,0Z" style="opacity: 1; stroke-width: 0.5px; fill: rgb(27, 207, 212); fill-opacity: 1; stroke: rgb(229, 236, 246); stroke-opacity: 1;"/></g></g></g></g><g class="scatterlayer"/></g><g class="polarsublayer angular-line"><path d="M150,0A150,150 0,1,0 -150,-1.8369701987210297e-14A150,150 0,1,0 150,3.6739403974420595e-14Z" transform="translate(204,200)" stroke-width="1" style="fill: none; stroke: rgb(255, 255, 255); stroke-opacity: 1;"/></g><g class="polarsublayer radial-line"><line x1="0" y1="0" x2="150" y2="0" transform="translate(204,200)" stroke-width="1" style="fill: none; stroke: rgb(255, 255, 255); stroke-opacity: 1;"/></g><g class="polarsublayer angular-axis"><g class="angularaxistick"><text text-anchor="middle" x="1.7757378587636624e-16" y="-5.300000000000001" transform="translate(204,50)" style="font-family: 'Open Sans', verdana, arial, sans-serif; font-size: 12px; fill: rgb(42, 63, 95); fill-opacity: 1; white-space: pre; opacity: 1;">0°</text></g><g class="angularaxistick"><text text-anchor="start" x="2.050609665440988" y="-0.7778174593052025" transform="translate(310.06601717798213,93.93398282201788)" style="font-family: 'Open Sans', verdana, arial, sans-serif; font-size: 12px; fill: rgb(42, 63, 95); fill-opacity: 1; white-space: pre; opacity: 1;">45°</text></g><g class="angularaxistick"><text text-anchor="start" x="2.9000000000000004" y="4.199999999999999" transform="translate(354,200)" style="font-family: 'Open Sans', verdana, arial, sans-serif; font-size: 12px; fill: rgb(42, 63, 95); fill-opacity: 1; white-space: pre; opacity: 1;">90°</text></g><g class="angularaxistick"><text text-anchor="start" x="2.050609665440988" y="13.505739520663056" transform="translate(310.06601717798213,306.06601717798213)" style="font-family: 'Open Sans', verdana, arial, sans-serif; font-size: 12px; fill: rgb(42, 63, 95); fill-opacity: 1; white-space: pre; opacity: 1;">135°</text></g><g class="angularaxistick"><text text-anchor="middle" x="1.7757378587636624e-16" y="14.9" transform="translate(204,350)" style="font-family: 'Open Sans', verdana, arial, sans-serif; font-size: 12px; fill: rgb(42, 63, 95); fill-opacity: 1; white-space: pre; opacity: 1;">180°</text></g><g class="angularaxistick"><text text-anchor="end" x="-2.0506096654409878" y="13.505739520663058" transform="translate(97.93398282201788,306.06601717798213)" style="font-family: 'Open Sans', verdana, arial, sans-serif; font-size: 12px; fill: rgb(42, 63, 95); fill-opacity: 1; white-space: pre; opacity: 1;">225°</text></g><g class="angularaxistick"><text text-anchor="end" x="-2.9000000000000004" y="4.200000000000001" transform="translate(54,200.00000000000003)" style="font-family: 'Open Sans', verdana, arial, sans-serif; font-size: 12px; fill: rgb(42, 63, 95); fill-opacity: 1; white-space: pre; opacity: 1;">270°</text></g><g class="angularaxistick"><text text-anchor="end" x="-2.0506096654409887" y="-0.7778174593052021" transform="translate(97.93398282201785,93.93398282201788)" style="font-family: 'Open Sans', verdana, arial, sans-serif; font-size: 12px; fill: rgb(42, 63, 95); fill-opacity: 1; white-space: pre; opacity: 1;">315°</text></g></g><g class="polarsublayer radial-axis" transform="translate(204,200)"><g class="xtick"><text text-anchor="middle" x="0" y="14.9" transform="" style="font-family: 'Open Sans', verdana, arial, sans-serif; font-size: 12px; fill: rgb(42, 63, 95); fill-opacity: 1; white-space: pre; opacity: 1;">0</text></g><g class="xtick"><text text-anchor="middle" x="0" y="14.9" transform="translate(26.59,0)" style="font-family: 'Open Sans', verdana, arial, sans-serif; font-size: 12px; fill: rgb(42, 63, 95); fill-opacity: 1; white-space: pre; opacity: 1;">2</text></g><g class="xtick"><text text-anchor="middle" x="0" y="14.9" transform="translate(53.18,0)" style="font-family: 'Open Sans', verdana, arial, sans-serif; font-size: 12px; fill: rgb(42, 63, 95); fill-opacity: 1; white-space: pre; opacity: 1;">4</text></g><g class="xtick"><text text-anchor="middle" x="0" y="14.9" transform="translate(79.77,0)" style="font-family: 'Open Sans', verdana, arial, sans-serif; font-size: 12px; fill: rgb(42, 63, 95); fill-opacity: 1; white-space: pre; opacity: 1;">6</text></g><g class="xtick"><text text-anchor="middle" x="0" y="14.9" transform="translate(106.36,0)" style="font-family: 'Open Sans', verdana, arial, sans-serif; font-size: 12px; fill: rgb(42, 63, 95); fill-opacity: 1; white-space: pre; opacity: 1;">8</text></g><g class="xtick"><text text-anchor="middle" x="0" y="14.9" transform="translate(132.95,0)" style="font-family: 'Open Sans', verdana, arial, sans-serif; font-size: 12px; fill: rgb(42, 63, 95); fill-opacity: 1; white-space: pre; opacity: 1;">10</text></g></g></g></g><g class="smithlayer"/><g class="ternarylayer"/><g class="geolayer"/><g class="funnelarealayer"/><g class="pielayer"/><g class="iciclelayer"/><g class="treemaplayer"/><g class="sunburstlayer"/><g class="glimages"/><defs id="topdefs-9c1233"><g class="clips"/><clipPath id="legend9c1233"><rect width="124" height="124" x="0" y="0"/></clipPath></defs><g class="layer-above"><g class="imagelayer"/><g class="shapelayer"/></g><g class="infolayer"><g class="legend" pointer-events="all" transform="translate(364.16,50)"><rect class="bg" shape-rendering="crispEdges" style="stroke: rgb(68, 68, 68); stroke-opacity: 1; fill: rgb(255, 255, 255); fill-opacity: 1; stroke-width: 0px;" width="124" height="124" x="0" y="0"/><g class="scrollbox" transform="" clip-path="url(#legend9c1233)"><text class="legendtitletext" text-anchor="start" x="2" y="18.2" style="font-family: 'Open Sans', verdana, arial, sans-serif; font-size: 14px; fill: rgb(42, 63, 95); fill-opacity: 1; white-space: pre;">P [kW]</text><g class="groups" transform=""><g class="traces" transform="translate(0,32.7)" style="opacity: 1;"><text class="legendtext" text-anchor="start" x="40" y="4.680000000000001" style="font-family: 'Open Sans', verdana, arial, sans-serif; font-size: 12px; fill: rgb(42, 63, 95); fill-opacity: 1; white-space: pre;">[100, 1000)</text><g class="layers" style="opacity: 1;"><g class="legendfill"/><g class="legendlines"/><g class="legendsymbols"><g class="legendpoints"><path class="legendundefined" d="M6,6H-6V-6H6Z" transform="translate(20,0)" style="stroke-width: 0.5px; fill: rgb(48, 18, 59); fill-opacity: 1; stroke: rgb(229, 236, 246); stroke-opacity: 1;"/></g></g></g><rect class="legendtoggle" x="0" y="-9.5" width="118.078125" height="19" style="fill: rgb(0, 0, 0); fill-opacity: 0;"/></g></g><g class="groups" transform=""><g class="traces" transform="translate(0,51.7)" style="opacity: 1;"><text class="legendtext" text-anchor="start" x="40" y="4.680000000000001" style="font-family: 'Open Sans', verdana, arial, sans-serif; font-size: 12px; fill: rgb(42, 63, 95); fill-opacity: 1; white-space: pre;">[1000, 2000)</text><g class="layers" style="opacity: 1;"><g class="legendfill"/><g class="legendlines"/><g class="legendsymbols"><g class="legendpoints"><path class="legendundefined" d="M6,6H-6V-6H6Z" transform="translate(20,0)" style="stroke-width: 0.5px; fill: rgb(65, 69, 171); fill-opacity: 1; stroke: rgb(229, 236, 246); stroke-opacity: 1;"/></g></g></g><rect class="legendtoggle" x="0" y="-9.5" width="118.078125" height="19" style="fill: rgb(0, 0, 0); fill-opacity: 0;"/></g></g><g class="groups" transform=""><g class="traces" transform="translate(0,70.7)" style="opacity: 1;"><text class="legendtext" text-anchor="start" x="40" y="4.680000000000001" style="font-family: 'Open Sans', verdana, arial, sans-serif; font-size: 12px; fill: rgb(42, 63, 95); fill-opacity: 1; white-space: pre;">[2000, 4000)</text><g class="layers" style="opacity: 1;"><g class="legendfill"/><g class="legendlines"/><g class="legendsymbols"><g class="legendpoints"><path class="legendundefined" d="M6,6H-6V-6H6Z" transform="translate(20,0)" style="stroke-width: 0.5px; fill: rgb(70, 117, 237); fill-opacity: 1; stroke: rgb(229, 236, 246); stroke-opacity: 1;"/></g></g></g><rect class="legendtoggle" x="0" y="-9.5" width="118.078125" height="19" style="fill: rgb(0, 0, 0); fill-opacity: 0;"/></g></g><g class="groups" transform=""><g class="traces" transform="translate(0,89.7)" style="opacity: 1;"><text class="legendtext" text-anchor="start" x="40" y="4.680000000000001" style="font-family: 'Open Sans', verdana, arial, sans-serif; font-size: 12px; fill: rgb(42, 63, 95); fill-opacity: 1; white-space: pre;">[4000, 5001)</text><g class="layers" style="opacity: 1;"><g class="legendfill"/><g class="legendlines"/><g class="legendsymbols"><g class="legendpoints"><path class="legendundefined" d="M6,6H-6V-6H6Z" transform="translate(20,0)" style="stroke-width: 0.5px; fill: rgb(57, 162, 252); fill-opacity: 1; stroke: rgb(229, 236, 246); stroke-opacity: 1;"/></g></g></g><rect class="legendtoggle" x="0" y="-9.5" width="118.078125" height="19" style="fill: rgb(0, 0, 0); fill-opacity: 0;"/></g></g><g class="groups" transform=""><g class="traces" transform="translate(0,108.7)" style="opacity: 1;"><text class="legendtext" text-anchor="start" x="40" y="4.680000000000001" style="font-family: 'Open Sans', verdana, arial, sans-serif; font-size: 12px; fill: rgb(42, 63, 95); fill-opacity: 1; white-space: pre;">[5001, 7000)</text><g class="layers" style="opacity: 1;"><g class="legendfill"/><g class="legendlines"/><g class="legendsymbols"><g class="legendpoints"><path class="legendundefined" d="M6,6H-6V-6H6Z" transform="translate(20,0)" style="stroke-width: 0.5px; fill: rgb(27, 207, 212); fill-opacity: 1; stroke: rgb(229, 236, 246); stroke-opacity: 1;"/></g></g></g><rect class="legendtoggle" x="0" y="-9.5" width="118.078125" height="19" style="fill: rgb(0, 0, 0); fill-opacity: 0;"/></g></g></g><rect class="scrollbar" rx="20" ry="3" width="0" height="0" style="fill: rgb(128, 139, 164); fill-opacity: 1;" x="0" y="0"/></g><g class="g-gtitle"><text class="gtitle" x="250" y="12" text-anchor="middle" dy="0.7em" style="font-family: 'Open Sans', verdana, arial, sans-serif; font-size: 17px; fill: rgb(42, 63, 95); opacity: 1; font-weight: normal; white-space: pre;">Power turbine 0</text></g><g class="g-polartitle"/></g></svg>