<svg class="main-svg" xmlns="http://www.w3.org/2000/svg" xmlns:xlink="http://www.w3.org/1999/xlink" width="500" height="400" style="" viewBox="0 0 500 400"><rect x="0" y="0" width="500" height="400" style="fill: rgb(255, 255, 255); fill-opacity: 1;"/><defs id="defs-7f19ed"><g class="clips"><clipPath id="clip7f19edpolar-for-traces"><path d="M150,0A150,150 0,1,0 -150,-1.8369701987210297e-14A150,150 0,1,0 150,3.6739403974420595e-14Z" transform="translate(150,150)"/></clipPath></g><g class="gradients"/><g class="patterns"/></defs><g class="bglayer"/><g class="layer-below"><g class="imagelayer"/><g class="shapelayer"/></g><g class="cartesianlayer"/><g class="polarlayer"><g class="polar"><g class="polarsublayer draglayer"/><g class="polarsublayer plotbg"><path d="M150,0A150,150 0,1,0 -150,-1.8369701987210297e-14A150,150 0,1,0 150,3.6739403974420595e-14Z" transform="translate(212.5,200)" style="fill: rgb(229, 236, 246); fill-opacity: 1;"/></g><g class="polarsublayer backplot"><g class="maplayer"/></g><g class="polarsublayer angular-grid" style="fill: none;"><path class="angularaxisgrid" d="M212.5,200L212.5,50" style="stroke: rgb(255, 255, 255); stroke-opacity: 1; stroke-width: 1px;"/><path class="angularaxisgrid" d="M212.5,200L318.56601717798213,93.93398282201788" style="stroke: rgb(255, 255, 255); stroke-opacity: 1; stroke-width: 1px;"/><path class="angularaxisgrid" d="M212.5,200L362.5,200" style="stroke: rgb(255, 255, 255); stroke-opacity: 1; stroke-width: 1px;"/><path class="angularaxisgrid" d="M212.5,200L318.56601717798213,306.06601717798213" style="stroke: rgb(255, 255, 255); stroke-opacity: 1; stroke-width: 1px;"/><path class="angularaxisgrid" d="M212.5,200L212.5,350" style="stroke: rgb(255, 255, 255); stroke-opacity: 1; stroke-width: 1px;"/><path class="angularaxisgrid" d="M212.5,200L106.43398282201788,306.06601717798213" style="stroke: rgb(255, 255, 255); stroke-opacity: 1; stroke-width: 1px;"/><path class="angularaxisgrid" d="M212.5,200L62.5,200.00000000000003" style="stroke: rgb(255, 255, 255); stroke-opacity: 1; stroke-width: 1px;"/><path class="angularaxisgrid" d="M212.5,200L106.43398282201785,93.93398282201788" style="stroke: rgb(255, 255, 255); stroke-opacity: 1; stroke-width: 1px;"/></g><g class="polarsublayer radial-grid" transform="translate(212.5,200)" style="fill: none;"><path class="xgrid" d="M25.53,0A25.53,25.53 0,1,0 -25.53,-3.126523278223193e-15A25.53,25.53 0,1,0 25.53,6.253046556446386e-15Z" style="stroke: rgb(255, 255, 255); stroke-opacity: 1; stroke-width: 1px;"/><path class="xgrid" d="M51.07,0A51.07,51.07 0,1,0 -51.07,-6.254271203245533e-15A51.07,51.07 0,1,0 51.07,1.2508542406491065e-14Z" style="stroke: rgb(255, 255, 255); stroke-opacity: 1; stroke-width: 1px;"/><path class="xgrid" d="M76.6,0A76.6,76.6 0,1,0 -76.6,-9.380794481468726e-15A76.6,76.6 0,1,0 76.6,1.876158896293745e-14Z" style="stroke: rgb(255, 255, 255); stroke-opacity: 1; stroke-width: 1px;"/><path class="xgrid" d="M102.13,0A102.13,102.13 0,1,0 -102.13,-1.2507317759691917e-14A102.13,102.13 0,1,0 102.13,2.5014635519383834e-14Z" style="stroke: rgb(255, 255, 255); stroke-opacity: 1; stroke-width: 1px;"/><path class="xgrid" d="M127.67,0A127.67,127.67 0,1,0 -127.67,-1.563506568471426e-14A127.67,127.67 0,1,0 127.67,3.127013136942852e-14Z" style="stroke: rgb(255, 255, 255); stroke-opacity: 1; stroke-width: 1px;"/></g><g class="polarsublayer frontplot" transform="translate(62.5,50)" clip-path="url(#clip7f19edpolar-for-traces)"><g class="barlayer"><g class="trace bars" style="opacity: 1;"><g class="points"><g class="point" style="vector-effect: none; stroke-miterlimit: 2;"><path d="M150,150L150.30073734509315,148.31592663600685A1.7107150686321007,1.7107150686321007 0,0,0 149.69926265490685,148.31592663600685L150,150A0,0 0,0,1 150,150Z" style="opacity: 1; stroke-width: 0.5px; fill: rgb(48, 18, 59); fill-opacity: 1; stroke: rgb(229, 236, 246); stroke-opacity: 1;"/></g><g class="point" style="vector-effect: none; stroke-miterlimit: 2;"><path d="M0,0Z" style="opacity: 1; stroke-width: 0.5px; fill: rgb(48, 18, 59); fill-opacity: 1; stroke: rgb(229, 236, 246); stroke-opacity: 1;"/></g><g class="point" style="vector-effect: none; stroke-miterlimit: 2;"><path d="M150,150L153.36205100937744,147.65678095278324A4.098055940674215,4.098055940674215 0,0,0 152.34321904721676,146.63794899062256L150,150A0,0 0,0,1 150,150Z" style="opacity: 1; stroke-width: 0.5px; fill: rgb(48, 18, 59); fill-opacity: 1; stroke: rgb(229, 236, 246); stroke-opacity: 1;"/></g><g class="point" style="vector-effect: none; stroke-miterlimit: 2;"><path d="M0,0Z" style="opacity: 1; stroke-width: 0.5px; fill: rgb(48, 18, 59); fill-opacity: 1; stroke: rgb(229, 236, 246); stroke-opacity: 1;"/></g><g class="point" style="vector-effect: none; stroke-miterlimit: 2;"><path d="M150,150L155.73087609456806,151.02340462036148A5.821537411051222,5.821537411051222 0,0,0 155.73087609456806,148.97659537963852L150,150A0,0 0,0,1 150,150Z" style="opacity: 1; stroke-width: 0.5px; fill: rgb(48, 18, 59); fill-opacity: 1; stroke: rgb(229, 236, 246); stroke-opacity: 1;"/></g><g class="point" style="vector-effect: none; stroke-miterlimit: 2;"><path d="M150,150L155.7309178477807,153.6685991612397A6.804560175636625,6.804560175636625 0,0,0 156.64646221695662,151.45827952822086L150,150A0,0 0,0,1 150,150Z" style="opacity: 1; stroke-width: 0.5px; fill: rgb(48, 18, 59); fill-opacity: 1; stroke: rgb(229, 236, 246); stroke-opacity: 1;"/></g><g class="point" style="vector-effect: none; stroke-miterlimit: 2;"><path d="M0,0Z" style="opacity: 1; stroke-width: 0.5px; fill: rgb(48, 18, 59); fill-opacity: 1; stroke: rgb(229, 236, 246); stroke-opacity: 1;"/></g><g class="point" style="vector-effect: none; stroke-miterlimit: 2;"><path d="M0,0Z" style="opacity: 1; stroke-width: 0.5px; fill: rgb(48, 18, 59); fill-opacity: 1; stroke: rgb(229, 236, 246); stroke-opacity: 1;"/></g><g class="point" style="vector-effect: none; stroke-miterlimit: 2;"><path d="M150,150L147.60307858498203,163.42231544062494A13.634653793089532,13.634653793089532 0,0,0 152.39692141501797,163.42231544062494L150,150A0,0 0,0,1 150,150Z" style="opacity: 1; stroke-width: 0.5px; fill: rgb(48, 18, 59); fill-opacity: 1; stroke: rgb(229, 236, 246); stroke-opacity: 1;"/></g><g class="point" style="vector-effect: none; stroke-miterlimit: 2;"><path d="M0,0Z" style="opacity: 1; stroke-width: 0.5px; fill: rgb(48, 18, 59); fill-opacity: 1; stroke: rgb(229, 236, 246); stroke-opacity: 1;"/></g><g class="point" style="vector-effect: none; stroke-miterlimit: 2;"><path d="M150,150L142.1971090280804,155.43831211892987A9.511064410599037,9.511064410599037 0,0,0 144.56168788107013,157.8028909719196L150,150A0,0 0,0,1 150,150Z" style="opacity: 1; stroke-width: 0.5px; fill: rgb(48, 18, 59); fill-opacity: 1; stroke: rgb(229, 236, 246); stroke-opacity: 1;"/></g><g class="point" style="vector-effect: none; stroke-miterlimit: 2;"><path d="M0,0Z" style="opacity: 1; stroke-width: 0.5px; fill: rgb(48, 18, 59); fill-opacity: 1; stroke: rgb(229, 236, 246); stroke-opacity: 1;"/></g><g class="point" style="vector-effect: none; stroke-miterlimit: 2;"><path d="M150,150L142.39653500611035,148.64219343131867A7.723750293171029,7.723750293171029 0,0,0 142.39653500611035,151.35780656868135L150,150A0,0 0,0,1 150,150Z" style="opacity: 1; stroke-width: 0.5px; fill: rgb(48, 18, 59); fill-opacity: 1; stroke: rgb(229, 236, 246); stroke-opacity: 1;"/></g><g class="point" style="vector-effect: none; stroke-miterlimit: 2;"><path d="M150,150L144.3228431076394,146.36581546503834A6.740727528585626,6.740727528585626 0,0,0 143.4158873347972,148.55540039230655L150,150A0,0 0,0,1 150,150Z" style="opacity: 1; stroke-width: 0.5px; fill: rgb(48, 18, 59); fill-opacity: 1; stroke: rgb(229, 236, 246); stroke-opacity: 1;"/></g><g class="point" style="vector-effect: none; stroke-miterlimit: 2;"><path d="M0,0Z" style="opacity: 1; stroke-width: 0.5px; fill: rgb(48, 18, 59); fill-opacity: 1; stroke: rgb(229, 236, 246); stroke-opacity: 1;"/></g><g class="point" style="vector-effect: none; stroke-miterlimit: 2;"><path d="M150,150L149.59781033649443,148.16692317843786A1.876679823299407,1.876679823299407 0,0,0 148.98820998742545,148.4194279106496L150,150A0,0 0,0,1 150,150Z" style="opacity: 1; stroke-width: 0.5px; fill: rgb(48, 18, 59); fill-opacity: 1; stroke: rgb(229, 236, 246); stroke-opacity: 1;"/></g></g></g><g class="trace bars" style="opacity: 1;"><g class="points"><g class="point" style="vector-effect: none; stroke-miterlimit: 2;"><path d="M150.30073734509315,148.31592663600685L150.96056403066405,144.62101955462137A5.464074842896209,5.464074842896209 0,0,0 149.03943596933595,144.62101955462137L149.69926265490685,148.31592663600685A1.7107150686321007,1.7107150686321007 0,0,1 150.30073734509315,148.31592663600685Z" style="opacity: 1; stroke-width: 0.5px; fill: rgb(65, 69, 171); fill-opacity: 1; stroke: rgb(229, 236, 246); stroke-opacity: 1;"/></g><g class="point" style="vector-effect: none; stroke-miterlimit: 2;"><path d="M150,150L153.12484806604658,145.1185052478566A5.796004352230822,5.796004352230822 0,0,0 151.24213678388793,144.33866070075365L150,150A0,0 0,0,1 150,150Z" style="opacity: 1; stroke-width: 0.5px; fill: rgb(65, 69, 171); fill-opacity: 1; stroke: rgb(229, 236, 246); stroke-opacity: 1;"/></g><g class="point" style="vector-effect: none; stroke-miterlimit: 2;"><path d="M153.36205100937744,147.65678095278324L157.2687333349157,144.933975019413A8.859971410678833,8.859971410678833 0,0,0 155.066024980587,142.73126666508432L152.34321904721676,146.63794899062256A4.098055940674215,4.098055940674215 0,0,1 153.36205100937744,147.65678095278324Z" style="opacity: 1; stroke-width: 0.5px; fill: rgb(65, 69, 171); fill-opacity: 1; stroke: rgb(229, 236, 246); stroke-opacity: 1;"/></g><g class="point" style="vector-effect: none; stroke-miterlimit: 2;"><path d="M150,150L161.31020868814193,147.5184624163296A11.579242175051444,11.579242175051444 0,0,0 159.75223731320278,143.75718679316245L150,150A0,0 0,0,1 150,150Z" style="opacity: 1; stroke-width: 0.5px; fill: rgb(65, 69, 171); fill-opacity: 1; stroke: rgb(229, 236, 246); stroke-opacity: 1;"/></g><g class="point" style="vector-effect: none; stroke-miterlimit: 2;"><path d="M155.73087609456806,151.02340462036148L168.4619670678081,153.29688900726097A18.75403170358387,18.75403170358387 0,0,0 168.4619670678081,146.703110992739L155.73087609456806,148.97659537963852A5.821537411051222,5.821537411051222 0,0,1 155.73087609456806,151.02340462036148Z" style="opacity: 1; stroke-width: 0.5px; fill: rgb(65, 69, 171); fill-opacity: 1; stroke: rgb(229, 236, 246); stroke-opacity: 1;"/></g><g class="point" style="vector-effect: none; stroke-miterlimit: 2;"><path d="M155.7309178477807,153.6685991612397L171.79469132730105,163.9516894931199A25.877755114475498,25.877755114475498 0,0,0 175.27650828099638,155.54583978180804L156.64646221695662,151.45827952822086A6.804560175636625,6.804560175636625 0,0,1 155.7309178477807,153.6685991612397Z" style="opacity: 1; stroke-width: 0.5px; fill: rgb(65, 69, 171); fill-opacity: 1; stroke: rgb(229, 236, 246); stroke-opacity: 1;"/></g><g class="point" style="vector-effect: none; stroke-miterlimit: 2;"><path d="M150,150L162.28547556531404,167.62720202112843A21.48606899736668,21.48606899736668 0,0,0 167.6272020211284,162.28547556531404L150,150A0,0 0,0,1 150,150Z" style="opacity: 1; stroke-width: 0.5px; fill: rgb(65, 69, 171); fill-opacity: 1; stroke: rgb(229, 236, 246); stroke-opacity: 1;"/></g><g class="point" style="vector-effect: none; stroke-miterlimit: 2;"><path d="M150,150L154.57456536964293,170.84968985707735A21.345636918523894,21.345636918523894 0,0,0 161.5082508897201,167.97766327743145L150,150A0,0 0,0,1 150,150Z" style="opacity: 1; stroke-width: 0.5px; fill: rgb(65, 69, 171); fill-opacity: 1; stroke: rgb(229, 236, 246); stroke-opacity: 1;"/></g><g class="point" style="vector-effect: none; stroke-miterlimit: 2;"><path d="M147.60307858498203,163.42231544062494L145.5383148772352,174.9846093156307A25.379860850473577,25.379860850473577 0,0,0 154.4616851227648,174.9846093156307L152.39692141501797,163.42231544062494A13.634653793089532,13.634653793089532 0,0,1 147.60307858498203,163.42231544062494Z" style="opacity: 1; stroke-width: 0.5px; fill: rgb(65, 69, 171); fill-opacity: 1; stroke: rgb(229, 236, 246); stroke-opacity: 1;"/></g><g class="point" style="vector-effect: none; stroke-miterlimit: 2;"><path d="M150,150L140.6598704281383,164.59072330101012A17.324180409641464,17.324180409641464 0,0,0 146.2872695688636,166.92166834598524L150,150A0,0 0,0,1 150,150Z" style="opacity: 1; stroke-width: 0.5px; fill: rgb(65, 69, 171); fill-opacity: 1; stroke: rgb(229, 236, 246); stroke-opacity: 1;"/></g><g class="point" style="vector-effect: none; stroke-miterlimit: 2;"><path d="M142.1971090280804,155.43831211892987L133.86006041915692,161.24891137620256A19.673221821118272,19.673221821118272 0,0,0 138.75108862379741,166.13993958084308L144.56168788107013,157.8028909719196A9.511064410599037,9.511064410599037 0,0,1 142.1971090280804,155.43831211892987Z" style="opacity: 1; stroke-width: 0.5px; fill: rgb(65, 69, 171); fill-opacity: 1; stroke: rgb(229, 236, 246); stroke-opacity: 1;"/></g><g class="point" style="vector-effect: none; stroke-miterlimit: 2;"><path d="M150,150L129.79874523176412,154.43229425087767A20.68177764452408,20.68177764452408 0,0,0 132.5814504438936,161.15033891408694L150,150A0,0 0,0,1 150,150Z" style="opacity: 1; stroke-width: 0.5px; fill: rgb(65, 69, 171); fill-opacity: 1; stroke: rgb(229, 236, 246); stroke-opacity: 1;"/></g><g class="point" style="vector-effect: none; stroke-miterlimit: 2;"><path d="M142.39653500611035,148.64219343131867L129.4894960825985,146.33728872712737A20.83497599744648,20.83497599744648 0,0,0 129.4894960825985,153.66271127287266L142.39653500611035,151.35780656868135A7.723750293171029,7.723750293171029 0,0,1 142.39653500611035,148.64219343131867Z" style="opacity: 1; stroke-width: 0.5px; fill: rgb(65, 69, 171); fill-opacity: 1; stroke: rgb(229, 236, 246); stroke-opacity: 1;"/></g><g class="point" style="vector-effect: none; stroke-miterlimit: 2;"><path d="M144.3228431076394,146.36581546503834L138.4628989668505,142.6146212007313A13.69848605714465,13.69848605714465 0,0,0 136.61978619363143,147.0642890548199L143.4158873347972,148.55540039230655A6.740727528585626,6.740727528585626 0,0,1 144.3228431076394,146.36581546503834Z" style="opacity: 1; stroke-width: 0.5px; fill: rgb(65, 69, 171); fill-opacity: 1; stroke: rgb(229, 236, 246); stroke-opacity: 1;"/></g><g class="point" style="vector-effect: none; stroke-miterlimit: 2;"><path d="M150,150L143.2477332751542,140.3118467798314A11.809039704435046,11.809039704435046 0,0,0 140.31184677983137,143.2477332751542L150,150A0,0 0,0,1 150,150Z" style="opacity: 1; stroke-width: 0.5px; fill: rgb(65, 69, 171); fill-opacity: 1; stroke: rgb(229, 236, 246); stroke-opacity: 1;"/></g><g class="point" style="vector-effect: none; stroke-miterlimit: 2;"><path d="M149.59781033649443,148.16692317843786L149.03146162666008,145.58565173582994A4.519351411210817,4.519351411210817 0,0,0 147.56344445951433,146.19372435625823L148.98820998742545,148.4194279106496A1.876679823299407,1.876679823299407 0,0,1 149.59781033649443,148.16692317843786Z" style="opacity: 1; stroke-width: 0.5px; fill: rgb(65, 69, 171); fill-opacity: 1; stroke: rgb(229, 236, 246); stroke-opacity: 1;"/></g></g></g><g class="trace bars" style="opacity: 1;"><g class="points"><g class="point" style="vector-effect: none; stroke-miterlimit: 2;"><path d="M150.96056403066405,144.62101955462137L154.52901435166132,124.63835948803535A25.762856605114283,25.762856605114283 0,0,0 145.4709856483387,124.63835948803535L149.03943596933595,144.62101955462137A5.464074842896209,5.464074842896209 0,0,1 150.96056403066405,144.62101955462137Z" style="opacity: 1; stroke-width: 0.5px; fill: rgb(70, 117, 237); fill-opacity: 1; stroke: rgb(229, 236, 246); stroke-opacity: 1;"/></g><g class="point" style="vector-effect: none; stroke-miterlimit: 2;"><path d="M153.12484806604658,145.1185052478566L162.94678240580092,129.77512857096534A24.01384182058629,24.01384182058629 0,0,0 155.14638610240794,126.54409863021502L151.24213678388793,144.33866070075365A5.796004352230822,5.796004352230822 0,0,1 153.12484806604658,145.1185052478566Z" style="opacity: 1; stroke-width: 0.5px; fill: rgb(70, 117, 237); fill-opacity: 1; stroke: rgb(229, 236, 246); stroke-opacity: 1;"/></g><g class="point" style="vector-effect: none; stroke-miterlimit: 2;"><path d="M157.2687333349157,144.933975019413L172.61267329983139,134.23984447681937A27.562936996621904,27.562936996621904 0,0,0 165.76015552318063,127.38732670016861L155.066024980587,142.73126666508432A8.859971410678833,8.859971410678833 0,0,1 157.2687333349157,144.933975019413Z" style="opacity: 1; stroke-width: 0.5px; fill: rgb(70, 117, 237); fill-opacity: 1; stroke: rgb(229, 236, 246); stroke-opacity: 1;"/></g><g class="point" style="vector-effect: none; stroke-miterlimit: 2;"><path d="M161.31020868814193,147.5184624163296L184.49177203021014,142.43226796424221A35.31222034861334,35.31222034861334 0,0,0 179.7405605383891,130.96182874298492L159.75223731320278,143.75718679316245A11.579242175051444,11.579242175051444 0,0,1 161.31020868814193,147.5184624163296Z" style="opacity: 1; stroke-width: 0.5px; fill: rgb(70, 117, 237); fill-opacity: 1; stroke: rgb(229, 236, 246); stroke-opacity: 1;"/></g><g class="point" style="vector-effect: none; stroke-miterlimit: 2;"><path d="M168.4619670678081,153.29688900726097L206.1776667282933,160.0320584047099A57.06638620826363,57.06638620826363 0,0,0 206.1776667282933,139.9679415952901L168.4619670678081,146.703110992739A18.75403170358387,18.75403170358387 0,0,1 168.4619670678081,153.29688900726097Z" style="opacity: 1; stroke-width: 0.5px; fill: rgb(70, 117, 237); fill-opacity: 1; stroke: rgb(229, 236, 246); stroke-opacity: 1;"/></g><g class="point" style="vector-effect: none; stroke-miterlimit: 2;"><path d="M171.79469132730105,163.9516894931199L193.18079917836565,177.6418276888681A51.270381856032806,51.270381856032806 0,0,0 200.07915971926553,160.98771211288815L175.27650828099638,155.54583978180804A25.877755114475498,25.877755114475498 0,0,1 171.79469132730105,163.9516894931199Z" style="opacity: 1; stroke-width: 0.5px; fill: rgb(70, 117, 237); fill-opacity: 1; stroke: rgb(229, 236, 246); stroke-opacity: 1;"/></g><g class="point" style="vector-effect: none; stroke-miterlimit: 2;"><path d="M162.28547556531404,167.62720202112843L182.73206889093825,196.96397692076752A57.24511736467584,57.24511736467584 0,0,0 196.9639769207675,182.73206889093828L167.6272020211284,162.28547556531404A21.48606899736668,21.48606899736668 0,0,1 162.28547556531404,167.62720202112843Z" style="opacity: 1; stroke-width: 0.5px; fill: rgb(70, 117, 237); fill-opacity: 1; stroke: rgb(229, 236, 246); stroke-opacity: 1;"/></g><g class="point" style="vector-effect: none; stroke-miterlimit: 2;"><path d="M154.57456536964293,170.84968985707735L157.9480337716998,186.22508931956799A37.08676768130056,37.08676768130056 0,0,0 169.99489772988625,181.23511488402355L161.5082508897201,167.97766327743145A21.345636918523894,21.345636918523894 0,0,1 154.57456536964293,170.84968985707735Z" style="opacity: 1; stroke-width: 0.5px; fill: rgb(70, 117, 237); fill-opacity: 1; stroke: rgb(229, 236, 246); stroke-opacity: 1;"/></g><g class="point" style="vector-effect: none; stroke-miterlimit: 2;"><path d="M145.5383148772352,174.9846093156307L141.19333385745486,199.3156972960776A50.095861788620866,50.095861788620866 0,0,0 158.8066661425451,199.3156972960776L154.4616851227648,174.9846093156307A25.379860850473577,25.379860850473577 0,0,1 145.5383148772352,174.9846093156307Z" style="opacity: 1; stroke-width: 0.5px; fill: rgb(70, 117, 237); fill-opacity: 1; stroke: rgb(229, 236, 246); stroke-opacity: 1;"/></g><g class="point" style="vector-effect: none; stroke-miterlimit: 2;"><path d="M140.6598704281383,164.59072330101012L121.6836459113992,194.2345134745116A52.521501227571235,52.521501227571235 0,0,0 138.74416155421417,201.30121043484388L146.2872695688636,166.92166834598524A17.324180409641464,17.324180409641464 0,0,1 140.6598704281383,164.59072330101012Z" style="opacity: 1; stroke-width: 0.5px; fill: rgb(70, 117, 237); fill-opacity: 1; stroke: rgb(229, 236, 246); stroke-opacity: 1;"/></g><g class="point" style="vector-effect: none; stroke-miterlimit: 2;"><path d="M133.86006041915692,161.24891137620256L102.99412794365759,182.76126817417077A57.29618399297781,57.29618399297781 0,0,0 117.23873182582923,197.0058720563424L138.75108862379741,166.13993958084308A19.673221821118272,19.673221821118272 0,0,1 133.86006041915692,161.24891137620256Z" style="opacity: 1; stroke-width: 0.5px; fill: rgb(70, 117, 237); fill-opacity: 1; stroke: rgb(229, 236, 246); stroke-opacity: 1;"/></g><g class="point" style="vector-effect: none; stroke-miterlimit: 2;"><path d="M129.79874523176412,154.43229425087767L93.87293301241985,162.31466456820507A57.46214938597159,57.46214938597159 0,0,0 101.60438750075501,180.98004685081412L132.5814504438936,161.15033891408694A20.68177764452408,20.68177764452408 0,0,1 129.79874523176412,154.43229425087767Z" style="opacity: 1; stroke-width: 0.5px; fill: rgb(70, 117, 237); fill-opacity: 1; stroke: rgb(229, 236, 246); stroke-opacity: 1;"/></g><g class="point" style="vector-effect: none; stroke-miterlimit: 2;"><path d="M129.4894960825985,146.33728872712737L90.32850943638336,139.34402382132396A60.615481639629834,60.615481639629834 0,0,0 90.32850943638337,160.6559761786761L129.4894960825985,153.66271127287266A20.83497599744648,20.83497599744648 0,0,1 129.4894960825985,146.33728872712737Z" style="opacity: 1; stroke-width: 0.5px; fill: rgb(70, 117, 237); fill-opacity: 1; stroke: rgb(229, 236, 246); stroke-opacity: 1;"/></g><g class="point" style="vector-effect: none; stroke-miterlimit: 2;"><path d="M138.4628989668505,142.6146212007313L111.8082172695741,125.55184949207609A45.34671246503056,45.34671246503056 0,0,0 105.70687843409024,140.2817844573349L136.61978619363143,147.0642890548199A13.69848605714465,13.69848605714465 0,0,1 138.4628989668505,142.6146212007313Z" style="opacity: 1; stroke-width: 0.5px; fill: rgb(70, 117, 237); fill-opacity: 1; stroke: rgb(229, 236, 246); stroke-opacity: 1;"/></g><g class="point" style="vector-effect: none; stroke-miterlimit: 2;"><path d="M143.2477332751542,140.3118467798314L133.91865550015353,126.9264847125265A28.124664418336003,28.124664418336003 0,0,0 126.92648471252649,133.91865550015356L140.31184677983137,143.2477332751542A11.809039704435046,11.809039704435046 0,0,1 143.2477332751542,140.3118467798314Z" style="opacity: 1; stroke-width: 0.5px; fill: rgb(70, 117, 237); fill-opacity: 1; stroke: rgb(229, 236, 246); stroke-opacity: 1;"/></g><g class="point" style="vector-effect: none; stroke-miterlimit: 2;"><path d="M149.03146162666008,145.58565173582994L146.0957507088398,132.20543805416045A18.217837340690178,18.217837340690178 0,0,0 140.1780657290749,134.65662343063065L147.56344445951433,146.19372435625823A4.519351411210817,4.519351411210817 0,0,1 149.03146162666008,145.58565173582994Z" style="opacity: 1; stroke-width: 0.5px; fill: rgb(70, 117, 237); fill-opacity: 1; stroke: rgb(229, 236, 246); stroke-opacity: 1;"/></g></g></g><g class="trace bars" style="opacity: 1;"><g class="points"><g class="point" style="vector-effect: none; stroke-miterlimit: 2;"><path d="M154.52901435166132,124.63835948803535L157.1301678066329,110.07238249632063A40.55926444686673,40.55926444686673 0,0,0 142.8698321933671,110.07238249632063L145.4709856483387,124.63835948803535A25.762856605114283,25.762856605114283 0,0,1 154.52901435166132,124.63835948803535Z" style="opacity: 1; stroke-width: 0.5px; fill: rgb(57, 162, 252); fill-opacity: 1; stroke: rgb(229, 236, 246); stroke-opacity: 1;"/></g><g class="point" style="vector-effect: none; stroke-miterlimit: 2;"><path d="M162.94678240580092,129.77512857096534L168.76973717204632,120.67877491388754A34.81432570161553,34.81432570161553 0,0,0 157.46102865564407,115.9945544734696L155.14638610240794,126.54409863021502A24.01384182058629,24.01384182058629 0,0,1 162.94678240580092,129.77512857096534Z" style="opacity: 1; stroke-width: 0.5px; fill: rgb(57, 162, 252); fill-opacity: 1; stroke: rgb(229, 236, 246); stroke-opacity: 1;"/></g><g class="point" style="vector-effect: none; stroke-miterlimit: 2;"><path d="M172.61267329983139,134.23984447681937L181.16966906631382,128.2759505885206A37.99319139709005,37.99319139709005 0,0,0 171.7240494114794,118.8303309336862L165.76015552318063,127.38732670016861A27.562936996621904,27.562936996621904 0,0,1 172.61267329983139,134.23984447681937Z" style="opacity: 1; stroke-width: 0.5px; fill: rgb(57, 162, 252); fill-opacity: 1; stroke: rgb(229, 236, 246); stroke-opacity: 1;"/></g><g class="point" style="vector-effect: none; stroke-miterlimit: 2;"><path d="M184.49177203021014,142.43226796424221L200.88970414146334,138.83444886553596A52.100206523026394,52.100206523026394 0,0,0 193.87969181387052,121.9107820318588L179.7405605383891,130.96182874298492A35.31222034861334,35.31222034861334 0,0,1 184.49177203021014,142.43226796424221Z" style="opacity: 1; stroke-width: 0.5px; fill: rgb(57, 162, 252); fill-opacity: 1; stroke: rgb(229, 236, 246); stroke-opacity: 1;"/></g><g class="point" style="vector-effect: none; stroke-miterlimit: 2;"><path d="M206.1776667282933,160.0320584047099L234.21622899815094,165.0391103286667A85.54851293942406,85.54851293942406 0,0,0 234.21622899815094,134.96088967133326L206.1776667282933,139.9679415952901A57.06638620826363,57.06638620826363 0,0,1 206.1776667282933,160.0320584047099Z" style="opacity: 1; stroke-width: 0.5px; fill: rgb(57, 162, 252); fill-opacity: 1; stroke: rgb(229, 236, 246); stroke-opacity: 1;"/></g><g class="point" style="vector-effect: none; stroke-miterlimit: 2;"><path d="M193.18079917836565,177.6418276888681L215.95394043192175,192.21986372439466A78.30989178516297,78.30989178516297 0,0,0 226.49043046567687,166.78252658509405L200.07915971926553,160.98771211288815A51.270381856032806,51.270381856032806 0,0,1 193.18079917836565,177.6418276888681Z" style="opacity: 1; stroke-width: 0.5px; fill: rgb(57, 162, 252); fill-opacity: 1; stroke: rgb(229, 236, 246); stroke-opacity: 1;"/></g><g class="point" style="vector-effect: none; stroke-miterlimit: 2;"><path d="M182.73206889093825,196.96397692076752L194.221872236882,213.44954833273673A77.3396351669919,77.3396351669919 0,0,0 213.44954833273673,194.22187223688204L196.9639769207675,182.73206889093828A57.24511736467584,57.24511736467584 0,0,1 182.73206889093825,196.96397692076752Z" style="opacity: 1; stroke-width: 0.5px; fill: rgb(57, 162, 252); fill-opacity: 1; stroke: rgb(229, 236, 246); stroke-opacity: 1;"/></g><g class="point" style="vector-effect: none; stroke-miterlimit: 2;"><path d="M157.9480337716998,186.22508931956799L159.9507741369112,195.35306369632644A46.431867209566995,46.431867209566995 0,0,0 175.0331990169922,189.10571875752348L169.99489772988625,181.23511488402355A37.08676768130056,37.08676768130056 0,0,1 157.9480337716998,186.22508931956799Z" style="opacity: 1; stroke-width: 0.5px; fill: rgb(57, 162, 252); fill-opacity: 1; stroke: rgb(229, 236, 246); stroke-opacity: 1;"/></g><g class="point" style="vector-effect: none; stroke-miterlimit: 2;"><path d="M141.19333385745486,199.3156972960776L137.70792301377233,218.83335168848532A69.92228157966566,69.92228157966566 0,0,0 162.29207698622764,218.83335168848532L158.8066661425451,199.3156972960776A50.095861788620866,50.095861788620866 0,0,1 141.19333385745486,199.3156972960776Z" style="opacity: 1; stroke-width: 0.5px; fill: rgb(57, 162, 252); fill-opacity: 1; stroke: rgb(229, 236, 246); stroke-opacity: 1;"/></g><g class="point" style="vector-effect: none; stroke-miterlimit: 2;"><path d="M121.6836459113992,194.2345134745116L107.54611743637787,216.3195139610811A78.74395263612215,78.74395263612215 0,0,0 133.12445020155818,226.91440629531087L138.74416155421417,201.30121043484388A52.521501227571235,52.521501227571235 0,0,1 121.6836459113992,194.2345134745116Z" style="opacity: 1; stroke-width: 0.5px; fill: rgb(57, 162, 252); fill-opacity: 1; stroke: rgb(229, 236, 246); stroke-opacity: 1;"/></g><g class="point" style="vector-effect: none; stroke-miterlimit: 2;"><path d="M102.99412794365759,182.76126817417077L67.78161809434455,207.30302067854365A100.21725650839684,100.21725650839684 0,0,0 92.69697932145635,232.21838190565543L117.23873182582923,197.0058720563424A57.29618399297781,57.29618399297781 0,0,1 102.99412794365759,182.76126817417077Z" style="opacity: 1; stroke-width: 0.5px; fill: rgb(57, 162, 252); fill-opacity: 1; stroke: rgb(229, 236, 246); stroke-opacity: 1;"/></g><g class="point" style="vector-effect: none; stroke-miterlimit: 2;"><path d="M93.87293301241985,162.31466456820507L49.018665480725744,172.15599939561682A103.38335567446117,103.38335567446117 0,0,0 62.928756171548386,205.7379289952405L101.60438750075501,180.98004685081412A57.46214938597159,57.46214938597159 0,0,1 93.87293301241985,162.31466456820507Z" style="opacity: 1; stroke-width: 0.5px; fill: rgb(57, 162, 252); fill-opacity: 1; stroke: rgb(229, 236, 246); stroke-opacity: 1;"/></g><g class="point" style="vector-effect: none; stroke-miterlimit: 2;"><path d="M90.32850943638336,139.34402382132396L41.452683649787744,130.61590876376846A110.26451323924486,110.26451323924486 0,0,0 41.45268364978776,169.38409123623165L90.32850943638337,160.6559761786761A60.615481639629834,60.615481639629834 0,0,1 90.32850943638336,139.34402382132396Z" style="opacity: 1; stroke-width: 0.5px; fill: rgb(57, 162, 252); fill-opacity: 1; stroke: rgb(229, 236, 246); stroke-opacity: 1;"/></g><g class="point" style="vector-effect: none; stroke-miterlimit: 2;"><path d="M111.8082172695741,125.55184949207609L88.63724548351897,110.71914556623824A72.85858334401168,72.85858334401168 0,0,0 78.8342216281962,134.38573871002544L105.70687843409024,140.2817844573349A45.34671246503056,45.34671246503056 0,0,1 111.8082172695741,125.55184949207609Z" style="opacity: 1; stroke-width: 0.5px; fill: rgb(57, 162, 252); fill-opacity: 1; stroke: rgb(229, 236, 246); stroke-opacity: 1;"/></g><g class="point" style="vector-effect: none; stroke-miterlimit: 2;"><path d="M133.91865550015353,126.9264847125265L122.50914967211678,110.55612419023079A48.07874988647868,48.07874988647868 0,0,0 110.55612419023075,122.50914967211682L126.92648471252649,133.91865550015356A28.124664418336003,28.124664418336003 0,0,1 133.91865550015353,126.9264847125265Z" style="opacity: 1; stroke-width: 0.5px; fill: rgb(57, 162, 252); fill-opacity: 1; stroke: rgb(229, 236, 246); stroke-opacity: 1;"/></g><g class="point" style="vector-effect: none; stroke-miterlimit: 2;"><path d="M146.0957507088398,132.20543805416045L142.98493667146963,118.02714948654665A32.73338179074881,32.73338179074881 0,0,0 132.35217943813018,122.43138173801648L140.1780657290749,134.65662343063065A18.217837340690178,18.217837340690178 0,0,1 146.0957507088398,132.20543805416045Z" style="opacity: 1; stroke-width: 0.5px; fill: rgb(57, 162, 252); fill-opacity: 1; stroke: rgb(229, 236, 246); stroke-opacity: 1;"/></g></g></g><g class="trace bars" style="opacity: 1;"><g class="points"><g class="point" style="vector-effect: none; stroke-miterlimit: 2;"><path d="M157.1301678066329,110.07238249632063L157.45559252144082,108.25006443993385A42.41041121134573,42.41041121134573 0,0,0 142.54440747855918,108.25006443993385L142.8698321933671,110.07238249632063A40.55926444686673,40.55926444686673 0,0,1 157.1301678066329,110.07238249632063Z" style="opacity: 1; stroke-width: 0.5px; fill: rgb(27, 207, 212); fill-opacity: 1; stroke: rgb(229, 236, 246); stroke-opacity: 1;"/></g><g class="point" style="vector-effect: none; stroke-miterlimit: 2;"><path d="M168.76973717204632,120.67877491388754L169.41673214607357,119.66806895199001A36.01437946617433,36.01437946617433 0,0,0 157.71821116155917,114.8223829004979L157.46102865564407,115.9945544734696A34.81432570161553,34.81432570161553 0,0,1 168.76973717204632,120.67877491388754Z" style="opacity: 1; stroke-width: 0.5px; fill: rgb(27, 207, 212); fill-opacity: 1; stroke: rgb(229, 236, 246); stroke-opacity: 1;"/></g><g class="point" style="vector-effect: none; stroke-miterlimit: 2;"><path d="M181.16966906631382,128.2759505885206L182.4160368022001,127.40728065745195A39.51240829477162,39.51240829477162 0,0,0 172.59271934254807,117.58396319779989L171.7240494114794,118.8303309336862A37.99319139709005,37.99319139709005 0,0,1 181.16966906631382,128.2759505885206Z" style="opacity: 1; stroke-width: 0.5px; fill: rgb(27, 207, 212); fill-opacity: 1; stroke: rgb(229, 236, 246); stroke-opacity: 1;"/></g><g class="point" style="vector-effect: none; stroke-miterlimit: 2;"><path d="M200.88970414146334,138.83444886553596L204.34386930862468,138.076581268318A55.63653516965181,55.63653516965181 0,0,0 196.85804874414305,120.00421173605505L193.87969181387052,121.9107820318588A52.100206523026394,52.100206523026394 0,0,1 200.88970414146334,138.83444886553596Z" style="opacity: 1; stroke-width: 0.5px; fill: rgb(27, 207, 212); fill-opacity: 1; stroke: rgb(229, 236, 246); stroke-opacity: 1;"/></g><g class="point" style="vector-effect: none; stroke-miterlimit: 2;"><path d="M234.21622899815094,165.0391103286667L240.92738640427064,166.23757098006797A92.36583951680558,92.36583951680558 0,0,0 240.92738640427064,133.762429019932L234.21622899815094,134.96088967133326A85.54851293942406,85.54851293942406 0,0,1 234.21622899815094,165.0391103286667Z" style="opacity: 1; stroke-width: 0.5px; fill: rgb(27, 207, 212); fill-opacity: 1; stroke: rgb(229, 236, 246); stroke-opacity: 1;"/></g><g class="point" style="vector-effect: none; stroke-miterlimit: 2;"><path d="M215.95394043192175,192.21986372439466L220.86769175731717,195.36536056620807A84.1441957256244,84.1441957256244 0,0,0 232.1891794959755,168.03287132129844L226.49043046567687,166.78252658509405A78.30989178516297,78.30989178516297 0,0,1 215.95394043192175,192.21986372439466Z" style="opacity: 1; stroke-width: 0.5px; fill: rgb(27, 207, 212); fill-opacity: 1; stroke: rgb(229, 236, 246); stroke-opacity: 1;"/></g><g class="point" style="vector-effect: none; stroke-miterlimit: 2;"><path d="M194.221872236882,213.44954833273673L195.80591758478926,215.72233681452929A80.1099721766706,80.1099721766706 0,0,0 215.72233681452929,195.80591758478928L213.44954833273673,194.22187223688204A77.3396351669919,77.3396351669919 0,0,1 194.221872236882,213.44954833273673Z" style="opacity: 1; stroke-width: 0.5px; fill: rgb(27, 207, 212); fill-opacity: 1; stroke: rgb(229, 236, 246); stroke-opacity: 1;"/></g><g class="point" style="vector-effect: none; stroke-miterlimit: 2;"><path d="M159.9507741369112,195.35306369632644L160.28456419777976,196.8743927591195A47.9893837976114,47.9893837976114 0,0,0 175.87291589817653,190.41748606977347L175.0331990169922,189.10571875752348A46.431867209566995,46.431867209566995 0,0,1 159.9507741369112,195.35306369632644Z" style="opacity: 1; stroke-width: 0.5px; fill: rgb(27, 207, 212); fill-opacity: 1; stroke: rgb(229, 236, 246); stroke-opacity: 1;"/></g><g class="point" style="vector-effect: none; stroke-miterlimit: 2;"><path d="M137.70792301377233,218.83335168848532L136.81244394626864,223.8478684094772A75.01612695476732,75.01612695476732 0,0,0 163.18755605373133,223.8478684094772L162.29207698622764,218.83335168848532A69.92228157966566,69.92228157966566 0,0,1 137.70792301377233,218.83335168848532Z" style="opacity: 1; stroke-width: 0.5px; fill: rgb(27, 207, 212); fill-opacity: 1; stroke: rgb(229, 236, 246); stroke-opacity: 1;"/></g><g class="point" style="vector-effect: none; stroke-miterlimit: 2;"><path d="M107.54611743637787,216.3195139610811L103.47142568505721,222.68481108281873A86.30173804696057,86.30173804696057 0,0,0 131.504747611114,234.29659322296249L133.12445020155818,226.91440629531087A78.74395263612215,78.74395263612215 0,0,1 107.54611743637787,216.3195139610811Z" style="opacity: 1; stroke-width: 0.5px; fill: rgb(27, 207, 212); fill-opacity: 1; stroke: rgb(229, 236, 246); stroke-opacity: 1;"/></g><g class="point" style="vector-effect: none; stroke-miterlimit: 2;"><path d="M67.78161809434455,207.30302067854365L51.14941664049327,218.8950194718717A120.49050393514159,120.49050393514159 0,0,0 81.10498052812828,248.85058335950674L92.69697932145635,232.21838190565543A100.21725650839684,100.21725650839684 0,0,1 67.78161809434455,207.30302067854365Z" style="opacity: 1; stroke-width: 0.5px; fill: rgb(27, 207, 212); fill-opacity: 1; stroke: rgb(229, 236, 246); stroke-opacity: 1;"/></g><g class="point" style="vector-effect: none; stroke-miterlimit: 2;"><path d="M49.018665480725744,172.15599939561682L28.393433760563937,176.68131710608083A124.49919531893205,124.49919531893205 0,0,0 45.144632118585434,217.12228736801814L62.928756171548386,205.7379289952405A103.38335567446117,103.38335567446117 0,0,1 49.018665480725744,172.15599939561682Z" style="opacity: 1; stroke-width: 0.5px; fill: rgb(27, 207, 212); fill-opacity: 1; stroke: rgb(229, 236, 246); stroke-opacity: 1;"/></g><g class="point" style="vector-effect: none; stroke-miterlimit: 2;"><path d="M41.452683649787744,130.61590876376846L9.719214047190405,124.94903010935461A142.5,142.5 0,0,0 9.719214047190434,175.05096989064555L41.45268364978776,169.38409123623165A110.26451323924486,110.26451323924486 0,0,1 41.452683649787744,130.61590876376846Z" style="opacity: 1; stroke-width: 0.5px; fill: rgb(27, 207, 212); fill-opacity: 1; stroke: rgb(229, 236, 246); stroke-opacity: 1;"/></g><g class="point" style="vector-effect: none; stroke-miterlimit: 2;"><path d="M88.63724548351897,110.71914556623824L77.58399283410638,103.64349826581346A85.98257583302791,85.98257583302791 0,0,0 66.01515353821375,131.57314699487227L78.8342216281962,134.38573871002544A72.85858334401168,72.85858334401168 0,0,1 88.63724548351897,110.71914556623824Z" style="opacity: 1; stroke-width: 0.5px; fill: rgb(27, 207, 212); fill-opacity: 1; stroke: rgb(229, 236, 246); stroke-opacity: 1;"/></g><g class="point" style="vector-effect: none; stroke-miterlimit: 2;"><path d="M122.50914967211678,110.55612419023079L118.07820282405328,104.19860104670559A55.82803311080482,55.82803311080482 0,0,0 104.19860104670555,118.07820282405334L110.55612419023075,122.50914967211682A48.07874988647868,48.07874988647868 0,0,1 122.50914967211678,110.55612419023079Z" style="opacity: 1; stroke-width: 0.5px; fill: rgb(27, 207, 212); fill-opacity: 1; stroke: rgb(229, 236, 246); stroke-opacity: 1;"/></g><g class="point" style="vector-effect: none; stroke-miterlimit: 2;"><path d="M142.98493667146963,118.02714948654665L142.21065314225893,114.49816473258164A36.34630974150072,36.34630974150072 0,0,0 130.40431152196354,119.38851155371796L132.35217943813018,122.43138173801648A32.73338179074881,32.73338179074881 0,0,1 142.98493667146963,118.02714948654665Z" style="opacity: 1; stroke-width: 0.5px; fill: rgb(27, 207, 212); fill-opacity: 1; stroke: rgb(229, 236, 246); stroke-opacity: 1;"/></g></g></g></g><g class="scatterlayer"/></g><g class="polarsublayer angular-line"><path d="M150,0A150,150 0,1,0 -150,-1.8369701987210297e-14A150,150 0,1,0 150,3.6739403974420595e-14Z" transform="translate(212.5,200)" stroke-width="1" style="fill: none; stroke: rgb(255, 255, 255); stroke-opacity: 1;"/></g><g class="polarsublayer radial-line"><line x1="0" y1="0" x2="150" y2="0" transform="translate(212.5,200)" stroke-width="1" style="fill: none; stroke: rgb(255, 255, 255); stroke-opacity: 1;"/></g><g class="polarsublayer angular-axis"><g class="angularaxistick"><text text-anchor="middle" x="1.7757378587636624e-16" y="-5.300000000000001" transform="translate(212.5,50)" style="font-family: 'Open Sans', verdana, arial, sans-serif; font-size: 12px; fill: rgb(42, 63, 95); fill-opacity: 1; white-space: pre; opacity: 1;">0°</text></g><g class="angularaxistick"><text text-anchor="start" x="2.050609665440988" y="-0.7778174593052025" transform="translate(318.56601717798213,93.93398282201788)" style="font-family: 'Open Sans', verdana, arial, sans-serif; font-size: 12px; fill: rgb(42, 63, 95); fill-opacity: 1; white-space: pre; opacity: 1;">45°</text></g><g class="angularaxistick"><text text-anchor="start" x="2.9000000000000004" y="4.199999999999999" transform="translate(362.5,200)" style="font-family: 'Open Sans', verdana, arial, sans-serif; font-size: 12px; fill: rgb(42, 63, 95); fill-opacity: 1; white-space: pre; opacity: 1;">90°</text></g><g class="angularaxistick"><text text-anchor="start" x="2.050609665440988" y="13.505739520663056" transform="translate(318.56601717798213,306.06601717798213)" style="font-family: 'Open Sans', verdana, arial, sans-serif; font-size: 12px; fill: rgb(42, 63, 95); fill-opacity: 1; white-space: pre; opacity: 1;">135°</text></g><g class="angularaxistick"><text text-anchor="middle" x="1.7757378587636624e-16" y="14.9" transform="translate(212.5,350)" style="font-family: 'Open Sans', verdana, arial, sans-serif; font-size: 12px; fill: rgb(42, 63, 95); fill-opacity: 1; white-space: pre; opacity: 1;">180°</text></g><g class="angularaxistick"><text text-anchor="end" x="-2.0506096654409878" y="13.505739520663058" transform="translate(106.43398282201788,306.06601717798213)" style="font-family: 'Open Sans', verdana, arial, sans-serif; font-size: 12px; fill: rgb(42, 63, 95); fill-opacity: 1; white-space: pre; opacity: 1;">225°</text></g><g class="angularaxistick"><text text-anchor="end" x="-2.9000000000000004" y="4.200000000000001" transform="translate(62.5,200.00000000000003)" style="font-family: 'Open Sans', verdana, arial, sans-serif; font-size: 12px; fill: rgb(42, 63, 95); fill-opacity: 1; white-space: pre; opacity: 1;">270°</text></g><g class="angularaxistick"><text text-anchor="end" x="-2.0506096654409887" y="-0.7778174593052021" transform="translate(106.43398282201785,93.93398282201788)" style="font-family: 'Open Sans', verdana, arial, sans-serif; font-size: 12px; fill: rgb(42, 63, 95); fill-opacity: 1; white-space: pre; opacity: 1;">315°</text></g></g><g class="polarsublayer radial-axis" transform="translate(212.5,200)"><g class="xtick"><text text-anchor="middle" x="0" y="14.9" transform="" style="font-family: 'Open Sans', verdana, arial, sans-serif; font-size: 12px; fill: rgb(42, 63, 95); fill-opacity: 1; white-space: pre; opacity: 1;">0</text></g><g class="xtick"><text text-anchor="middle" x="0" y="14.9" transform="translate(25.53,0)" style="font-family: 'Open Sans', verdana, arial, sans-serif; font-size: 12px; fill: rgb(42, 63, 95); fill-opacity: 1; white-space: pre; opacity: 1;">2</text></g><g class="xtick"><text text-anchor="middle" x="0" y="14.9" transform="translate(51.07,0)" style="font-family: 'Open Sans', verdana, arial, sans-serif; font-size: 12px; fill: rgb(42, 63, 95); fill-opacity: 1; white-space: pre; opacity: 1;">4</text></g><g class="xtick"><text text-anchor="middle" x="0" y="14.9" transform="translate(76.6,0)" style="font-family: 'Open Sans', verdana, arial, sans-serif; font-size: 12px; fill: rgb(42, 63, 95); fill-opacity: 1; white-space: pre; opacity: 1;">6</text></g><g class="xtick"><text text-anchor="middle" x="0" y="14.9" transform="translate(102.13,0)" style="font-family: 'Open Sans', verdana, arial, sans-serif; font-size: 12px; fill: rgb(42, 63, 95); fill-opacity: 1; white-space: pre; opacity: 1;">8</text></g><g class="xtick"><text text-anchor="middle" x="0" y="14.9" transform="translate(127.67,0)" style="font-family: 'Open Sans', verdana, arial, sans-serif; font-size: 12px; fill: rgb(42, 63, 95); fill-opacity: 1; white-space: pre; opacity: 1;">10</text></g></g></g></g><g class="smithlayer"/><g class="ternarylayer"/><g class="geolayer"/><g class="funnelarealayer"/><g class="pielayer"/><g class="iciclelayer"/><g class="treemaplayer"/><g class="sunburstlayer"/><g class="glimages"/><defs id="topdefs-7f19ed"><g class="clips"/><clipPath id="legend7f19ed"><rect width="106" height="124" x="0" y="0"/></clipPath></defs><g class="layer-above"><g class="imagelayer"/><g class="shapelayer"/></g><g class="infolayer"><g class="legend" pointer-events="all" transform="translate(381.5,50)"><rect class="bg" shape-rendering="crispEdges" width="106" height="124" x="0" y="0" style="stroke: rgb(68, 68, 68); stroke-opacity: 1; fill: rgb(255, 255, 255); fill-opacity: 1; stroke-width: 0px;"/><g class="scrollbox" transform="" clip-path="url(#legend7f19ed)"><text class="legendtitletext" text-anchor="start" x="2" y="18.2" style="font-family: 'Open Sans', verdana, arial, sans-serif; font-size: 14px; fill: rgb(42, 63, 95); fill-opacity: 1; white-space: pre;">AMB_WS [m/s]</text><g class="groups" transform=""><g class="traces" transform="translate(0,32.7)" style="opacity: 1;"><text class="legendtext" text-anchor="start" x="40" y="4.680000000000001" style="font-family: 'Open Sans', verdana, arial, sans-serif; font-size: 12px; fill: rgb(42, 63, 95); fill-opacity: 1; white-space: pre;">[0.0, 3.5)</text><g class="layers" style="opacity: 1;"><g class="legendfill"/><g class="legendlines"/><g class="legendsymbols"><g class="legendpoints"><path class="legendundefined" d="M6,6H-6V-6H6Z" transform="translate(20,0)" style="stroke-width: 0.5px; fill: rgb(48, 18, 59); fill-opacity: 1; stroke: rgb(229, 236, 246); stroke-opacity: 1;"/></g></g></g><rect class="legendtoggle" x="0" y="-9.5" width="100.71875" height="19" style="fill: rgb(0, 0, 0); fill-opacity: 0;"/></g></g><g class="groups" transform=""><g class="traces" transform="translate(0,51.7)" style="opacity: 1;"><text class="legendtext" text-anchor="start" x="40" y="4.680000000000001" style="font-family: 'Open Sans', verdana, arial, sans-serif; font-size: 12px; fill: rgb(42, 63, 95); fill-opacity: 1; white-space: pre;">[3.5, 6.0)</text><g class="layers" style="opacity: 1;"><g class="legendfill"/><g class="legendlines"/><g class="legendsymbols"><g class="legendpoints"><path class="legendundefined" d="M6,6H-6V-6H6Z" transform="translate(20,0)" style="stroke-width: 0.5px; fill: rgb(65, 69, 171); fill-opacity: 1; stroke: rgb(229, 236, 246); stroke-opacity: 1;"/></g></g></g><rect class="legendtoggle" x="0" y="-9.5" width="100.71875" height="19" style="fill: rgb(0, 0, 0); fill-opacity: 0;"/></g></g><g class="groups" transform=""><g class="traces" transform="translate(0,70.7)" style="opacity: 1;"><text class="legendtext" text-anchor="start" x="40" y="4.680000000000001" style="font-family: 'Open Sans', verdana, arial, sans-serif; font-size: 12px; fill: rgb(42, 63, 95); fill-opacity: 1; white-space: pre;">[6.0, 10.0)</text><g class="layers" style="opacity: 1;"><g class="legendfill"/><g class="legendlines"/><g class="legendsymbols"><g class="legendpoints"><path class="legendundefined" d="M6,6H-6V-6H6Z" transform="translate(20,0)" style="stroke-width: 0.5px; fill: rgb(70, 117, 237); fill-opacity: 1; stroke: rgb(229, 236, 246); stroke-opacity: 1;"/></g></g></g><rect class="legendtoggle" x="0" y="-9.5" width="100.71875" height="19" style="fill: rgb(0, 0, 0); fill-opacity: 0;"/></g></g><g class="groups" transform=""><g class="traces" transform="translate(0,89.7)" style="opacity: 1;"><text class="legendtext" text-anchor="start" x="40" y="4.680000000000001" style="font-family: 'Open Sans', verdana, arial, sans-serif; font-size: 12px; fill: rgb(42, 63, 95); fill-opacity: 1; white-space: pre;">[10.0, 15.0)</text><g class="layers" style="opacity: 1;"><g class="legendfill"/><g class="legendlines"/><g class="legendsymbols"><g class="legendpoints"><path class="legendundefined" d="M6,6H-6V-6H6Z" transform="translate(20,0)" style="stroke-width: 0.5px; fill: rgb(57, 162, 252); fill-opacity: 1; stroke: rgb(229, 236, 246); stroke-opacity: 1;"/></g></g></g><rect class="legendtoggle" x="0" y="-9.5" width="100.71875" height="19" style="fill: rgb(0, 0, 0); fill-opacity: 0;"/></g></g><g class="groups" transform=""><g class="traces" transform="translate(0,108.7)" style="opacity: 1;"><text class="legendtext" text-anchor="start" x="40" y="4.680000000000001" style="font-family: 'Open Sans', verdana, arial, sans-serif; font-size: 12px; fill: rgb(42, 63, 95); fill-opacity: 1; white-space: pre;">[15.0, 20.0)</text><g class="layers" style="opacity: 1;"><g class="legendfill"/><g class="legendlines"/><g class="legendsymbols"><g class="legendpoints"><path class="legendundefined" d="M6,6H-6V-6H6Z" transform="translate(20,0)" style="stroke-width: 0.5px; fill: rgb(27, 207, 212); fill-opacity: 1; stroke: rgb(229, 236, 246); stroke-opacity: 1;"/></g></g></g><rect class="legendtoggle" x="0" y="-9.5" width="100.71875" height="19" style="fill: rgb(0, 0, 0); fill-opacity: 0;"/></g></g></g><rect class="scrollbar" rx="20" ry="3" width="0" height="0" x="0" y="0" style="fill: rgb(128, 139, 164); fill-opacity: 1;"/></g><g class="g-gtitle"><text class="gtitle" x="250" y="12" text-anchor="middle" dy="0.7em" style="font-family: 'Open Sans', verdana, arial, sans-serif; font-size: 17px; fill: rgb(42, 63, 95); opacity: 1; font-weight: normal; white-space: pre;">Ambient wind speed</text></g><g class="g-polartitle"/></g></svg>