<svg class="main-svg" xmlns="http://www.w3.org/2000/svg" xmlns:xlink="http://www.w3.org/1999/xlink" width="500" height="400" style="" viewBox="0 0 500 400"><rect x="0" y="0" width="500" height="400" style="fill: rgb(255, 255, 255); fill-opacity: 1;"/><defs id="defs-6ff379"><g class="clips"><clipPath id="clip6ff379polar-for-traces"><path d="M150,0A150,150 0,1,0 -150,-1.8369701987210297e-14A150,150 0,1,0 150,3.6739403974420595e-14Z" transform="translate(150,150)"/></clipPath></g><g class="gradients"/><g class="patterns"/></defs><g class="bglayer"/><g class="layer-below"><g class="imagelayer"/><g class="shapelayer"/></g><g class="cartesianlayer"/><g class="polarlayer"><g class="polar"><g class="polarsublayer draglayer"/><g class="polarsublayer plotbg"><path d="M150,0A150,150 0,1,0 -150,-1.8369701987210297e-14A150,150 0,1,0 150,3.6739403974420595e-14Z" transform="translate(208,200)" style="fill: rgb(229, 236, 246); fill-opacity: 1;"/></g><g class="polarsublayer backplot"><g class="maplayer"/></g><g class="polarsublayer angular-grid" style="fill: none;"><path class="angularaxisgrid" d="M208,200L208,50" style="stroke: rgb(255, 255, 255); stroke-opacity: 1; stroke-width: 1px;"/><path class="angularaxisgrid" d="M208,200L314.06601717798213,93.93398282201788" style="stroke: rgb(255, 255, 255); stroke-opacity: 1; stroke-width: 1px;"/><path class="angularaxisgrid" d="M208,200L358,200" style="stroke: rgb(255, 255, 255); stroke-opacity: 1; stroke-width: 1px;"/><path class="angularaxisgrid" d="M208,200L314.06601717798213,306.06601717798213" style="stroke: rgb(255, 255, 255); stroke-opacity: 1; stroke-width: 1px;"/><path class="angularaxisgrid" d="M208,200L208,350" style="stroke: rgb(255, 255, 255); stroke-opacity: 1; stroke-width: 1px;"/><path class="angularaxisgrid" d="M208,200L101.93398282201788,306.06601717798213" style="stroke: rgb(255, 255, 255); stroke-opacity: 1; stroke-width: 1px;"/><path class="angularaxisgrid" d="M208,200L58,200.00000000000003" style="stroke: rgb(255, 255, 255); stroke-opacity: 1; stroke-width: 1px;"/><path class="angularaxisgrid" d="M208,200L101.93398282201785,93.93398282201788" style="stroke: rgb(255, 255, 255); stroke-opacity: 1; stroke-width: 1px;"/></g><g class="polarsublayer radial-grid" transform="translate(208,200)" style="fill: none;"><path class="xgrid" d="M23.43,0A23.43,23.43 0,1,0 -23.43,-2.8693474504022485e-15A23.43,23.43 0,1,0 23.43,5.738694900804497e-15Z" style="stroke: rgb(255, 255, 255); stroke-opacity: 1; stroke-width: 1px;"/><path class="xgrid" d="M46.86,0A46.86,46.86 0,1,0 -46.86,-5.738694900804497e-15A46.86,46.86 0,1,0 46.86,1.1477389801608994e-14Z" style="stroke: rgb(255, 255, 255); stroke-opacity: 1; stroke-width: 1px;"/><path class="xgrid" d="M70.29,0A70.29,70.29 0,1,0 -70.29,-8.608042351206747e-15A70.29,70.29 0,1,0 70.29,1.7216084702413494e-14Z" style="stroke: rgb(255, 255, 255); stroke-opacity: 1; stroke-width: 1px;"/><path class="xgrid" d="M93.72,0A93.72,93.72 0,1,0 -93.72,-1.1477389801608994e-14A93.72,93.72 0,1,0 93.72,2.2954779603217988e-14Z" style="stroke: rgb(255, 255, 255); stroke-opacity: 1; stroke-width: 1px;"/><path class="xgrid" d="M117.15,0A117.15,117.15 0,1,0 -117.15,-1.4346737252011244e-14A117.15,117.15 0,1,0 117.15,2.869347450402249e-14Z" style="stroke: rgb(255, 255, 255); stroke-opacity: 1; stroke-width: 1px;"/><path class="xgrid" d="M140.58,0A140.58,140.58 0,1,0 -140.58,-1.7216084702413494e-14A140.58,140.58 0,1,0 140.58,3.443216940482699e-14Z" style="stroke: rgb(255, 255, 255); stroke-opacity: 1; stroke-width: 1px;"/></g><g class="polarsublayer frontplot" transform="translate(58,50)" clip-path="url(#clip6ff379polar-for-traces)"><g class="barlayer"><g class="trace bars" style="opacity: 1;"><g class="points"><g class="point" style="vector-effect: none; stroke-miterlimit: 2;"><path d="M150,150L150.6920157428355,146.12484016704946A3.93646408839779,3.93646408839779 0,0,0 149.3079842571645,146.12484016704946L150,150A0,0 0,0,1 150,150Z" style="opacity: 1; stroke-width: 0.5px; fill: rgb(48, 18, 59); fill-opacity: 1; stroke: rgb(229, 236, 246); stroke-opacity: 1;"/></g><g class="point" style="vector-effect: none; stroke-miterlimit: 2;"><path d="M150,150L151.41486576454545,147.78976140323073A2.6243093922651934,2.6243093922651934 0,0,0 150.562413523237,147.43666412360545L150,150A0,0 0,0,1 150,150Z" style="opacity: 1; stroke-width: 0.5px; fill: rgb(48, 18, 59); fill-opacity: 1; stroke: rgb(229, 236, 246); stroke-opacity: 1;"/></g><g class="point" style="vector-effect: none; stroke-miterlimit: 2;"><path d="M150,150L152.36828593503913,148.34939663414957A2.8867403314917124,2.8867403314917124 0,0,0 151.65060336585043,147.63171406496087L150,150A0,0 0,0,1 150,150Z" style="opacity: 1; stroke-width: 0.5px; fill: rgb(48, 18, 59); fill-opacity: 1; stroke: rgb(229, 236, 246); stroke-opacity: 1;"/></g><g class="point" style="vector-effect: none; stroke-miterlimit: 2;"><path d="M150,150L153.07600305167347,149.3251037721156A3.1491712707182318,3.1491712707182318 0,0,0 152.6522863161231,148.30216108254547L150,150A0,0 0,0,1 150,150Z" style="opacity: 1; stroke-width: 0.5px; fill: rgb(48, 18, 59); fill-opacity: 1; stroke: rgb(229, 236, 246); stroke-opacity: 1;"/></g><g class="point" style="vector-effect: none; stroke-miterlimit: 2;"><path d="M0,0Z" style="opacity: 1; stroke-width: 0.5px; fill: rgb(48, 18, 59); fill-opacity: 1; stroke: rgb(229, 236, 246); stroke-opacity: 1;"/></g><g class="point" style="vector-effect: none; stroke-miterlimit: 2;"><path d="M0,0Z" style="opacity: 1; stroke-width: 0.5px; fill: rgb(48, 18, 59); fill-opacity: 1; stroke: rgb(229, 236, 246); stroke-opacity: 1;"/></g><g class="point" style="vector-effect: none; stroke-miterlimit: 2;"><path d="M0,0Z" style="opacity: 1; stroke-width: 0.5px; fill: rgb(48, 18, 59); fill-opacity: 1; stroke: rgb(229, 236, 246); stroke-opacity: 1;"/></g><g class="point" style="vector-effect: none; stroke-miterlimit: 2;"><path d="M150,150L150.16872405697112,150.76900076291835A0.7872928176795579,0.7872928176795579 0,0,0 150.42445972936363,150.66307157903077L150,150A0,0 0,0,1 150,150Z" style="opacity: 1; stroke-width: 0.5px; fill: rgb(48, 18, 59); fill-opacity: 1; stroke: rgb(229, 236, 246); stroke-opacity: 1;"/></g><g class="point" style="vector-effect: none; stroke-miterlimit: 2;"><path d="M150,150L149.9538656171443,150.25834398886337A0.26243093922651933,0.26243093922651933 0,0,0 150.0461343828557,150.25834398886337L150,150A0,0 0,0,1 150,150Z" style="opacity: 1; stroke-width: 0.5px; fill: rgb(48, 18, 59); fill-opacity: 1; stroke: rgb(229, 236, 246); stroke-opacity: 1;"/></g><g class="point" style="vector-effect: none; stroke-miterlimit: 2;"><path d="M150,150L149.85851342354545,150.22102385967693A0.26243093922651933,0.26243093922651933 0,0,0 149.9437586476763,150.25633358763946L150,150A0,0 0,0,1 150,150Z" style="opacity: 1; stroke-width: 0.5px; fill: rgb(48, 18, 59); fill-opacity: 1; stroke: rgb(229, 236, 246); stroke-opacity: 1;"/></g><g class="point" style="vector-effect: none; stroke-miterlimit: 2;"><path d="M150,150L148.27761022906245,151.2004388115276A2.0994475138121547,2.0994475138121547 0,0,0 148.7995611884724,151.72238977093755L150,150A0,0 0,0,1 150,150Z" style="opacity: 1; stroke-width: 0.5px; fill: rgb(48, 18, 59); fill-opacity: 1; stroke: rgb(229, 236, 246); stroke-opacity: 1;"/></g><g class="point" style="vector-effect: none; stroke-miterlimit: 2;"><path d="M150,150L146.66766336068707,150.73113758020813A3.411602209944751,3.411602209944751 0,0,0 147.12668982419996,151.8393254939091L150,150A0,0 0,0,1 150,150Z" style="opacity: 1; stroke-width: 0.5px; fill: rgb(48, 18, 59); fill-opacity: 1; stroke: rgb(229, 236, 246); stroke-opacity: 1;"/></g><g class="point" style="vector-effect: none; stroke-miterlimit: 2;"><path d="M150,150L143.2830562895524,148.80050604575177A6.823204419889502,6.823204419889502 0,0,0 143.2830562895524,151.19949395424823L150,150A0,0 0,0,1 150,150Z" style="opacity: 1; stroke-width: 0.5px; fill: rgb(48, 18, 59); fill-opacity: 1; stroke: rgb(229, 236, 246); stroke-opacity: 1;"/></g><g class="point" style="vector-effect: none; stroke-miterlimit: 2;"><path d="M150,150L146.02157052581532,147.4532416238182A4.723756906077348,4.723756906077348 0,0,0 145.3859954224898,148.98765565817337L150,150A0,0 0,0,1 150,150Z" style="opacity: 1; stroke-width: 0.5px; fill: rgb(48, 18, 59); fill-opacity: 1; stroke: rgb(229, 236, 246); stroke-opacity: 1;"/></g><g class="point" style="vector-effect: none; stroke-miterlimit: 2;"><path d="M150,150L148.19934178270861,147.41641534359368A3.1491712707182318,3.1491712707182318 0,0,0 147.41641534359368,148.19934178270861L150,150A0,0 0,0,1 150,150Z" style="opacity: 1; stroke-width: 0.5px; fill: rgb(48, 18, 59); fill-opacity: 1; stroke: rgb(229, 236, 246); stroke-opacity: 1;"/></g><g class="point" style="vector-effect: none; stroke-miterlimit: 2;"><path d="M150,150L149.49382782908668,147.6929977112449A2.361878453038674,2.361878453038674 0,0,0 148.7266208119091,148.01078526290766L150,150A0,0 0,0,1 150,150Z" style="opacity: 1; stroke-width: 0.5px; fill: rgb(48, 18, 59); fill-opacity: 1; stroke: rgb(229, 236, 246); stroke-opacity: 1;"/></g></g></g><g class="trace bars" style="opacity: 1;"><g class="points"><g class="point" style="vector-effect: none; stroke-miterlimit: 2;"><path d="M150.6920157428355,146.12484016704946L151.56856901709384,141.21630437864545A8.922651933701657,8.922651933701657 0,0,0 148.43143098290616,141.21630437864545L149.3079842571645,146.12484016704946A3.93646408839779,3.93646408839779 0,0,1 150.6920157428355,146.12484016704946Z" style="opacity: 1; stroke-width: 0.5px; fill: rgb(65, 69, 171); fill-opacity: 1; stroke: rgb(229, 236, 246); stroke-opacity: 1;"/></g><g class="point" style="vector-effect: none; stroke-miterlimit: 2;"><path d="M151.41486576454545,147.78976140323073L156.64986909336358,139.61187859518446A12.334254143646408,12.334254143646408 0,0,0 152.64334355921395,137.9523213809456L150.562413523237,147.43666412360545A2.6243093922651934,2.6243093922651934 0,0,1 151.41486576454545,147.78976140323073Z" style="opacity: 1; stroke-width: 0.5px; fill: rgb(65, 69, 171); fill-opacity: 1; stroke: rgb(229, 236, 246); stroke-opacity: 1;"/></g><g class="point" style="vector-effect: none; stroke-miterlimit: 2;"><path d="M152.36828593503913,148.34939663414957L168.94628748031298,136.79517307319657A23.0939226519337,23.0939226519337 0,0,0 163.20482692680343,131.05371251968705L151.65060336585043,147.63171406496087A2.8867403314917124,2.8867403314917124 0,0,1 152.36828593503913,148.34939663414957Z" style="opacity: 1; stroke-width: 0.5px; fill: rgb(65, 69, 171); fill-opacity: 1; stroke: rgb(229, 236, 246); stroke-opacity: 1;"/></g><g class="point" style="vector-effect: none; stroke-miterlimit: 2;"><path d="M153.07600305167347,149.3251037721156L161.0223442684966,147.58162185008084A11.28453038674033,11.28453038674033 0,0,0 159.50402596610783,143.9160772124546L152.6522863161231,148.30216108254547A3.1491712707182318,3.1491712707182318 0,0,1 153.07600305167347,149.3251037721156Z" style="opacity: 1; stroke-width: 0.5px; fill: rgb(65, 69, 171); fill-opacity: 1; stroke: rgb(229, 236, 246); stroke-opacity: 1;"/></g><g class="point" style="vector-effect: none; stroke-miterlimit: 2;"><path d="M150,150L151.5500639331802,150.27680629713421A1.5745856353591159,1.5745856353591159 0,0,0 151.5500639331802,149.72319370286579L150,150A0,0 0,0,1 150,150Z" style="opacity: 1; stroke-width: 0.5px; fill: rgb(65, 69, 171); fill-opacity: 1; stroke: rgb(229, 236, 246); stroke-opacity: 1;"/></g><g class="point" style="vector-effect: none; stroke-miterlimit: 2;"><path d="M0,0Z" style="opacity: 1; stroke-width: 0.5px; fill: rgb(65, 69, 171); fill-opacity: 1; stroke: rgb(229, 236, 246); stroke-opacity: 1;"/></g><g class="point" style="vector-effect: none; stroke-miterlimit: 2;"><path d="M150,150L157.5027425720474,160.76493606835965A13.121546961325967,13.121546961325967 0,0,0 160.76493606835965,157.5027425720474L150,150A0,0 0,0,1 150,150Z" style="opacity: 1; stroke-width: 0.5px; fill: rgb(65, 69, 171); fill-opacity: 1; stroke: rgb(229, 236, 246); stroke-opacity: 1;"/></g><g class="point" style="vector-effect: none; stroke-miterlimit: 2;"><path d="M150.16872405697112,150.76900076291835L152.53086085456655,161.5350114437755A11.80939226519337,11.80939226519337 0,0,0 156.3668959404545,159.94607368546167L150.42445972936363,150.66307157903077A0.7872928176795579,0.7872928176795579 0,0,1 150.16872405697112,150.76900076291835Z" style="opacity: 1; stroke-width: 0.5px; fill: rgb(65, 69, 171); fill-opacity: 1; stroke: rgb(229, 236, 246); stroke-opacity: 1;"/></g><g class="point" style="vector-effect: none; stroke-miterlimit: 2;"><path d="M149.9538656171443,150.25834398886337L147.37034017722505,164.72560736521206A14.958563535911601,14.958563535911601 0,0,0 152.62965982277493,164.72560736521206L150.0461343828557,150.25834398886337A0.26243093922651933,0.26243093922651933 0,0,1 149.9538656171443,150.25834398886337Z" style="opacity: 1; stroke-width: 0.5px; fill: rgb(65, 69, 171); fill-opacity: 1; stroke: rgb(229, 236, 246); stroke-opacity: 1;"/></g><g class="point" style="vector-effect: none; stroke-miterlimit: 2;"><path d="M149.85851342354545,150.22102385967693L145.33094297700003,157.29378736933856A8.660220994475138,8.660220994475138 0,0,0 148.14403537331785,158.45900839210202L149.9437586476763,150.25633358763946A0.26243093922651933,0.26243093922651933 0,0,1 149.85851342354545,150.22102385967693Z" style="opacity: 1; stroke-width: 0.5px; fill: rgb(65, 69, 171); fill-opacity: 1; stroke: rgb(229, 236, 246); stroke-opacity: 1;"/></g><g class="point" style="vector-effect: none; stroke-miterlimit: 2;"><path d="M148.27761022906245,151.2004388115276L146.9858179008593,152.10076792017327A3.674033149171271,3.674033149171271 0,0,0 147.89923207982673,153.0141820991407L148.7995611884724,151.72238977093755A2.0994475138121547,2.0994475138121547 0,0,1 148.27761022906245,151.2004388115276Z" style="opacity: 1; stroke-width: 0.5px; fill: rgb(65, 69, 171); fill-opacity: 1; stroke: rgb(229, 236, 246); stroke-opacity: 1;"/></g><g class="point" style="vector-effect: none; stroke-miterlimit: 2;"><path d="M146.66766336068707,150.73113758020813L141.79732519553744,151.79972327435846A8.397790055248619,8.397790055248619 0,0,0 142.92723649033837,154.5275704465454L147.12668982419996,151.8393254939091A3.411602209944751,3.411602209944751 0,0,1 146.66766336068707,150.73113758020813Z" style="opacity: 1; stroke-width: 0.5px; fill: rgb(65, 69, 171); fill-opacity: 1; stroke: rgb(229, 236, 246); stroke-opacity: 1;"/></g><g class="point" style="vector-effect: none; stroke-miterlimit: 2;"><path d="M143.2830562895524,148.80050604575177L118.7403773475323,144.41773967446022A31.754143646408835,31.754143646408835 0,0,0 118.74037734753232,155.5822603255398L143.2830562895524,151.19949395424823A6.823204419889502,6.823204419889502 0,0,1 143.2830562895524,148.80050604575177Z" style="opacity: 1; stroke-width: 0.5px; fill: rgb(65, 69, 171); fill-opacity: 1; stroke: rgb(229, 236, 246); stroke-opacity: 1;"/></g><g class="point" style="vector-effect: none; stroke-miterlimit: 2;"><path d="M146.02157052581532,147.4532416238182L124.36123227747657,133.5875571312729A30.441988950276244,30.441988950276244 0,0,0 120.26530383382317,143.47600313045066L145.3859954224898,148.98765565817337A4.723756906077348,4.723756906077348 0,0,1 146.02157052581532,147.4532416238182Z" style="opacity: 1; stroke-width: 0.5px; fill: rgb(65, 69, 171); fill-opacity: 1; stroke: rgb(229, 236, 246); stroke-opacity: 1;"/></g><g class="point" style="vector-effect: none; stroke-miterlimit: 2;"><path d="M148.19934178270861,147.41641534359368L141.44687346786594,137.72797288207002A14.958563535911601,14.958563535911601 0,0,0 137.72797288207002,141.44687346786597L147.41641534359368,148.19934178270861A3.1491712707182318,3.1491712707182318 0,0,1 148.19934178270861,147.41641534359368Z" style="opacity: 1; stroke-width: 0.5px; fill: rgb(65, 69, 171); fill-opacity: 1; stroke: rgb(229, 236, 246); stroke-opacity: 1;"/></g><g class="point" style="vector-effect: none; stroke-miterlimit: 2;"><path d="M149.49382782908668,147.6929977112449L147.63786320240453,139.23398931914286A11.022099447513813,11.022099447513813 0,0,0 144.05756378890914,140.7169978935691L148.7266208119091,148.01078526290766A2.361878453038674,2.361878453038674 0,0,1 149.49382782908668,147.6929977112449Z" style="opacity: 1; stroke-width: 0.5px; fill: rgb(65, 69, 171); fill-opacity: 1; stroke: rgb(229, 236, 246); stroke-opacity: 1;"/></g></g></g><g class="trace bars" style="opacity: 1;"><g class="points"><g class="point" style="vector-effect: none; stroke-miterlimit: 2;"><path d="M151.56856901709384,141.21630437864545L154.29049760558016,125.97400903570666A24.406077348066294,24.406077348066294 0,0,0 145.70950239441984,125.97400903570666L148.43143098290616,141.21630437864545A8.922651933701657,8.922651933701657 0,0,1 151.56856901709384,141.21630437864545Z" style="opacity: 1; stroke-width: 0.5px; fill: rgb(70, 117, 237); fill-opacity: 1; stroke: rgb(229, 236, 246); stroke-opacity: 1;"/></g><g class="point" style="vector-effect: none; stroke-miterlimit: 2;"><path d="M156.64986909336358,139.61187859518446L159.19662746954538,135.6334491209998A17.05801104972376,17.05801104972376 0,0,0 153.65568790104058,133.3383168034354L152.64334355921395,137.9523213809456A12.334254143646408,12.334254143646408 0,0,1 156.64986909336358,139.61187859518446Z" style="opacity: 1; stroke-width: 0.5px; fill: rgb(70, 117, 237); fill-opacity: 1; stroke: rgb(229, 236, 246); stroke-opacity: 1;"/></g><g class="point" style="vector-effect: none; stroke-miterlimit: 2;"><path d="M168.94628748031298,136.79517307319657L181.21831459824296,128.24204654106254A38.052486187845304,38.052486187845304 0,0,0 171.75795345893746,118.78168540175704L163.20482692680343,131.05371251968705A23.0939226519337,23.0939226519337 0,0,1 168.94628748031298,136.79517307319657Z" style="opacity: 1; stroke-width: 0.5px; fill: rgb(70, 117, 237); fill-opacity: 1; stroke: rgb(229, 236, 246); stroke-opacity: 1;"/></g><g class="point" style="vector-effect: none; stroke-miterlimit: 2;"><path d="M161.0223442684966,147.58162185008084L189.47537249647615,141.33883174215A40.414364640883974,40.414364640883974 0,0,0 184.0376743902466,128.21106722600018L159.50402596610783,143.9160772124546A11.28453038674033,11.28453038674033 0,0,1 161.0223442684966,147.58162185008084Z" style="opacity: 1; stroke-width: 0.5px; fill: rgb(70, 117, 237); fill-opacity: 1; stroke: rgb(229, 236, 246); stroke-opacity: 1;"/></g><g class="point" style="vector-effect: none; stroke-miterlimit: 2;"><path d="M151.5500639331802,150.27680629713421L156.7169437104476,151.19949395424823A6.823204419889502,6.823204419889502 0,0,0 156.7169437104476,148.80050604575177L151.5500639331802,149.72319370286579A1.5745856353591159,1.5745856353591159 0,0,1 151.5500639331802,150.27680629713421Z" style="opacity: 1; stroke-width: 0.5px; fill: rgb(70, 117, 237); fill-opacity: 1; stroke: rgb(229, 236, 246); stroke-opacity: 1;"/></g><g class="point" style="vector-effect: none; stroke-miterlimit: 2;"><path d="M150,150L159.94607368546167,156.3668959404545A11.80939226519337,11.80939226519337 0,0,0 161.5350114437755,152.53086085456655L150,150A0,0 0,0,1 150,150Z" style="opacity: 1; stroke-width: 0.5px; fill: rgb(70, 117, 237); fill-opacity: 1; stroke: rgb(229, 236, 246); stroke-opacity: 1;"/></g><g class="point" style="vector-effect: none; stroke-miterlimit: 2;"><path d="M157.5027425720474,160.76493606835965L170.55751464740987,179.49592482730543A35.95303867403315,35.95303867403315 0,0,0 179.4959248273054,170.55751464740987L160.76493606835965,157.5027425720474A13.121546961325967,13.121546961325967 0,0,1 157.5027425720474,160.76493606835965Z" style="opacity: 1; stroke-width: 0.5px; fill: rgb(70, 117, 237); fill-opacity: 1; stroke: rgb(229, 236, 246); stroke-opacity: 1;"/></g><g class="point" style="vector-effect: none; stroke-miterlimit: 2;"><path d="M152.53086085456655,161.5350114437755L163.8353726716305,213.05806255930605A64.55801104972376,64.55801104972376 0,0,0 184.80569780781786,204.37186948052383L156.3668959404545,159.94607368546167A11.80939226519337,11.80939226519337 0,0,1 152.53086085456655,161.5350114437755Z" style="opacity: 1; stroke-width: 0.5px; fill: rgb(70, 117, 237); fill-opacity: 1; stroke: rgb(229, 236, 246); stroke-opacity: 1;"/></g><g class="point" style="vector-effect: none; stroke-miterlimit: 2;"><path d="M147.37034017722505,164.72560736521206L136.15968514328978,227.5031966590108A78.7292817679558,78.7292817679558 0,0,0 163.84031485671022,227.50319665901083L152.62965982277493,164.72560736521206A14.958563535911601,14.958563535911601 0,0,1 147.37034017722505,164.72560736521206Z" style="opacity: 1; stroke-width: 0.5px; fill: rgb(70, 117, 237); fill-opacity: 1; stroke: rgb(229, 236, 246); stroke-opacity: 1;"/></g><g class="point" style="vector-effect: none; stroke-miterlimit: 2;"><path d="M145.33094297700003,157.29378736933856L126.79620146145474,186.24791298701587A43.03867403314917,43.03867403314917 0,0,0 140.776418218913,192.0387083728707L148.14403537331785,158.45900839210202A8.660220994475138,8.660220994475138 0,0,1 145.33094297700003,157.29378736933856Z" style="opacity: 1; stroke-width: 0.5px; fill: rgb(70, 117, 237); fill-opacity: 1; stroke: rgb(229, 236, 246); stroke-opacity: 1;"/></g><g class="point" style="vector-effect: none; stroke-miterlimit: 2;"><path d="M146.9858179008593,152.10076792017327L127.60893297781195,165.6057045498586A27.29281767955801,27.29281767955801 0,0,0 134.3942954501414,172.39106702218805L147.89923207982673,153.0141820991407A3.674033149171271,3.674033149171271 0,0,1 146.9858179008593,152.10076792017327Z" style="opacity: 1; stroke-width: 0.5px; fill: rgb(70, 117, 237); fill-opacity: 1; stroke: rgb(229, 236, 246); stroke-opacity: 1;"/></g><g class="point" style="vector-effect: none; stroke-miterlimit: 2;"><path d="M141.79732519553744,151.79972327435846L119.23996948326536,156.74896227884417A31.49171270718232,31.49171270718232 0,0,0 123.47713683876889,166.97838917454533L142.92723649033837,154.5275704465454A8.397790055248619,8.397790055248619 0,0,1 141.79732519553744,151.79972327435846Z" style="opacity: 1; stroke-width: 0.5px; fill: rgb(70, 117, 237); fill-opacity: 1; stroke: rgb(229, 236, 246); stroke-opacity: 1;"/></g><g class="point" style="vector-effect: none; stroke-miterlimit: 2;"><path d="M118.7403773475323,144.41773967446022L105.3064899266371,142.0187517659638A45.40055248618784,45.40055248618784 0,0,0 105.30648992663711,157.98124823403623L118.74037734753232,155.5822603255398A31.754143646408835,31.754143646408835 0,0,1 118.7403773475323,144.41773967446022Z" style="opacity: 1; stroke-width: 0.5px; fill: rgb(70, 117, 237); fill-opacity: 1; stroke: rgb(229, 236, 246); stroke-opacity: 1;"/></g><g class="point" style="vector-effect: none; stroke-miterlimit: 2;"><path d="M124.36123227747657,133.5875571312729L105.132156485584,121.27822497972754A53.273480662983424,53.273480662983424 0,0,0 97.96428170919054,138.58300547828867L120.26530383382317,143.47600313045066A30.441988950276244,30.441988950276244 0,0,1 124.36123227747657,133.5875571312729Z" style="opacity: 1; stroke-width: 0.5px; fill: rgb(70, 117, 237); fill-opacity: 1; stroke: rgb(229, 236, 246); stroke-opacity: 1;"/></g><g class="point" style="vector-effect: none; stroke-miterlimit: 2;"><path d="M141.44687346786594,137.72797288207002L133.1938566386138,125.88654320687442A29.392265193370168,29.392265193370168 0,0,0 125.88654320687439,133.19385663861382L137.72797288207002,141.44687346786597A14.958563535911601,14.958563535911601 0,0,1 141.44687346786594,137.72797288207002Z" style="opacity: 1; stroke-width: 0.5px; fill: rgb(70, 117, 237); fill-opacity: 1; stroke: rgb(229, 236, 246); stroke-opacity: 1;"/></g><g class="point" style="vector-effect: none; stroke-miterlimit: 2;"><path d="M147.63786320240453,139.23398931914286L144.71331288157205,125.9046427618912A24.668508287292816,24.668508287292816 0,0,0 136.70026181327282,129.22375719036896L144.05756378890914,140.7169978935691A11.022099447513813,11.022099447513813 0,0,1 147.63786320240453,139.23398931914286Z" style="opacity: 1; stroke-width: 0.5px; fill: rgb(70, 117, 237); fill-opacity: 1; stroke: rgb(229, 236, 246); stroke-opacity: 1;"/></g></g></g><g class="trace bars" style="opacity: 1;"><g class="points"><g class="point" style="vector-effect: none; stroke-miterlimit: 2;"><path d="M154.29049760558016,125.97400903570666L156.4588135997981,113.83184155912829A36.7403314917127,36.7403314917127 0,0,0 143.5411864002019,113.83184155912829L145.70950239441984,125.97400903570666A24.406077348066294,24.406077348066294 0,0,1 154.29049760558016,125.97400903570666Z" style="opacity: 1; stroke-width: 0.5px; fill: rgb(57, 162, 252); fill-opacity: 1; stroke: rgb(229, 236, 246); stroke-opacity: 1;"/></g><g class="point" style="vector-effect: none; stroke-miterlimit: 2;"><path d="M0,0Z" style="opacity: 1; stroke-width: 0.5px; fill: rgb(57, 162, 252); fill-opacity: 1; stroke: rgb(229, 236, 246); stroke-opacity: 1;"/></g><g class="point" style="vector-effect: none; stroke-miterlimit: 2;"><path d="M181.21831459824296,128.24204654106254L186.60078263242278,124.49067525503884A44.613259668508285,44.613259668508285 0,0,0 175.50932474496116,113.39921736757722L171.75795345893746,118.78168540175704A38.052486187845304,38.052486187845304 0,0,1 181.21831459824296,128.24204654106254Z" style="opacity: 1; stroke-width: 0.5px; fill: rgb(57, 162, 252); fill-opacity: 1; stroke: rgb(229, 236, 246); stroke-opacity: 1;"/></g><g class="point" style="vector-effect: none; stroke-miterlimit: 2;"><path d="M189.47537249647615,141.33883174215L194.08937707398633,140.32648740032337A45.13812154696132,45.13812154696132 0,0,0 188.01610386443127,125.6643088498184L184.0376743902466,128.21106722600018A40.414364640883974,40.414364640883974 0,0,1 189.47537249647615,141.33883174215Z" style="opacity: 1; stroke-width: 0.5px; fill: rgb(57, 162, 252); fill-opacity: 1; stroke: rgb(229, 236, 246); stroke-opacity: 1;"/></g><g class="point" style="vector-effect: none; stroke-miterlimit: 2;"><path d="M156.7169437104476,151.19949395424823L157.7503196659011,151.38403148567102A7.87292817679558,7.87292817679558 0,0,0 157.7503196659011,148.61596851432898L156.7169437104476,148.80050604575177A6.823204419889502,6.823204419889502 0,0,1 156.7169437104476,151.19949395424823Z" style="opacity: 1; stroke-width: 0.5px; fill: rgb(57, 162, 252); fill-opacity: 1; stroke: rgb(229, 236, 246); stroke-opacity: 1;"/></g><g class="point" style="vector-effect: none; stroke-miterlimit: 2;"><path d="M159.94607368546167,156.3668959404545L176.0808154418773,166.69541602163622A30.96685082872928,30.96685082872928 0,0,0 180.24736334145575,156.63647957419673L161.5350114437755,152.53086085456655A11.80939226519337,11.80939226519337 0,0,1 159.94607368546167,156.3668959404545Z" style="opacity: 1; stroke-width: 0.5px; fill: rgb(57, 162, 252); fill-opacity: 1; stroke: rgb(229, 236, 246); stroke-opacity: 1;"/></g><g class="point" style="vector-effect: none; stroke-miterlimit: 2;"><path d="M170.55751464740987,179.49592482730543L193.21579721499302,212.00603175375153A75.58011049723757,75.58011049723757 0,0,0 212.00603175375153,193.21579721499305L179.4959248273054,170.55751464740987A35.95303867403315,35.95303867403315 0,0,1 170.55751464740987,179.49592482730543Z" style="opacity: 1; stroke-width: 0.5px; fill: rgb(57, 162, 252); fill-opacity: 1; stroke: rgb(229, 236, 246); stroke-opacity: 1;"/></g><g class="point" style="vector-effect: none; stroke-miterlimit: 2;"><path d="M163.8353726716305,213.05806255930605L174.91491907939962,263.5557793242788A116.25690607734808,116.25690607734808 0,0,0 212.67855336936307,247.91356983687825L184.80569780781786,204.37186948052383A64.55801104972376,64.55801104972376 0,0,1 163.8353726716305,213.05806255930605Z" style="opacity: 1; stroke-width: 0.5px; fill: rgb(57, 162, 252); fill-opacity: 1; stroke: rgb(229, 236, 246); stroke-opacity: 1;"/></g><g class="point" style="vector-effect: none; stroke-miterlimit: 2;"><path d="M136.15968514328978,227.5031966590108L129.14725894922324,266.77148296624296A118.61878453038675,118.61878453038675 0,0,0 170.85274105077673,266.77148296624296L163.84031485671022,227.50319665901083A78.7292817679558,78.7292817679558 0,0,1 136.15968514328978,227.5031966590108Z" style="opacity: 1; stroke-width: 0.5px; fill: rgb(57, 162, 252); fill-opacity: 1; stroke: rgb(229, 236, 246); stroke-opacity: 1;"/></g><g class="point" style="vector-effect: none; stroke-miterlimit: 2;"><path d="M126.79620146145474,186.24791298701587L99.2063190528186,229.34756562401645A94.21270718232044,94.21270718232044 0,0,0 129.80935451579126,242.0237579625645L140.776418218913,192.0387083728707A43.03867403314917,43.03867403314917 0,0,1 126.79620146145474,186.24791298701587Z" style="opacity: 1; stroke-width: 0.5px; fill: rgb(57, 162, 252); fill-opacity: 1; stroke: rgb(229, 236, 246); stroke-opacity: 1;"/></g><g class="point" style="vector-effect: none; stroke-miterlimit: 2;"><path d="M127.60893297781195,165.6057045498586L89.50105929581882,192.16541325490638A73.74309392265194,73.74309392265194 0,0,0 107.8345867450936,210.49894070418117L134.3942954501414,172.39106702218805A27.29281767955801,27.29281767955801 0,0,1 127.60893297781195,165.6057045498586Z" style="opacity: 1; stroke-width: 0.5px; fill: rgb(57, 162, 252); fill-opacity: 1; stroke: rgb(229, 236, 246); stroke-opacity: 1;"/></g><g class="point" style="vector-effect: none; stroke-miterlimit: 2;"><path d="M119.23996948326536,156.74896227884417L92.58127636876199,162.59806292050914A58.784530386740336,58.784530386740336 0,0,0 100.49065543236858,181.69299312581796L123.47713683876889,166.97838917454533A31.49171270718232,31.49171270718232 0,0,1 119.23996948326536,156.74896227884417Z" style="opacity: 1; stroke-width: 0.5px; fill: rgb(57, 162, 252); fill-opacity: 1; stroke: rgb(229, 236, 246); stroke-opacity: 1;"/></g><g class="point" style="vector-effect: none; stroke-miterlimit: 2;"><path d="M105.3064899266371,142.0187517659638L54.671068109416694,132.9764127262465A96.83701657458563,96.83701657458563 0,0,0 54.67106810941672,167.0235872737536L105.30648992663711,157.98124823403623A45.40055248618784,45.40055248618784 0,0,1 105.3064899266371,142.0187517659638Z" style="opacity: 1; stroke-width: 0.5px; fill: rgb(57, 162, 252); fill-opacity: 1; stroke: rgb(229, 236, 246); stroke-opacity: 1;"/></g><g class="point" style="vector-effect: none; stroke-miterlimit: 2;"><path d="M105.132156485584,121.27822497972754L83.47181823724524,107.41254048718221A78.99171270718233,78.99171270718233 0,0,0 72.8435901205239,133.07135295056594L97.96428170919054,138.58300547828867A53.273480662983424,53.273480662983424 0,0,1 105.132156485584,121.27822497972754Z" style="opacity: 1; stroke-width: 0.5px; fill: rgb(57, 162, 252); fill-opacity: 1; stroke: rgb(229, 236, 246); stroke-opacity: 1;"/></g><g class="point" style="vector-effect: none; stroke-miterlimit: 2;"><path d="M133.1938566386138,125.88654320687442L126.44138832377114,116.19810074535076A41.20165745856353,41.20165745856353 0,0,0 116.19810074535073,126.44138832377118L125.88654320687439,133.19385663861382A29.392265193370168,29.392265193370168 0,0,1 133.1938566386138,125.88654320687442Z" style="opacity: 1; stroke-width: 0.5px; fill: rgb(57, 162, 252); fill-opacity: 1; stroke: rgb(229, 236, 246); stroke-opacity: 1;"/></g><g class="point" style="vector-effect: none; stroke-miterlimit: 2;"><path d="M144.71331288157205,125.9046427618912L141.901245265387,113.08796337991842A37.790055248618785,37.790055248618785 0,0,0 129.6259329905456,118.17256420652267L136.70026181327282,129.22375719036896A24.668508287292816,24.668508287292816 0,0,1 144.71331288157205,125.9046427618912Z" style="opacity: 1; stroke-width: 0.5px; fill: rgb(57, 162, 252); fill-opacity: 1; stroke: rgb(229, 236, 246); stroke-opacity: 1;"/></g></g></g><g class="trace bars" style="opacity: 1;"><g class="points"><g class="point" style="vector-effect: none; stroke-miterlimit: 2;"><path d="M0,0Z" style="opacity: 1; stroke-width: 0.5px; fill: rgb(27, 207, 212); fill-opacity: 1; stroke: rgb(229, 236, 246); stroke-opacity: 1;"/></g><g class="point" style="vector-effect: none; stroke-miterlimit: 2;"><path d="M0,0Z" style="opacity: 1; stroke-width: 0.5px; fill: rgb(27, 207, 212); fill-opacity: 1; stroke: rgb(229, 236, 246); stroke-opacity: 1;"/></g><g class="point" style="vector-effect: none; stroke-miterlimit: 2;"><path d="M0,0Z" style="opacity: 1; stroke-width: 0.5px; fill: rgb(27, 207, 212); fill-opacity: 1; stroke: rgb(229, 236, 246); stroke-opacity: 1;"/></g><g class="point" style="vector-effect: none; stroke-miterlimit: 2;"><path d="M0,0Z" style="opacity: 1; stroke-width: 0.5px; fill: rgb(27, 207, 212); fill-opacity: 1; stroke: rgb(229, 236, 246); stroke-opacity: 1;"/></g><g class="point" style="vector-effect: none; stroke-miterlimit: 2;"><path d="M0,0Z" style="opacity: 1; stroke-width: 0.5px; fill: rgb(27, 207, 212); fill-opacity: 1; stroke: rgb(229, 236, 246); stroke-opacity: 1;"/></g><g class="point" style="vector-effect: none; stroke-miterlimit: 2;"><path d="M0,0Z" style="opacity: 1; stroke-width: 0.5px; fill: rgb(27, 207, 212); fill-opacity: 1; stroke: rgb(229, 236, 246); stroke-opacity: 1;"/></g><g class="point" style="vector-effect: none; stroke-miterlimit: 2;"><path d="M193.21579721499302,212.00603175375153L197.41733305533955,218.03439595203292A82.9281767955801,82.9281767955801 0,0,0 218.03439595203292,197.41733305533958L212.00603175375153,193.21579721499305A75.58011049723757,75.58011049723757 0,0,1 193.21579721499302,212.00603175375153Z" style="opacity: 1; stroke-width: 0.5px; fill: rgb(27, 207, 212); fill-opacity: 1; stroke: rgb(229, 236, 246); stroke-opacity: 1;"/></g><g class="point" style="vector-effect: none; stroke-miterlimit: 2;"><path d="M174.91491907939962,263.5557793242788L180.53905431176972,289.18913808822435A142.5,142.5 0,0,0 226.8272110148175,270.01595580457086L212.67855336936307,247.91356983687825A116.25690607734808,116.25690607734808 0,0,1 174.91491907939962,263.5557793242788Z" style="opacity: 1; stroke-width: 0.5px; fill: rgb(27, 207, 212); fill-opacity: 1; stroke: rgb(229, 236, 246); stroke-opacity: 1;"/></g><g class="point" style="vector-effect: none; stroke-miterlimit: 2;"><path d="M129.14725894922324,266.77148296624296L126.0101209150356,284.3388742089521A136.46408839779008,136.46408839779008 0,0,0 173.98987908496437,284.3388742089521L170.85274105077673,266.77148296624296A118.61878453038675,118.61878453038675 0,0,1 129.14725894922324,266.77148296624296Z" style="opacity: 1; stroke-width: 0.5px; fill: rgb(27, 207, 212); fill-opacity: 1; stroke: rgb(229, 236, 246); stroke-opacity: 1;"/></g><g class="point" style="vector-effect: none; stroke-miterlimit: 2;"><path d="M99.2063190528186,229.34756562401645L96.37658752372772,233.76804281755494A99.46132596685082,99.46132596685082 0,0,0 128.68452746931723,247.1504297153536L129.80935451579126,242.0237579625645A94.21270718232044,94.21270718232044 0,0,1 99.2063190528186,229.34756562401645Z" style="opacity: 1; stroke-width: 0.5px; fill: rgb(27, 207, 212); fill-opacity: 1; stroke: rgb(229, 236, 246); stroke-opacity: 1;"/></g><g class="point" style="vector-effect: none; stroke-miterlimit: 2;"><path d="M89.50105929581882,192.16541325490638L66.24879738816202,208.37133721052874A102.08563535911601,102.08563535911601 0,0,0 91.62866278947124,233.75120261183798L107.8345867450936,210.49894070418117A73.74309392265194,73.74309392265194 0,0,1 89.50105929581882,192.16541325490638Z" style="opacity: 1; stroke-width: 0.5px; fill: rgb(27, 207, 212); fill-opacity: 1; stroke: rgb(229, 236, 246); stroke-opacity: 1;"/></g><g class="point" style="vector-effect: none; stroke-miterlimit: 2;"><path d="M92.58127636876199,162.59806292050914L91.81227560584362,162.76678697748025A59.57182320441989,59.57182320441989 0,0,0 99.82758385333781,182.11745285518157L100.49065543236858,181.69299312581796A58.784530386740336,58.784530386740336 0,0,1 92.58127636876199,162.59806292050914Z" style="opacity: 1; stroke-width: 0.5px; fill: rgb(27, 207, 212); fill-opacity: 1; stroke: rgb(229, 236, 246); stroke-opacity: 1;"/></g><g class="point" style="vector-effect: none; stroke-miterlimit: 2;"><path d="M54.671068109416694,132.9764127262465L48.729156365559206,131.9153219205654A102.87292817679557,102.87292817679557 0,0,0 48.729156365559234,168.08467807943472L54.67106810941672,167.0235872737536A96.83701657458563,96.83701657458563 0,0,1 54.671068109416694,132.9764127262465Z" style="opacity: 1; stroke-width: 0.5px; fill: rgb(27, 207, 212); fill-opacity: 1; stroke: rgb(229, 236, 246); stroke-opacity: 1;"/></g><g class="point" style="vector-effect: none; stroke-miterlimit: 2;"><path d="M83.47181823724524,107.41254048718221L57.83305051472182,91.00009761845509A109.43370165745857,109.43370165745857 0,0,0 43.10889395434707,126.54735608101659L72.8435901205239,133.07135295056594A78.99171270718233,78.99171270718233 0,0,1 83.47181823724524,107.41254048718221Z" style="opacity: 1; stroke-width: 0.5px; fill: rgb(27, 207, 212); fill-opacity: 1; stroke: rgb(229, 236, 246); stroke-opacity: 1;"/></g><g class="point" style="vector-effect: none; stroke-miterlimit: 2;"><path d="M126.44138832377114,116.19810074535076L125.0908946608026,114.26041225304601A43.56353591160221,43.56353591160221 0,0,0 114.26041225304598,125.09089466080265L116.19810074535073,126.44138832377118A41.20165745856353,41.20165745856353 0,0,1 126.44138832377114,116.19810074535076Z" style="opacity: 1; stroke-width: 0.5px; fill: rgb(27, 207, 212); fill-opacity: 1; stroke: rgb(229, 236, 246); stroke-opacity: 1;"/></g><g class="point" style="vector-effect: none; stroke-miterlimit: 2;"><path d="M0,0Z" style="opacity: 1; stroke-width: 0.5px; fill: rgb(27, 207, 212); fill-opacity: 1; stroke: rgb(229, 236, 246); stroke-opacity: 1;"/></g></g></g></g><g class="scatterlayer"/></g><g class="polarsublayer angular-line"><path d="M150,0A150,150 0,1,0 -150,-1.8369701987210297e-14A150,150 0,1,0 150,3.6739403974420595e-14Z" transform="translate(208,200)" stroke-width="1" style="fill: none; stroke: rgb(255, 255, 255); stroke-opacity: 1;"/></g><g class="polarsublayer radial-line"><line x1="0" y1="0" x2="150" y2="0" transform="translate(208,200)" stroke-width="1" style="fill: none; stroke: rgb(255, 255, 255); stroke-opacity: 1;"/></g><g class="polarsublayer angular-axis"><g class="angularaxistick"><text text-anchor="middle" x="1.7757378587636624e-16" y="-5.300000000000001" transform="translate(208,50)" style="font-family: 'Open Sans', verdana, arial, sans-serif; font-size: 12px; fill: rgb(42, 63, 95); fill-opacity: 1; white-space: pre; opacity: 1;">0°</text></g><g class="angularaxistick"><text text-anchor="start" x="2.050609665440988" y="-0.7778174593052025" transform="translate(314.06601717798213,93.93398282201788)" style="font-family: 'Open Sans', verdana, arial, sans-serif; font-size: 12px; fill: rgb(42, 63, 95); fill-opacity: 1; white-space: pre; opacity: 1;">45°</text></g><g class="angularaxistick"><text text-anchor="start" x="2.9000000000000004" y="4.199999999999999" transform="translate(358,200)" style="font-family: 'Open Sans', verdana, arial, sans-serif; font-size: 12px; fill: rgb(42, 63, 95); fill-opacity: 1; white-space: pre; opacity: 1;">90°</text></g><g class="angularaxistick"><text text-anchor="start" x="2.050609665440988" y="13.505739520663056" transform="translate(314.06601717798213,306.06601717798213)" style="font-family: 'Open Sans', verdana, arial, sans-serif; font-size: 12px; fill: rgb(42, 63, 95); fill-opacity: 1; white-space: pre; opacity: 1;">135°</text></g><g class="angularaxistick"><text text-anchor="middle" x="1.7757378587636624e-16" y="14.9" transform="translate(208,350)" style="font-family: 'Open Sans', verdana, arial, sans-serif; font-size: 12px; fill: rgb(42, 63, 95); fill-opacity: 1; white-space: pre; opacity: 1;">180°</text></g><g class="angularaxistick"><text text-anchor="end" x="-2.0506096654409878" y="13.505739520663058" transform="translate(101.93398282201788,306.06601717798213)" style="font-family: 'Open Sans', verdana, arial, sans-serif; font-size: 12px; fill: rgb(42, 63, 95); fill-opacity: 1; white-space: pre; opacity: 1;">225°</text></g><g class="angularaxistick"><text text-anchor="end" x="-2.9000000000000004" y="4.200000000000001" transform="translate(58,200.00000000000003)" style="font-family: 'Open Sans', verdana, arial, sans-serif; font-size: 12px; fill: rgb(42, 63, 95); fill-opacity: 1; white-space: pre; opacity: 1;">270°</text></g><g class="angularaxistick"><text text-anchor="end" x="-2.0506096654409887" y="-0.7778174593052021" transform="translate(101.93398282201785,93.93398282201788)" style="font-family: 'Open Sans', verdana, arial, sans-serif; font-size: 12px; fill: rgb(42, 63, 95); fill-opacity: 1; white-space: pre; opacity: 1;">315°</text></g></g><g class="polarsublayer radial-axis" transform="translate(208,200)"><g class="xtick"><text text-anchor="middle" x="0" y="14.9" transform="" style="font-family: 'Open Sans', verdana, arial, sans-serif; font-size: 12px; fill: rgb(42, 63, 95); fill-opacity: 1; white-space: pre; opacity: 1;">0</text></g><g class="xtick"><text text-anchor="middle" x="0" y="14.9" transform="translate(23.43,0)" style="font-family: 'Open Sans', verdana, arial, sans-serif; font-size: 12px; fill: rgb(42, 63, 95); fill-opacity: 1; white-space: pre; opacity: 1;">2</text></g><g class="xtick"><text text-anchor="middle" x="0" y="14.9" transform="translate(46.86,0)" style="font-family: 'Open Sans', verdana, arial, sans-serif; font-size: 12px; fill: rgb(42, 63, 95); fill-opacity: 1; white-space: pre; opacity: 1;">4</text></g><g class="xtick"><text text-anchor="middle" x="0" y="14.9" transform="translate(70.29,0)" style="font-family: 'Open Sans', verdana, arial, sans-serif; font-size: 12px; fill: rgb(42, 63, 95); fill-opacity: 1; white-space: pre; opacity: 1;">6</text></g><g class="xtick"><text text-anchor="middle" x="0" y="14.9" transform="translate(93.72,0)" style="font-family: 'Open Sans', verdana, arial, sans-serif; font-size: 12px; fill: rgb(42, 63, 95); fill-opacity: 1; white-space: pre; opacity: 1;">8</text></g><g class="xtick"><text text-anchor="middle" x="0" y="14.9" transform="translate(117.15,0)" style="font-family: 'Open Sans', verdana, arial, sans-serif; font-size: 12px; fill: rgb(42, 63, 95); fill-opacity: 1; white-space: pre; opacity: 1;">10</text></g><g class="xtick"><text text-anchor="middle" x="0" y="14.9" transform="translate(140.58,0)" style="font-family: 'Open Sans', verdana, arial, sans-serif; font-size: 12px; fill: rgb(42, 63, 95); fill-opacity: 1; white-space: pre; opacity: 1;">12</text></g></g></g></g><g class="smithlayer"/><g class="ternarylayer"/><g class="geolayer"/><g class="funnelarealayer"/><g class="pielayer"/><g class="iciclelayer"/><g class="treemaplayer"/><g class="sunburstlayer"/><g class="glimages"/><defs id="topdefs-6ff379"><g class="clips"/><clipPath id="legend6ff379"><rect width="116" height="124" x="0" y="0"/></clipPath></defs><g class="layer-above"><g class="imagelayer"/><g class="shapelayer"/></g><g class="infolayer"><g class="legend" pointer-events="all" transform="translate(372.32,50)"><rect class="bg" shape-rendering="crispEdges" style="stroke: rgb(68, 68, 68); stroke-opacity: 1; fill: rgb(255, 255, 255); fill-opacity: 1; stroke-width: 0px;" width="116" height="124" x="0" y="0"/><g class="scrollbox" transform="" clip-path="url(#legend6ff379)"><text class="legendtitletext" text-anchor="start" x="2" y="18.2" style="font-family: 'Open Sans', verdana, arial, sans-serif; font-size: 14px; fill: rgb(42, 63, 95); fill-opacity: 1; white-space: pre;">AMB_WS [m/s]</text><g class="groups" transform=""><g class="traces" transform="translate(0,32.7)" style="opacity: 1;"><text class="legendtext" text-anchor="start" x="40" y="4.680000000000001" style="font-family: 'Open Sans', verdana, arial, sans-serif; font-size: 12px; fill: rgb(42, 63, 95); fill-opacity: 1; white-space: pre;">[0.0, 3.5)</text><g class="layers" style="opacity: 1;"><g class="legendfill"/><g class="legendlines"/><g class="legendsymbols"><g class="legendpoints"><path class="legendundefined" d="M6,6H-6V-6H6Z" transform="translate(20,0)" style="stroke-width: 0.5px; fill: rgb(48, 18, 59); fill-opacity: 1; stroke: rgb(229, 236, 246); stroke-opacity: 1;"/></g></g></g><rect class="legendtoggle" x="0" y="-9.5" width="110.4375" height="19" style="fill: rgb(0, 0, 0); fill-opacity: 0;"/></g></g><g class="groups" transform=""><g class="traces" transform="translate(0,51.7)" style="opacity: 1;"><text class="legendtext" text-anchor="start" x="40" y="4.680000000000001" style="font-family: 'Open Sans', verdana, arial, sans-serif; font-size: 12px; fill: rgb(42, 63, 95); fill-opacity: 1; white-space: pre;">[3.5, 6.0)</text><g class="layers" style="opacity: 1;"><g class="legendfill"/><g class="legendlines"/><g class="legendsymbols"><g class="legendpoints"><path class="legendundefined" d="M6,6H-6V-6H6Z" transform="translate(20,0)" style="stroke-width: 0.5px; fill: rgb(65, 69, 171); fill-opacity: 1; stroke: rgb(229, 236, 246); stroke-opacity: 1;"/></g></g></g><rect class="legendtoggle" x="0" y="-9.5" width="110.4375" height="19" style="fill: rgb(0, 0, 0); fill-opacity: 0;"/></g></g><g class="groups" transform=""><g class="traces" transform="translate(0,70.7)" style="opacity: 1;"><text class="legendtext" text-anchor="start" x="40" y="4.680000000000001" style="font-family: 'Open Sans', verdana, arial, sans-serif; font-size: 12px; fill: rgb(42, 63, 95); fill-opacity: 1; white-space: pre;">[6.0, 10.0)</text><g class="layers" style="opacity: 1;"><g class="legendfill"/><g class="legendlines"/><g class="legendsymbols"><g class="legendpoints"><path class="legendundefined" d="M6,6H-6V-6H6Z" transform="translate(20,0)" style="stroke-width: 0.5px; fill: rgb(70, 117, 237); fill-opacity: 1; stroke: rgb(229, 236, 246); stroke-opacity: 1;"/></g></g></g><rect class="legendtoggle" x="0" y="-9.5" width="110.4375" height="19" style="fill: rgb(0, 0, 0); fill-opacity: 0;"/></g></g><g class="groups" transform=""><g class="traces" transform="translate(0,89.7)" style="opacity: 1;"><text class="legendtext" text-anchor="start" x="40" y="4.680000000000001" style="font-family: 'Open Sans', verdana, arial, sans-serif; font-size: 12px; fill: rgb(42, 63, 95); fill-opacity: 1; white-space: pre;">[10.0, 15.0)</text><g class="layers" style="opacity: 1;"><g class="legendfill"/><g class="legendlines"/><g class="legendsymbols"><g class="legendpoints"><path class="legendundefined" d="M6,6H-6V-6H6Z" transform="translate(20,0)" style="stroke-width: 0.5px; fill: rgb(57, 162, 252); fill-opacity: 1; stroke: rgb(229, 236, 246); stroke-opacity: 1;"/></g></g></g><rect class="legendtoggle" x="0" y="-9.5" width="110.4375" height="19" style="fill: rgb(0, 0, 0); fill-opacity: 0;"/></g></g><g class="groups" transform=""><g class="traces" transform="translate(0,108.7)" style="opacity: 1;"><text class="legendtext" text-anchor="start" x="40" y="4.680000000000001" style="font-family: 'Open Sans', verdana, arial, sans-serif; font-size: 12px; fill: rgb(42, 63, 95); fill-opacity: 1; white-space: pre;">[15.0, 20.0)</text><g class="layers" style="opacity: 1;"><g class="legendfill"/><g class="legendlines"/><g class="legendsymbols"><g class="legendpoints"><path class="legendundefined" d="M6,6H-6V-6H6Z" transform="translate(20,0)" style="stroke-width: 0.5px; fill: rgb(27, 207, 212); fill-opacity: 1; stroke: rgb(229, 236, 246); stroke-opacity: 1;"/></g></g></g><rect class="legendtoggle" x="0" y="-9.5" width="110.4375" height="19" style="fill: rgb(0, 0, 0); fill-opacity: 0;"/></g></g></g><rect class="scrollbar" rx="20" ry="3" width="0" height="0" style="fill: rgb(128, 139, 164); fill-opacity: 1;" x="0" y="0"/></g><g class="g-gtitle"><text class="gtitle" x="250" y="12" text-anchor="middle" dy="0.7em" style="font-family: 'Open Sans', verdana, arial, sans-serif; font-size: 17px; fill: rgb(42, 63, 95); opacity: 1; font-weight: normal; white-space: pre;">Ambient wind speed</text></g><g class="g-polartitle"/></g></svg>