<svg class="main-svg" xmlns="http://www.w3.org/2000/svg" xmlns:xlink="http://www.w3.org/1999/xlink" width="500" height="400" style="" viewBox="0 0 500 400"><rect x="0" y="0" width="500" height="400" style="fill: rgb(255, 255, 255); fill-opacity: 1;"/><defs id="defs-8739e6"><g class="clips"><clipPath id="clip8739e6polar-for-traces"><path d="M150,0A150,150 0,1,0 -150,-1.8369701987210297e-14A150,150 0,1,0 150,3.6739403974420595e-14Z" transform="translate(150,150)"/></clipPath></g><g class="gradients"/><g class="patterns"/></defs><g class="bglayer"/><g class="layer-below"><g class="imagelayer"/><g class="shapelayer"/></g><g class="cartesianlayer"/><g class="polarlayer"><g class="polar"><g class="polarsublayer draglayer"/><g class="polarsublayer plotbg"><path d="M150,0A150,150 0,1,0 -150,-1.8369701987210297e-14A150,150 0,1,0 150,3.6739403974420595e-14Z" transform="translate(212.5,200)" style="fill: rgb(229, 236, 246); fill-opacity: 1;"/></g><g class="polarsublayer backplot"><g class="maplayer"/></g><g class="polarsublayer angular-grid" style="fill: none;"><path class="angularaxisgrid" d="M212.5,200L212.5,50" style="stroke: rgb(255, 255, 255); stroke-opacity: 1; stroke-width: 1px;"/><path class="angularaxisgrid" d="M212.5,200L318.56601717798213,93.93398282201788" style="stroke: rgb(255, 255, 255); stroke-opacity: 1; stroke-width: 1px;"/><path class="angularaxisgrid" d="M212.5,200L362.5,200" style="stroke: rgb(255, 255, 255); stroke-opacity: 1; stroke-width: 1px;"/><path class="angularaxisgrid" d="M212.5,200L318.56601717798213,306.06601717798213" style="stroke: rgb(255, 255, 255); stroke-opacity: 1; stroke-width: 1px;"/><path class="angularaxisgrid" d="M212.5,200L212.5,350" style="stroke: rgb(255, 255, 255); stroke-opacity: 1; stroke-width: 1px;"/><path class="angularaxisgrid" d="M212.5,200L106.43398282201788,306.06601717798213" style="stroke: rgb(255, 255, 255); stroke-opacity: 1; stroke-width: 1px;"/><path class="angularaxisgrid" d="M212.5,200L62.5,200.00000000000003" style="stroke: rgb(255, 255, 255); stroke-opacity: 1; stroke-width: 1px;"/><path class="angularaxisgrid" d="M212.5,200L106.43398282201785,93.93398282201788" style="stroke: rgb(255, 255, 255); stroke-opacity: 1; stroke-width: 1px;"/></g><g class="polarsublayer radial-grid" transform="translate(212.5,200)" style="fill: none;"><path class="xgrid" d="M17.81,0A17.81,17.81 0,1,0 -17.81,-2.181095949281436e-15A17.81,17.81 0,1,0 17.81,4.362191898562872e-15Z" style="stroke: rgb(255, 255, 255); stroke-opacity: 1; stroke-width: 1px;"/><path class="xgrid" d="M35.63,0A35.63,35.63 0,1,0 -35.63,-4.36341654536202e-15A35.63,35.63 0,1,0 35.63,8.72683309072404e-15Z" style="stroke: rgb(255, 255, 255); stroke-opacity: 1; stroke-width: 1px;"/><path class="xgrid" d="M53.44,0A53.44,53.44 0,1,0 -53.44,-6.544512494643455e-15A53.44,53.44 0,1,0 53.44,1.308902498928691e-14Z" style="stroke: rgb(255, 255, 255); stroke-opacity: 1; stroke-width: 1px;"/><path class="xgrid" d="M71.25,0A71.25,71.25 0,1,0 -71.25,-8.725608443924892e-15A71.25,71.25 0,1,0 71.25,1.7451216887849784e-14Z" style="stroke: rgb(255, 255, 255); stroke-opacity: 1; stroke-width: 1px;"/><path class="xgrid" d="M89.06,0A89.06,89.06 0,1,0 -89.06,-1.0906704393206328e-14A89.06,89.06 0,1,0 89.06,2.1813408786412656e-14Z" style="stroke: rgb(255, 255, 255); stroke-opacity: 1; stroke-width: 1px;"/><path class="xgrid" d="M106.88,0A106.88,106.88 0,1,0 -106.88,-1.308902498928691e-14A106.88,106.88 0,1,0 106.88,2.617804997857382e-14Z" style="stroke: rgb(255, 255, 255); stroke-opacity: 1; stroke-width: 1px;"/><path class="xgrid" d="M124.69,0A124.69,124.69 0,1,0 -124.69,-1.5270120938568348e-14A124.69,124.69 0,1,0 124.69,3.0540241877136696e-14Z" style="stroke: rgb(255, 255, 255); stroke-opacity: 1; stroke-width: 1px;"/><path class="xgrid" d="M142.5,0A142.5,142.5 0,1,0 -142.5,-1.7451216887849784e-14A142.5,142.5 0,1,0 142.5,3.490243377569957e-14Z" style="stroke: rgb(255, 255, 255); stroke-opacity: 1; stroke-width: 1px;"/></g><g class="polarsublayer frontplot" transform="translate(62.5,50)" clip-path="url(#clip8739e6polar-for-traces)"><g class="barlayer"><g class="trace bars" style="opacity: 1;"><g class="points"><g class="point" style="vector-effect: none; stroke-miterlimit: 2;"><path d="M150,150L151.7222541799819,140.35569596574433A9.796875,9.796875 0,0,0 148.2777458200181,140.35569596574433L150,150A0,0 0,0,1 150,150Z" style="opacity: 1; stroke-width: 0.5px; fill: rgb(48, 18, 59); fill-opacity: 1; stroke: rgb(229, 236, 246); stroke-opacity: 1;"/></g><g class="point" style="vector-effect: none; stroke-miterlimit: 2;"><path d="M150,150L154.32153061958348,143.2491024859929A8.015625,8.015625 0,0,0 151.71782180503706,142.17061098253737L150,150A0,0 0,0,1 150,150Z" style="opacity: 1; stroke-width: 0.5px; fill: rgb(48, 18, 59); fill-opacity: 1; stroke: rgb(229, 236, 246); stroke-opacity: 1;"/></g><g class="point" style="vector-effect: none; stroke-miterlimit: 2;"><path d="M150,150L158.5244837491323,144.05876572575997A10.390625,10.390625 0,0,0 155.94123427424003,141.4755162508677L150,150A0,0 0,0,1 150,150Z" style="opacity: 1; stroke-width: 0.5px; fill: rgb(48, 18, 59); fill-opacity: 1; stroke: rgb(229, 236, 246); stroke-opacity: 1;"/></g><g class="point" style="vector-effect: none; stroke-miterlimit: 2;"><path d="M150,150L155.7995474203427,148.72753940367625A5.9375,5.9375 0,0,0 155.00066482519046,146.79886620771595L150,150A0,0 0,0,1 150,150Z" style="opacity: 1; stroke-width: 0.5px; fill: rgb(48, 18, 59); fill-opacity: 1; stroke: rgb(229, 236, 246); stroke-opacity: 1;"/></g><g class="point" style="vector-effect: none; stroke-miterlimit: 2;"><path d="M150,150L157.89079420984552,151.4091170563488A8.015625,8.015625 0,0,0 157.89079420984552,148.5908829436512L150,150A0,0 0,0,1 150,150Z" style="opacity: 1; stroke-width: 0.5px; fill: rgb(48, 18, 59); fill-opacity: 1; stroke: rgb(229, 236, 246); stroke-opacity: 1;"/></g><g class="point" style="vector-effect: none; stroke-miterlimit: 2;"><path d="M150,150L154.00053186015236,152.56090703382725A4.75,4.75 0,0,0 154.63963793627414,151.017968477059L150,150A0,0 0,0,1 150,150Z" style="opacity: 1; stroke-width: 0.5px; fill: rgb(48, 18, 59); fill-opacity: 1; stroke: rgb(229, 236, 246); stroke-opacity: 1;"/></g><g class="point" style="vector-effect: none; stroke-miterlimit: 2;"><path d="M150,150L152.20674415900345,153.16623682110628A3.859375,3.859375 0,0,0 153.16623682110628,152.20674415900345L150,150A0,0 0,0,1 150,150Z" style="opacity: 1; stroke-width: 0.5px; fill: rgb(48, 18, 59); fill-opacity: 1; stroke: rgb(229, 236, 246); stroke-opacity: 1;"/></g><g class="point" style="vector-effect: none; stroke-miterlimit: 2;"><path d="M150,150L150.89072241742662,154.05968319423988A4.15625,4.15625 0,0,0 152.24079365459883,153.5004653776333L150,150A0,0 0,0,1 150,150Z" style="opacity: 1; stroke-width: 0.5px; fill: rgb(48, 18, 59); fill-opacity: 1; stroke: rgb(229, 236, 246); stroke-opacity: 1;"/></g><g class="point" style="vector-effect: none; stroke-miterlimit: 2;"><path d="M150,150L149.0605886291008,155.26052947323035A5.34375,5.34375 0,0,0 150.9394113708992,155.26052947323035L150,150A0,0 0,0,1 150,150Z" style="opacity: 1; stroke-width: 0.5px; fill: rgb(48, 18, 59); fill-opacity: 1; stroke: rgb(229, 236, 246); stroke-opacity: 1;"/></g><g class="point" style="vector-effect: none; stroke-miterlimit: 2;"><path d="M150,150L148.07931972462956,153.00039889511427A3.5625,3.5625 0,0,0 149.23652364220575,153.47972845220562L150,150A0,0 0,0,1 150,150Z" style="opacity: 1; stroke-width: 0.5px; fill: rgb(48, 18, 59); fill-opacity: 1; stroke: rgb(229, 236, 246); stroke-opacity: 1;"/></g><g class="point" style="vector-effect: none; stroke-miterlimit: 2;"><path d="M150,150L147.320876535987,151.8672450576183A3.2656249999999996,3.2656249999999996 0,0,0 148.1327549423817,152.679123464013L150,150A0,0 0,0,1 150,150Z" style="opacity: 1; stroke-width: 0.5px; fill: rgb(48, 18, 59); fill-opacity: 1; stroke: rgb(229, 236, 246); stroke-opacity: 1;"/></g><g class="point" style="vector-effect: none; stroke-miterlimit: 2;"><path d="M150,150L146.52027154779438,150.76347635779425A3.5625,3.5625 0,0,0 146.99960110488573,151.92068027537044L150,150A0,0 0,0,1 150,150Z" style="opacity: 1; stroke-width: 0.5px; fill: rgb(48, 18, 59); fill-opacity: 1; stroke: rgb(229, 236, 246); stroke-opacity: 1;"/></g><g class="point" style="vector-effect: none; stroke-miterlimit: 2;"><path d="M150,150L141.81695415275277,148.5386934230457A8.3125,8.3125 0,0,0 141.81695415275277,151.4613065769543L150,150A0,0 0,0,1 150,150Z" style="opacity: 1; stroke-width: 0.5px; fill: rgb(48, 18, 59); fill-opacity: 1; stroke: rgb(229, 236, 246); stroke-opacity: 1;"/></g><g class="point" style="vector-effect: none; stroke-miterlimit: 2;"><path d="M150,150L144.24923545103098,146.31869613887332A6.828124999999999,6.828124999999999 0,0,0 143.33052046660592,148.5366703142277L150,150A0,0 0,0,1 150,150Z" style="opacity: 1; stroke-width: 0.5px; fill: rgb(48, 18, 59); fill-opacity: 1; stroke: rgb(229, 236, 246); stroke-opacity: 1;"/></g><g class="point" style="vector-effect: none; stroke-miterlimit: 2;"><path d="M150,150L144.56801437783767,142.20618628650763A9.5,9.5 0,0,0 142.20618628650763,144.5680143778377L150,150A0,0 0,0,1 150,150Z" style="opacity: 1; stroke-width: 0.5px; fill: rgb(48, 18, 59); fill-opacity: 1; stroke: rgb(229, 236, 246); stroke-opacity: 1;"/></g><g class="point" style="vector-effect: none; stroke-miterlimit: 2;"><path d="M150,150L147.83681698624963,140.14076938541746A10.09375,10.09375 0,0,0 144.55807255311709,141.49886979717624L150,150A0,0 0,0,1 150,150Z" style="opacity: 1; stroke-width: 0.5px; fill: rgb(48, 18, 59); fill-opacity: 1; stroke: rgb(229, 236, 246); stroke-opacity: 1;"/></g></g></g><g class="trace bars" style="opacity: 1;"><g class="points"><g class="point" style="vector-effect: none; stroke-miterlimit: 2;"><path d="M151.7222541799819,140.35569596574433L155.0101939781291,121.94384280943808A28.5,28.5 0,0,0 144.9898060218709,121.94384280943808L148.2777458200181,140.35569596574433A9.796875,9.796875 0,0,1 151.7222541799819,140.35569596574433Z" style="opacity: 1; stroke-width: 0.5px; fill: rgb(65, 69, 171); fill-opacity: 1; stroke: rgb(229, 236, 246); stroke-opacity: 1;"/></g><g class="point" style="vector-effect: none; stroke-miterlimit: 2;"><path d="M154.32153061958348,143.2491024859929L167.28612247833394,122.99640994397156A32.0625,32.0625 0,0,0 156.8712872201482,118.68244393014953L151.71782180503706,142.17061098253737A8.015625,8.015625 0,0,1 154.32153061958348,143.2491024859929Z" style="opacity: 1; stroke-width: 0.5px; fill: rgb(65, 69, 171); fill-opacity: 1; stroke: rgb(229, 236, 246); stroke-opacity: 1;"/></g><g class="point" style="vector-effect: none; stroke-miterlimit: 2;"><path d="M158.5244837491323,144.05876572575997L183.12370828234262,126.91406110581015A40.375,40.375 0,0,0 173.08593889418987,116.8762917176574L155.94123427424003,141.4755162508677A10.390625,10.390625 0,0,1 158.5244837491323,144.05876572575997Z" style="opacity: 1; stroke-width: 0.5px; fill: rgb(65, 69, 171); fill-opacity: 1; stroke: rgb(229, 236, 246); stroke-opacity: 1;"/></g><g class="point" style="vector-effect: none; stroke-miterlimit: 2;"><path d="M155.7995474203427,148.72753940367625L170.29841597119938,145.54638791286692A20.78125,20.78125 0,0,0 167.50232688816658,138.79603172700578L155.00066482519046,146.79886620771595A5.9375,5.9375 0,0,1 155.7995474203427,148.72753940367625Z" style="opacity: 1; stroke-width: 0.5px; fill: rgb(65, 69, 171); fill-opacity: 1; stroke: rgb(229, 236, 246); stroke-opacity: 1;"/></g><g class="point" style="vector-effect: none; stroke-miterlimit: 2;"><path d="M157.89079420984552,151.4091170563488L169.8731113433147,153.54888740117477A20.1875,20.1875 0,0,0 169.8731113433147,146.45111259882523L157.89079420984552,148.5908829436512A8.015625,8.015625 0,0,1 157.89079420984552,151.4091170563488Z" style="opacity: 1; stroke-width: 0.5px; fill: rgb(65, 69, 171); fill-opacity: 1; stroke: rgb(229, 236, 246); stroke-opacity: 1;"/></g><g class="point" style="vector-effect: none; stroke-miterlimit: 2;"><path d="M154.00053186015236,152.56090703382725L161.001462615419,157.04249434302494A13.062500000000002,13.062500000000002 0,0,0 162.7590043247539,152.79941331191222L154.63963793627414,151.017968477059A4.75,4.75 0,0,1 154.00053186015236,152.56090703382725Z" style="opacity: 1; stroke-width: 0.5px; fill: rgb(65, 69, 171); fill-opacity: 1; stroke: rgb(229, 236, 246); stroke-opacity: 1;"/></g><g class="point" style="vector-effect: none; stroke-miterlimit: 2;"><path d="M152.20674415900345,153.16623682110628L158.65722708532118,162.42139060587849A15.140625,15.140625 0,0,0 162.42139060587849,158.6572270853212L153.16623682110628,152.20674415900345A3.859375,3.859375 0,0,1 152.20674415900345,153.16623682110628Z" style="opacity: 1; stroke-width: 0.5px; fill: rgb(65, 69, 171); fill-opacity: 1; stroke: rgb(229, 236, 246); stroke-opacity: 1;"/></g><g class="point" style="vector-effect: none; stroke-miterlimit: 2;"><path d="M150.89072241742662,154.05968319423988L151.78144483485323,158.11936638847976A8.3125,8.3125 0,0,0 154.4815873091977,157.00093075526664L152.24079365459883,153.5004653776333A4.15625,4.15625 0,0,1 150.89072241742662,154.05968319423988Z" style="opacity: 1; stroke-width: 0.5px; fill: rgb(65, 69, 171); fill-opacity: 1; stroke: rgb(229, 236, 246); stroke-opacity: 1;"/></g><g class="point" style="vector-effect: none; stroke-miterlimit: 2;"><path d="M149.0605886291008,155.26052947323035L147.755850613963,162.56682040827252A12.765625,12.765625 0,0,0 152.24414938603698,162.56682040827252L150.9394113708992,155.26052947323035A5.34375,5.34375 0,0,1 149.0605886291008,155.26052947323035Z" style="opacity: 1; stroke-width: 0.5px; fill: rgb(65, 69, 171); fill-opacity: 1; stroke: rgb(229, 236, 246); stroke-opacity: 1;"/></g><g class="point" style="vector-effect: none; stroke-miterlimit: 2;"><path d="M148.07931972462956,153.00039889511427L144.7181292427313,158.25109696156426A9.796875,9.796875 0,0,0 147.90044001606583,159.5692532435654L149.23652364220575,153.47972845220562A3.5625,3.5625 0,0,1 148.07931972462956,153.00039889511427Z" style="opacity: 1; stroke-width: 0.5px; fill: rgb(65, 69, 171); fill-opacity: 1; stroke: rgb(229, 236, 246); stroke-opacity: 1;"/></g><g class="point" style="vector-effect: none; stroke-miterlimit: 2;"><path d="M147.320876535987,151.8672450576183L141.23195957232107,156.11098382493262A10.6875,10.6875 0,0,0 143.88901617506738,158.76804042767893L148.1327549423817,152.679123464013A3.2656249999999996,3.2656249999999996 0,0,1 147.320876535987,151.8672450576183Z" style="opacity: 1; stroke-width: 0.5px; fill: rgb(65, 69, 171); fill-opacity: 1; stroke: rgb(229, 236, 246); stroke-opacity: 1;"/></g><g class="point" style="vector-effect: none; stroke-miterlimit: 2;"><path d="M146.52027154779438,150.76347635779425L137.2409956752461,152.79941331191225A13.062500000000002,13.062500000000002 0,0,0 138.998537384581,157.04249434302494L146.99960110488573,151.92068027537044A3.5625,3.5625 0,0,1 146.52027154779438,150.76347635779425Z" style="opacity: 1; stroke-width: 0.5px; fill: rgb(65, 69, 171); fill-opacity: 1; stroke: rgb(229, 236, 246); stroke-opacity: 1;"/></g><g class="point" style="vector-effect: none; stroke-miterlimit: 2;"><path d="M141.81695415275277,148.5386934230457L130.7113919314887,146.55549164003625A19.59375,19.59375 0,0,0 130.7113919314887,153.44450835996378L141.81695415275277,151.4613065769543A8.3125,8.3125 0,0,1 141.81695415275277,148.5386934230457Z" style="opacity: 1; stroke-width: 0.5px; fill: rgb(65, 69, 171); fill-opacity: 1; stroke: rgb(229, 236, 246); stroke-opacity: 1;"/></g><g class="point" style="vector-effect: none; stroke-miterlimit: 2;"><path d="M144.24923545103098,146.31869613887332L132.99773959435245,139.1161451062342A20.1875,20.1875 0,0,0 130.28153877083489,145.6736339724993L143.33052046660592,148.5366703142277A6.828124999999999,6.828124999999999 0,0,1 144.24923545103098,146.31869613887332Z" style="opacity: 1; stroke-width: 0.5px; fill: rgb(65, 69, 171); fill-opacity: 1; stroke: rgb(229, 236, 246); stroke-opacity: 1;"/></g><g class="point" style="vector-effect: none; stroke-miterlimit: 2;"><path d="M144.56801437783767,142.20618628650763L136.92928459667192,131.24613575190898A22.859374999999996,22.859374999999996 0,0,0 131.24613575190895,136.92928459667195L142.20618628650763,144.5680143778377A9.5,9.5 0,0,1 144.56801437783767,142.20618628650763Z" style="opacity: 1; stroke-width: 0.5px; fill: rgb(65, 69, 171); fill-opacity: 1; stroke: rgb(229, 236, 246); stroke-opacity: 1;"/></g><g class="point" style="vector-effect: none; stroke-miterlimit: 2;"><path d="M147.83681698624963,140.14076938541746L144.4011733761755,124.48199135049221A26.125000000000004,26.125000000000004 0,0,0 135.9150113139501,127.99707476916203L144.55807255311709,141.49886979717624A10.09375,10.09375 0,0,1 147.83681698624963,140.14076938541746Z" style="opacity: 1; stroke-width: 0.5px; fill: rgb(65, 69, 171); fill-opacity: 1; stroke: rgb(229, 236, 246); stroke-opacity: 1;"/></g></g></g><g class="trace bars" style="opacity: 1;"><g class="points"><g class="point" style="vector-effect: none; stroke-miterlimit: 2;"><path d="M155.0101939781291,121.94384280943808L163.36051727501095,75.18358082516824A76,76 0,0,0 136.63948272498908,75.18358082516824L144.9898060218709,121.94384280943808A28.5,28.5 0,0,1 155.0101939781291,121.94384280943808Z" style="opacity: 1; stroke-width: 0.5px; fill: rgb(70, 117, 237); fill-opacity: 1; stroke: rgb(229, 236, 246); stroke-opacity: 1;"/></g><g class="point" style="vector-effect: none; stroke-miterlimit: 2;"><path d="M167.28612247833394,122.99640994397156L199.29746040117456,72.98976169206702A91.43750000000001,91.43750000000001 0,0,0 169.59589318338558,60.68696972672272L156.8712872201482,118.68244393014953A32.0625,32.0625 0,0,1 167.28612247833394,122.99640994397156Z" style="opacity: 1; stroke-width: 0.5px; fill: rgb(70, 117, 237); fill-opacity: 1; stroke: rgb(229, 236, 246); stroke-opacity: 1;"/></g><g class="point" style="vector-effect: none; stroke-miterlimit: 2;"><path d="M183.12370828234262,126.91406110581015L234.0270540985897,91.43640501106252A102.421875,102.421875 0,0,0 208.5635949889375,65.9729459014103L173.08593889418987,116.8762917176574A40.375,40.375 0,0,1 183.12370828234262,126.91406110581015Z" style="opacity: 1; stroke-width: 0.5px; fill: rgb(70, 117, 237); fill-opacity: 1; stroke: rgb(229, 236, 246); stroke-opacity: 1;"/></g><g class="point" style="vector-effect: none; stroke-miterlimit: 2;"><path d="M170.29841597119938,145.54638791286692L182.76744292493615,142.81059763077087A33.546875,33.546875 0,0,0 178.25375626232605,131.91359407359505L167.50232688816658,138.79603172700578A20.78125,20.78125 0,0,1 170.29841597119938,145.54638791286692Z" style="opacity: 1; stroke-width: 0.5px; fill: rgb(70, 117, 237); fill-opacity: 1; stroke: rgb(229, 236, 246); stroke-opacity: 1;"/></g><g class="point" style="vector-effect: none; stroke-miterlimit: 2;"><path d="M169.8731113433147,153.54888740117477L172.50337607992986,154.01859308662438A22.859374999999996,22.859374999999996 0,0,0 172.50337607992986,145.98140691337562L169.8731113433147,146.45111259882523A20.1875,20.1875 0,0,1 169.8731113433147,153.54888740117477Z" style="opacity: 1; stroke-width: 0.5px; fill: rgb(70, 117, 237); fill-opacity: 1; stroke: rgb(229, 236, 246); stroke-opacity: 1;"/></g><g class="point" style="vector-effect: none; stroke-miterlimit: 2;"><path d="M161.001462615419,157.04249434302494L163.00172854549518,158.32294785993855A15.4375,15.4375 0,0,0 165.07882329289097,153.30839755044173L162.7590043247539,152.79941331191222A13.062500000000002,13.062500000000002 0,0,1 161.001462615419,157.04249434302494Z" style="opacity: 1; stroke-width: 0.5px; fill: rgb(70, 117, 237); fill-opacity: 1; stroke: rgb(229, 236, 246); stroke-opacity: 1;"/></g><g class="point" style="vector-effect: none; stroke-miterlimit: 2;"><path d="M158.65722708532118,162.42139060587849L161.37321989640236,166.31829746262468A19.890625,19.890625 0,0,0 166.31829746262466,161.37321989640236L162.42139060587849,158.6572270853212A15.140625,15.140625 0,0,1 158.65722708532118,162.42139060587849Z" style="opacity: 1; stroke-width: 0.5px; fill: rgb(70, 117, 237); fill-opacity: 1; stroke: rgb(229, 236, 246); stroke-opacity: 1;"/></g><g class="point" style="vector-effect: none; stroke-miterlimit: 2;"><path d="M151.78144483485323,158.11936638847976L153.053905431177,163.91891380882242A14.25,14.25 0,0,0 157.68272110148175,162.0015955804571L154.4815873091977,157.00093075526664A8.3125,8.3125 0,0,1 151.78144483485323,158.11936638847976Z" style="opacity: 1; stroke-width: 0.5px; fill: rgb(70, 117, 237); fill-opacity: 1; stroke: rgb(229, 236, 246); stroke-opacity: 1;"/></g><g class="point" style="vector-effect: none; stroke-miterlimit: 2;"><path d="M147.755850613963,162.56682040827252L146.8164392430638,167.82734988150287A18.109375,18.109375 0,0,0 153.1835607569362,167.82734988150287L152.24414938603698,162.56682040827252A12.765625,12.765625 0,0,1 147.755850613963,162.56682040827252Z" style="opacity: 1; stroke-width: 0.5px; fill: rgb(70, 117, 237); fill-opacity: 1; stroke: rgb(229, 236, 246); stroke-opacity: 1;"/></g><g class="point" style="vector-effect: none; stroke-miterlimit: 2;"><path d="M144.7181292427313,158.25109696156426L138.95608841662,167.25229364690705A20.484375,20.484375 0,0,0 145.6100109426831,170.00843860018225L147.90044001606583,159.5692532435654A9.796875,9.796875 0,0,1 144.7181292427313,158.25109696156426Z" style="opacity: 1; stroke-width: 0.5px; fill: rgb(70, 117, 237); fill-opacity: 1; stroke: rgb(229, 236, 246); stroke-opacity: 1;"/></g><g class="point" style="vector-effect: none; stroke-miterlimit: 2;"><path d="M141.23195957232107,156.11098382493262L132.95103250173543,161.88246854848006A20.781249999999996,20.781249999999996 0,0,0 138.11753145151994,167.04896749826457L143.88901617506738,158.76804042767893A10.6875,10.6875 0,0,1 141.23195957232107,156.11098382493262Z" style="opacity: 1; stroke-width: 0.5px; fill: rgb(70, 117, 237); fill-opacity: 1; stroke: rgb(229, 236, 246); stroke-opacity: 1;"/></g><g class="point" style="vector-effect: none; stroke-miterlimit: 2;"><path d="M137.2409956752461,152.79941331191225L118.68244393014953,156.87128722014822A32.0625,32.0625 0,0,0 122.99640994397157,167.28612247833397L138.998537384581,157.04249434302494A13.062500000000002,13.062500000000002 0,0,1 137.2409956752461,152.79941331191225Z" style="opacity: 1; stroke-width: 0.5px; fill: rgb(70, 117, 237); fill-opacity: 1; stroke: rgb(229, 236, 246); stroke-opacity: 1;"/></g><g class="point" style="vector-effect: none; stroke-miterlimit: 2;"><path d="M130.7113919314887,146.55549164003625L118.14457152321614,144.31134225399927A32.35937500000001,32.35937500000001 0,0,0 118.14457152321616,155.68865774600076L130.7113919314887,153.44450835996378A19.59375,19.59375 0,0,1 130.7113919314887,146.55549164003625Z" style="opacity: 1; stroke-width: 0.5px; fill: rgb(70, 117, 237); fill-opacity: 1; stroke: rgb(229, 236, 246); stroke-opacity: 1;"/></g><g class="point" style="vector-effect: none; stroke-miterlimit: 2;"><path d="M132.99773959435245,139.1161451062342L126.49687532160488,134.95467117626492A27.90625,27.90625 0,0,0 122.74212712438941,144.01943519727843L130.28153877083489,145.6736339724993A20.1875,20.1875 0,0,1 132.99773959435245,139.1161451062342Z" style="opacity: 1; stroke-width: 0.5px; fill: rgb(70, 117, 237); fill-opacity: 1; stroke: rgb(229, 236, 246); stroke-opacity: 1;"/></g><g class="point" style="vector-effect: none; stroke-miterlimit: 2;"><path d="M136.92928459667192,131.24613575190898L128.61155661273585,119.31185850312379A37.40624999999999,37.40624999999999 0,0,0 119.31185850312376,128.61155661273588L131.24613575190895,136.92928459667195A22.859374999999996,22.859374999999996 0,0,1 136.92928459667192,131.24613575190898Z" style="opacity: 1; stroke-width: 0.5px; fill: rgb(70, 117, 237); fill-opacity: 1; stroke: rgb(229, 236, 246); stroke-opacity: 1;"/></g><g class="point" style="vector-effect: none; stroke-miterlimit: 2;"><path d="M144.4011733761755,124.48199135049221L136.25742555970353,87.36488786029906A64.125,64.125 0,0,0 115.42775504333207,95.99281988794314L135.9150113139501,127.99707476916203A26.125000000000004,26.125000000000004 0,0,1 144.4011733761755,124.48199135049221Z" style="opacity: 1; stroke-width: 0.5px; fill: rgb(70, 117, 237); fill-opacity: 1; stroke: rgb(229, 236, 246); stroke-opacity: 1;"/></g></g></g><g class="trace bars" style="opacity: 1;"><g class="points"><g class="point" style="vector-effect: none; stroke-miterlimit: 2;"><path d="M163.36051727501095,75.18358082516824L166.8572151555802,55.602721119255236A95.89062499999999,95.89062499999999 0,0,0 133.1427848444198,55.602721119255236L136.63948272498908,75.18358082516824A76,76 0,0,1 163.36051727501095,75.18358082516824Z" style="opacity: 1; stroke-width: 0.5px; fill: rgb(57, 162, 252); fill-opacity: 1; stroke: rgb(229, 236, 246); stroke-opacity: 1;"/></g><g class="point" style="vector-effect: none; stroke-miterlimit: 2;"><path d="M199.29746040117456,72.98976169206702L224.10624729137604,34.234609296841015A137.453125,137.453125 0,0,0 179.4574628048946,15.740477219066975L169.59589318338558,60.68696972672272A91.43750000000001,91.43750000000001 0,0,1 199.29746040117456,72.98976169206702Z" style="opacity: 1; stroke-width: 0.5px; fill: rgb(57, 162, 252); fill-opacity: 1; stroke: rgb(229, 236, 246); stroke-opacity: 1;"/></g><g class="point" style="vector-effect: none; stroke-miterlimit: 2;"><path d="M234.0270540985897,91.43640501106252L266.66364902383907,68.68996521825781A142.203125,142.203125 0,0,0 231.31003478174222,33.33635097616097L208.5635949889375,65.9729459014103A102.421875,102.421875 0,0,1 234.0270540985897,91.43640501106252Z" style="opacity: 1; stroke-width: 0.5px; fill: rgb(57, 162, 252); fill-opacity: 1; stroke: rgb(229, 236, 246); stroke-opacity: 1;"/></g><g class="point" style="vector-effect: none; stroke-miterlimit: 2;"><path d="M182.76744292493615,142.81059763077087L189.1469450873131,141.41089097481475A40.078125,40.078125 0,0,0 183.75448757003556,128.39234690208258L178.25375626232605,131.91359407359505A33.546875,33.546875 0,0,1 182.76744292493615,142.81059763077087Z" style="opacity: 1; stroke-width: 0.5px; fill: rgb(57, 162, 252); fill-opacity: 1; stroke: rgb(229, 236, 246); stroke-opacity: 1;"/></g><g class="point" style="vector-effect: none; stroke-miterlimit: 2;"><path d="M172.50337607992986,154.01859308662438L174.25688590433998,154.33173021025743A24.640625,24.640625 0,0,0 174.25688590433998,145.66826978974254L172.50337607992986,145.98140691337562A22.859374999999996,22.859374999999996 0,0,1 172.50337607992986,154.01859308662438Z" style="opacity: 1; stroke-width: 0.5px; fill: rgb(57, 162, 252); fill-opacity: 1; stroke: rgb(229, 236, 246); stroke-opacity: 1;"/></g><g class="point" style="vector-effect: none; stroke-miterlimit: 2;"><path d="M163.00172854549518,158.32294785993855L163.2517617867547,158.48300454955276A15.734375000000002,15.734375000000002 0,0,0 165.3688006639081,153.3720205802579L165.07882329289097,153.30839755044173A15.4375,15.4375 0,0,1 163.00172854549518,158.32294785993855Z" style="opacity: 1; stroke-width: 0.5px; fill: rgb(57, 162, 252); fill-opacity: 1; stroke: rgb(229, 236, 246); stroke-opacity: 1;"/></g><g class="point" style="vector-effect: none; stroke-miterlimit: 2;"><path d="M0,0Z" style="opacity: 1; stroke-width: 0.5px; fill: rgb(57, 162, 252); fill-opacity: 1; stroke: rgb(229, 236, 246); stroke-opacity: 1;"/></g><g class="point" style="vector-effect: none; stroke-miterlimit: 2;"><path d="M153.053905431177,163.91891380882242L153.62651269952266,166.52871014797665A16.921875,16.921875 0,0,0 159.12323130800957,164.2518947517928L157.68272110148175,162.0015955804571A14.25,14.25 0,0,1 153.053905431177,163.91891380882242Z" style="opacity: 1; stroke-width: 0.5px; fill: rgb(57, 162, 252); fill-opacity: 1; stroke: rgb(229, 236, 246); stroke-opacity: 1;"/></g><g class="point" style="vector-effect: none; stroke-miterlimit: 2;"><path d="M146.8164392430638,167.82734988150287L146.55549164003625,169.2886080685113A19.593749999999996,19.593749999999996 0,0,0 153.44450835996375,169.2886080685113L153.1835607569362,167.82734988150287A18.109375,18.109375 0,0,1 146.8164392430638,167.82734988150287Z" style="opacity: 1; stroke-width: 0.5px; fill: rgb(57, 162, 252); fill-opacity: 1; stroke: rgb(229, 236, 246); stroke-opacity: 1;"/></g><g class="point" style="vector-effect: none; stroke-miterlimit: 2;"><path d="M138.95608841662,167.25229364690705L136.71529476202113,170.75275902454038A24.640625,24.640625 0,0,0 144.71928852525647,174.06812179442213L145.6100109426831,170.00843860018225A20.484375,20.484375 0,0,1 138.95608841662,167.25229364690705Z" style="opacity: 1; stroke-width: 0.5px; fill: rgb(57, 162, 252); fill-opacity: 1; stroke: rgb(229, 236, 246); stroke-opacity: 1;"/></g><g class="point" style="vector-effect: none; stroke-miterlimit: 2;"><path d="M132.95103250173543,161.88246854848006L123.69587871696322,168.33295147479782A32.0625,32.0625 0,0,0 131.66704852520218,176.30412128303678L138.11753145151994,167.04896749826457A20.781249999999996,20.781249999999996 0,0,1 132.95103250173543,161.88246854848006Z" style="opacity: 1; stroke-width: 0.5px; fill: rgb(57, 162, 252); fill-opacity: 1; stroke: rgb(229, 236, 246); stroke-opacity: 1;"/></g><g class="point" style="vector-effect: none; stroke-miterlimit: 2;"><path d="M118.68244393014953,156.87128722014822L94.6143221357274,162.15199869489177A56.70312500000001,56.70312500000001 0,0,0 102.2436509194312,180.57082771631286L122.99640994397157,167.28612247833397A32.0625,32.0625 0,0,1 118.68244393014953,156.87128722014822Z" style="opacity: 1; stroke-width: 0.5px; fill: rgb(57, 162, 252); fill-opacity: 1; stroke: rgb(229, 236, 246); stroke-opacity: 1;"/></g><g class="point" style="vector-effect: none; stroke-miterlimit: 2;"><path d="M118.14457152321614,144.31134225399927L111.13053222557568,143.058793759467A39.484375,39.484375 0,0,0 111.13053222557568,156.94120624053303L118.14457152321616,155.68865774600076A32.35937500000001,32.35937500000001 0,0,1 118.14457152321614,144.31134225399927Z" style="opacity: 1; stroke-width: 0.5px; fill: rgb(57, 162, 252); fill-opacity: 1; stroke: rgb(229, 236, 246); stroke-opacity: 1;"/></g><g class="point" style="vector-effect: none; stroke-miterlimit: 2;"><path d="M126.49687532160488,134.95467117626492L125.7467755978263,134.4745011074223A28.796875,28.796875 0,0,0 121.87219501133801,143.82856610782986L122.74212712438941,144.01943519727843A27.90625,27.90625 0,0,1 126.49687532160488,134.95467117626492Z" style="opacity: 1; stroke-width: 0.5px; fill: rgb(57, 162, 252); fill-opacity: 1; stroke: rgb(229, 236, 246); stroke-opacity: 1;"/></g><g class="point" style="vector-effect: none; stroke-miterlimit: 2;"><path d="M128.61155661273585,119.31185850312379L118.25683402048892,104.45490111177895A55.51562499999999,55.51562499999999 0,0,0 104.4549011117789,118.25683402048898L119.31185850312376,128.61155661273588A37.40624999999999,37.40624999999999 0,0,1 128.61155661273585,119.31185850312379Z" style="opacity: 1; stroke-width: 0.5px; fill: rgb(57, 162, 252); fill-opacity: 1; stroke: rgb(229, 236, 246); stroke-opacity: 1;"/></g><g class="point" style="vector-effect: none; stroke-miterlimit: 2;"><path d="M136.25742555970353,87.36488786029906L127.54107047488587,47.63798803095173A104.79687499999999,104.79687499999999 0,0,0 93.49998856618622,61.738265835388574L115.42775504333207,95.99281988794314A64.125,64.125 0,0,1 136.25742555970353,87.36488786029906Z" style="opacity: 1; stroke-width: 0.5px; fill: rgb(57, 162, 252); fill-opacity: 1; stroke: rgb(229, 236, 246); stroke-opacity: 1;"/></g></g></g><g class="trace bars" style="opacity: 1;"><g class="points"><g class="point" style="vector-effect: none; stroke-miterlimit: 2;"><path d="M166.8572151555802,55.602721119255236L167.01378371739673,54.72596620705018A96.78124999999999,96.78124999999999 0,0,0 132.98621628260327,54.72596620705018L133.1427848444198,55.602721119255236A95.89062499999999,95.89062499999999 0,0,1 166.8572151555802,55.602721119255236Z" style="opacity: 1; stroke-width: 0.5px; fill: rgb(27, 207, 212); fill-opacity: 1; stroke: rgb(229, 236, 246); stroke-opacity: 1;"/></g><g class="point" style="vector-effect: none; stroke-miterlimit: 2;"><path d="M224.10624729137604,34.234609296841015L225.54675749790385,31.984310125505317A140.125,140.125 0,0,0 180.03007007324027,13.130680879912745L179.4574628048946,15.740477219066975A137.453125,137.453125 0,0,1 224.10624729137604,34.234609296841015Z" style="opacity: 1; stroke-width: 0.5px; fill: rgb(27, 207, 212); fill-opacity: 1; stroke: rgb(229, 236, 246); stroke-opacity: 1;"/></g><g class="point" style="vector-effect: none; stroke-miterlimit: 2;"><path d="M266.66364902383907,68.68996521825781L266.9072057023857,68.52021566756524A142.5,142.5 0,0,0 231.47978433243478,33.09279429761433L231.31003478174222,33.33635097616097A142.203125,142.203125 0,0,1 266.66364902383907,68.68996521825781Z" style="opacity: 1; stroke-width: 0.5px; fill: rgb(27, 207, 212); fill-opacity: 1; stroke: rgb(229, 236, 246); stroke-opacity: 1;"/></g><g class="point" style="vector-effect: none; stroke-miterlimit: 2;"><path d="M0,0Z" style="opacity: 1; stroke-width: 0.5px; fill: rgb(27, 207, 212); fill-opacity: 1; stroke: rgb(229, 236, 246); stroke-opacity: 1;"/></g><g class="point" style="vector-effect: none; stroke-miterlimit: 2;"><path d="M0,0Z" style="opacity: 1; stroke-width: 0.5px; fill: rgb(27, 207, 212); fill-opacity: 1; stroke: rgb(229, 236, 246); stroke-opacity: 1;"/></g><g class="point" style="vector-effect: none; stroke-miterlimit: 2;"><path d="M0,0Z" style="opacity: 1; stroke-width: 0.5px; fill: rgb(27, 207, 212); fill-opacity: 1; stroke: rgb(229, 236, 246); stroke-opacity: 1;"/></g><g class="point" style="vector-effect: none; stroke-miterlimit: 2;"><path d="M0,0Z" style="opacity: 1; stroke-width: 0.5px; fill: rgb(27, 207, 212); fill-opacity: 1; stroke: rgb(229, 236, 246); stroke-opacity: 1;"/></g><g class="point" style="vector-effect: none; stroke-miterlimit: 2;"><path d="M0,0Z" style="opacity: 1; stroke-width: 0.5px; fill: rgb(27, 207, 212); fill-opacity: 1; stroke: rgb(229, 236, 246); stroke-opacity: 1;"/></g><g class="point" style="vector-effect: none; stroke-miterlimit: 2;"><path d="M0,0Z" style="opacity: 1; stroke-width: 0.5px; fill: rgb(27, 207, 212); fill-opacity: 1; stroke: rgb(229, 236, 246); stroke-opacity: 1;"/></g><g class="point" style="vector-effect: none; stroke-miterlimit: 2;"><path d="M136.71529476202113,170.75275902454038L136.23512469317853,171.50285874831894A25.53125,25.53125 0,0,0 144.5284194358079,174.93805390747352L144.71928852525647,174.06812179442213A24.640625,24.640625 0,0,1 136.71529476202113,170.75275902454038Z" style="opacity: 1; stroke-width: 0.5px; fill: rgb(27, 207, 212); fill-opacity: 1; stroke: rgb(229, 236, 246); stroke-opacity: 1;"/></g><g class="point" style="vector-effect: none; stroke-miterlimit: 2;"><path d="M123.69587871696322,168.33295147479782L115.65850832492421,173.9346866476527A41.85937499999999,41.85937499999999 0,0,0 126.06531335234729,184.3414916750758L131.66704852520218,176.30412128303678A32.0625,32.0625 0,0,1 123.69587871696322,168.33295147479782Z" style="opacity: 1; stroke-width: 0.5px; fill: rgb(27, 207, 212); fill-opacity: 1; stroke: rgb(229, 236, 246); stroke-opacity: 1;"/></g><g class="point" style="vector-effect: none; stroke-miterlimit: 2;"><path d="M94.6143221357274,162.15199869489177L90.2646615704704,163.1063441421346A61.15625000000001,61.15625000000001 0,0,0 98.49315230053836,182.9716780605259L102.2436509194312,180.57082771631286A56.70312500000001,56.70312500000001 0,0,1 94.6143221357274,162.15199869489177Z" style="opacity: 1; stroke-width: 0.5px; fill: rgb(27, 207, 212); fill-opacity: 1; stroke: rgb(229, 236, 246); stroke-opacity: 1;"/></g><g class="point" style="vector-effect: none; stroke-miterlimit: 2;"><path d="M111.13053222557568,143.058793759467L110.838280588174,143.00660423886148A39.78125,39.78125 0,0,0 110.838280588174,156.99339576113854L111.13053222557568,156.94120624053303A39.484375,39.484375 0,0,1 111.13053222557568,143.058793759467Z" style="opacity: 1; stroke-width: 0.5px; fill: rgb(27, 207, 212); fill-opacity: 1; stroke: rgb(229, 236, 246); stroke-opacity: 1;"/></g><g class="point" style="vector-effect: none; stroke-miterlimit: 2;"><path d="M0,0Z" style="opacity: 1; stroke-width: 0.5px; fill: rgb(27, 207, 212); fill-opacity: 1; stroke: rgb(229, 236, 246); stroke-opacity: 1;"/></g><g class="point" style="vector-effect: none; stroke-miterlimit: 2;"><path d="M118.25683402048892,104.45490111177895L115.54084120940777,100.55799425503275A60.26562499999999,60.26562499999999 0,0,0 100.55799425503271,115.54084120940783L104.4549011117789,118.25683402048898A55.51562499999999,55.51562499999999 0,0,1 118.25683402048892,104.45490111177895Z" style="opacity: 1; stroke-width: 0.5px; fill: rgb(27, 207, 212); fill-opacity: 1; stroke: rgb(229, 236, 246); stroke-opacity: 1;"/></g><g class="point" style="vector-effect: none; stroke-miterlimit: 2;"><path d="M127.54107047488587,47.63798803095173L125.95049472948119,40.388553755523375A112.21875,112.21875 0,0,0 89.49857132583112,55.48743480390051L93.49998856618622,61.738265835388574A104.79687499999999,104.79687499999999 0,0,1 127.54107047488587,47.63798803095173Z" style="opacity: 1; stroke-width: 0.5px; fill: rgb(27, 207, 212); fill-opacity: 1; stroke: rgb(229, 236, 246); stroke-opacity: 1;"/></g></g></g></g><g class="scatterlayer"/></g><g class="polarsublayer angular-line"><path d="M150,0A150,150 0,1,0 -150,-1.8369701987210297e-14A150,150 0,1,0 150,3.6739403974420595e-14Z" transform="translate(212.5,200)" stroke-width="1" style="fill: none; stroke: rgb(255, 255, 255); stroke-opacity: 1;"/></g><g class="polarsublayer radial-line"><line x1="0" y1="0" x2="150" y2="0" transform="translate(212.5,200)" stroke-width="1" style="fill: none; stroke: rgb(255, 255, 255); stroke-opacity: 1;"/></g><g class="polarsublayer angular-axis"><g class="angularaxistick"><text text-anchor="middle" x="1.7757378587636624e-16" y="-5.300000000000001" transform="translate(212.5,50)" style="font-family: 'Open Sans', verdana, arial, sans-serif; font-size: 12px; fill: rgb(42, 63, 95); fill-opacity: 1; white-space: pre; opacity: 1;">0°</text></g><g class="angularaxistick"><text text-anchor="start" x="2.050609665440988" y="-0.7778174593052025" transform="translate(318.56601717798213,93.93398282201788)" style="font-family: 'Open Sans', verdana, arial, sans-serif; font-size: 12px; fill: rgb(42, 63, 95); fill-opacity: 1; white-space: pre; opacity: 1;">45°</text></g><g class="angularaxistick"><text text-anchor="start" x="2.9000000000000004" y="4.199999999999999" transform="translate(362.5,200)" style="font-family: 'Open Sans', verdana, arial, sans-serif; font-size: 12px; fill: rgb(42, 63, 95); fill-opacity: 1; white-space: pre; opacity: 1;">90°</text></g><g class="angularaxistick"><text text-anchor="start" x="2.050609665440988" y="13.505739520663056" transform="translate(318.56601717798213,306.06601717798213)" style="font-family: 'Open Sans', verdana, arial, sans-serif; font-size: 12px; fill: rgb(42, 63, 95); fill-opacity: 1; white-space: pre; opacity: 1;">135°</text></g><g class="angularaxistick"><text text-anchor="middle" x="1.7757378587636624e-16" y="14.9" transform="translate(212.5,350)" style="font-family: 'Open Sans', verdana, arial, sans-serif; font-size: 12px; fill: rgb(42, 63, 95); fill-opacity: 1; white-space: pre; opacity: 1;">180°</text></g><g class="angularaxistick"><text text-anchor="end" x="-2.0506096654409878" y="13.505739520663058" transform="translate(106.43398282201788,306.06601717798213)" style="font-family: 'Open Sans', verdana, arial, sans-serif; font-size: 12px; fill: rgb(42, 63, 95); fill-opacity: 1; white-space: pre; opacity: 1;">225°</text></g><g class="angularaxistick"><text text-anchor="end" x="-2.9000000000000004" y="4.200000000000001" transform="translate(62.5,200.00000000000003)" style="font-family: 'Open Sans', verdana, arial, sans-serif; font-size: 12px; fill: rgb(42, 63, 95); fill-opacity: 1; white-space: pre; opacity: 1;">270°</text></g><g class="angularaxistick"><text text-anchor="end" x="-2.0506096654409887" y="-0.7778174593052021" transform="translate(106.43398282201785,93.93398282201788)" style="font-family: 'Open Sans', verdana, arial, sans-serif; font-size: 12px; fill: rgb(42, 63, 95); fill-opacity: 1; white-space: pre; opacity: 1;">315°</text></g></g><g class="polarsublayer radial-axis" transform="translate(212.5,200)"><g class="xtick"><text text-anchor="middle" x="0" y="14.9" transform="" style="font-family: 'Open Sans', verdana, arial, sans-serif; font-size: 12px; fill: rgb(42, 63, 95); fill-opacity: 1; white-space: pre; opacity: 1;">0</text></g><g class="xtick"><text text-anchor="middle" x="0" y="14.9" transform="translate(17.81,0)" style="font-family: 'Open Sans', verdana, arial, sans-serif; font-size: 12px; fill: rgb(42, 63, 95); fill-opacity: 1; white-space: pre; opacity: 1;">2</text></g><g class="xtick"><text text-anchor="middle" x="0" y="14.9" transform="translate(35.63,0)" style="font-family: 'Open Sans', verdana, arial, sans-serif; font-size: 12px; fill: rgb(42, 63, 95); fill-opacity: 1; white-space: pre; opacity: 1;">4</text></g><g class="xtick"><text text-anchor="middle" x="0" y="14.9" transform="translate(53.44,0)" style="font-family: 'Open Sans', verdana, arial, sans-serif; font-size: 12px; fill: rgb(42, 63, 95); fill-opacity: 1; white-space: pre; opacity: 1;">6</text></g><g class="xtick"><text text-anchor="middle" x="0" y="14.9" transform="translate(71.25,0)" style="font-family: 'Open Sans', verdana, arial, sans-serif; font-size: 12px; fill: rgb(42, 63, 95); fill-opacity: 1; white-space: pre; opacity: 1;">8</text></g><g class="xtick"><text text-anchor="middle" x="0" y="14.9" transform="translate(89.06,0)" style="font-family: 'Open Sans', verdana, arial, sans-serif; font-size: 12px; fill: rgb(42, 63, 95); fill-opacity: 1; white-space: pre; opacity: 1;">10</text></g><g class="xtick"><text text-anchor="middle" x="0" y="14.9" transform="translate(106.88,0)" style="font-family: 'Open Sans', verdana, arial, sans-serif; font-size: 12px; fill: rgb(42, 63, 95); fill-opacity: 1; white-space: pre; opacity: 1;">12</text></g><g class="xtick"><text text-anchor="middle" x="0" y="14.9" transform="translate(124.69,0)" style="font-family: 'Open Sans', verdana, arial, sans-serif; font-size: 12px; fill: rgb(42, 63, 95); fill-opacity: 1; white-space: pre; opacity: 1;">14</text></g><g class="xtick"><text text-anchor="middle" x="0" y="14.9" transform="translate(142.5,0)" style="font-family: 'Open Sans', verdana, arial, sans-serif; font-size: 12px; fill: rgb(42, 63, 95); fill-opacity: 1; white-space: pre; opacity: 1;">16</text></g></g></g></g><g class="smithlayer"/><g class="ternarylayer"/><g class="geolayer"/><g class="funnelarealayer"/><g class="pielayer"/><g class="iciclelayer"/><g class="treemaplayer"/><g class="sunburstlayer"/><g class="glimages"/><defs id="topdefs-8739e6"><g class="clips"/><clipPath id="legend8739e6"><rect width="106" height="124" x="0" y="0"/></clipPath></defs><g class="layer-above"><g class="imagelayer"/><g class="shapelayer"/></g><g class="infolayer"><g class="legend" pointer-events="all" transform="translate(381.5,50)"><rect class="bg" shape-rendering="crispEdges" width="106" height="124" x="0" y="0" style="stroke: rgb(68, 68, 68); stroke-opacity: 1; fill: rgb(255, 255, 255); fill-opacity: 1; stroke-width: 0px;"/><g class="scrollbox" transform="" clip-path="url(#legend8739e6)"><text class="legendtitletext" text-anchor="start" x="2" y="18.2" style="font-family: 'Open Sans', verdana, arial, sans-serif; font-size: 14px; fill: rgb(42, 63, 95); fill-opacity: 1; white-space: pre;">AMB_WS [m/s]</text><g class="groups" transform=""><g class="traces" transform="translate(0,32.7)" style="opacity: 1;"><text class="legendtext" text-anchor="start" x="40" y="4.680000000000001" style="font-family: 'Open Sans', verdana, arial, sans-serif; font-size: 12px; fill: rgb(42, 63, 95); fill-opacity: 1; white-space: pre;">[0.0, 3.5)</text><g class="layers" style="opacity: 1;"><g class="legendfill"/><g class="legendlines"/><g class="legendsymbols"><g class="legendpoints"><path class="legendundefined" d="M6,6H-6V-6H6Z" transform="translate(20,0)" style="stroke-width: 0.5px; fill: rgb(48, 18, 59); fill-opacity: 1; stroke: rgb(229, 236, 246); stroke-opacity: 1;"/></g></g></g><rect class="legendtoggle" x="0" y="-9.5" width="100.71875" height="19" style="fill: rgb(0, 0, 0); fill-opacity: 0;"/></g></g><g class="groups" transform=""><g class="traces" transform="translate(0,51.7)" style="opacity: 1;"><text class="legendtext" text-anchor="start" x="40" y="4.680000000000001" style="font-family: 'Open Sans', verdana, arial, sans-serif; font-size: 12px; fill: rgb(42, 63, 95); fill-opacity: 1; white-space: pre;">[3.5, 6.0)</text><g class="layers" style="opacity: 1;"><g class="legendfill"/><g class="legendlines"/><g class="legendsymbols"><g class="legendpoints"><path class="legendundefined" d="M6,6H-6V-6H6Z" transform="translate(20,0)" style="stroke-width: 0.5px; fill: rgb(65, 69, 171); fill-opacity: 1; stroke: rgb(229, 236, 246); stroke-opacity: 1;"/></g></g></g><rect class="legendtoggle" x="0" y="-9.5" width="100.71875" height="19" style="fill: rgb(0, 0, 0); fill-opacity: 0;"/></g></g><g class="groups" transform=""><g class="traces" transform="translate(0,70.7)" style="opacity: 1;"><text class="legendtext" text-anchor="start" x="40" y="4.680000000000001" style="font-family: 'Open Sans', verdana, arial, sans-serif; font-size: 12px; fill: rgb(42, 63, 95); fill-opacity: 1; white-space: pre;">[6.0, 10.0)</text><g class="layers" style="opacity: 1;"><g class="legendfill"/><g class="legendlines"/><g class="legendsymbols"><g class="legendpoints"><path class="legendundefined" d="M6,6H-6V-6H6Z" transform="translate(20,0)" style="stroke-width: 0.5px; fill: rgb(70, 117, 237); fill-opacity: 1; stroke: rgb(229, 236, 246); stroke-opacity: 1;"/></g></g></g><rect class="legendtoggle" x="0" y="-9.5" width="100.71875" height="19" style="fill: rgb(0, 0, 0); fill-opacity: 0;"/></g></g><g class="groups" transform=""><g class="traces" transform="translate(0,89.7)" style="opacity: 1;"><text class="legendtext" text-anchor="start" x="40" y="4.680000000000001" style="font-family: 'Open Sans', verdana, arial, sans-serif; font-size: 12px; fill: rgb(42, 63, 95); fill-opacity: 1; white-space: pre;">[10.0, 15.0)</text><g class="layers" style="opacity: 1;"><g class="legendfill"/><g class="legendlines"/><g class="legendsymbols"><g class="legendpoints"><path class="legendundefined" d="M6,6H-6V-6H6Z" transform="translate(20,0)" style="stroke-width: 0.5px; fill: rgb(57, 162, 252); fill-opacity: 1; stroke: rgb(229, 236, 246); stroke-opacity: 1;"/></g></g></g><rect class="legendtoggle" x="0" y="-9.5" width="100.71875" height="19" style="fill: rgb(0, 0, 0); fill-opacity: 0;"/></g></g><g class="groups" transform=""><g class="traces" transform="translate(0,108.7)" style="opacity: 1;"><text class="legendtext" text-anchor="start" x="40" y="4.680000000000001" style="font-family: 'Open Sans', verdana, arial, sans-serif; font-size: 12px; fill: rgb(42, 63, 95); fill-opacity: 1; white-space: pre;">[15.0, 20.0)</text><g class="layers" style="opacity: 1;"><g class="legendfill"/><g class="legendlines"/><g class="legendsymbols"><g class="legendpoints"><path class="legendundefined" d="M6,6H-6V-6H6Z" transform="translate(20,0)" style="stroke-width: 0.5px; fill: rgb(27, 207, 212); fill-opacity: 1; stroke: rgb(229, 236, 246); stroke-opacity: 1;"/></g></g></g><rect class="legendtoggle" x="0" y="-9.5" width="100.71875" height="19" style="fill: rgb(0, 0, 0); fill-opacity: 0;"/></g></g></g><rect class="scrollbar" rx="20" ry="3" width="0" height="0" x="0" y="0" style="fill: rgb(128, 139, 164); fill-opacity: 1;"/></g><g class="g-gtitle"><text class="gtitle" x="250" y="12" text-anchor="middle" dy="0.7em" style="font-family: 'Open Sans', verdana, arial, sans-serif; font-size: 17px; fill: rgb(42, 63, 95); opacity: 1; font-weight: normal; white-space: pre;">Ambient wind speed</text></g><g class="g-polartitle"/></g></svg>